<svg xmlns="http://www.w3.org/2000/svg" width="1241.804" height="797" viewBox="0 0 1241.804 797">
  <g id="Grupo_1073477" data-name="Grupo 1073477" transform="translate(-178.529 -434)">
    <rect id="Rectángulo_377825" data-name="Rectángulo 377825" width="400" height="57" rx="28.5" transform="translate(677.333 434)" fill="#376460"/>
    <path id="Trazado_611223" data-name="Trazado 611223" d="M26.239,12.838H20.614v3.809h6.6V19H17.685V4.781H27.2V7.154H20.614v3.389h5.625ZM31.728,19H28.9V4h2.832Zm13.027-2.92a.909.909,0,0,0-.513-.815,5.824,5.824,0,0,0-1.646-.532q-3.77-.791-3.77-3.2a2.9,2.9,0,0,1,1.167-2.349,4.708,4.708,0,0,1,3.052-.942,5.067,5.067,0,0,1,3.218.947,2.985,2.985,0,0,1,1.206,2.461H44.647a1.366,1.366,0,0,0-.391-1,1.653,1.653,0,0,0-1.221-.4,1.689,1.689,0,0,0-1.1.322,1.017,1.017,0,0,0-.391.82.87.87,0,0,0,.444.757,4.571,4.571,0,0,0,1.5.5,12.244,12.244,0,0,1,1.777.474A2.92,2.92,0,0,1,47.5,15.963a2.756,2.756,0,0,1-1.24,2.339,5.35,5.35,0,0,1-3.2.894,5.588,5.588,0,0,1-2.358-.474,3.957,3.957,0,0,1-1.616-1.3,3.018,3.018,0,0,1-.586-1.782h2.676a1.473,1.473,0,0,0,.557,1.152,2.208,2.208,0,0,0,1.387.4,2.044,2.044,0,0,0,1.226-.308A.957.957,0,0,0,44.755,16.08ZM54.179,19.2a5.187,5.187,0,0,1-3.784-1.426,5.068,5.068,0,0,1-1.46-3.8V13.7a6.383,6.383,0,0,1,.615-2.847,4.515,4.515,0,0,1,1.743-1.934,4.893,4.893,0,0,1,2.573-.679,4.385,4.385,0,0,1,3.413,1.367,5.555,5.555,0,0,1,1.245,3.877v1.152H51.8a2.622,2.622,0,0,0,.825,1.66,2.5,2.5,0,0,0,1.743.625,3.046,3.046,0,0,0,2.549-1.182L58.3,17.291a4.237,4.237,0,0,1-1.719,1.4A5.639,5.639,0,0,1,54.179,19.2Zm-.322-8.682a1.764,1.764,0,0,0-1.362.569,2.946,2.946,0,0,0-.669,1.628h3.926v-.226a2.1,2.1,0,0,0-.508-1.457A1.819,1.819,0,0,0,53.856,10.514Zm12.207.566A7.667,7.667,0,0,0,65.048,11a2.067,2.067,0,0,0-2.1,1.084V19H60.126V8.434h2.666l.078,1.26a2.615,2.615,0,0,1,2.354-1.455,2.957,2.957,0,0,1,.879.127Zm5.488,4.473,1.963-7.119h2.949L72.9,19H70.2L66.64,8.434h2.949ZM80.683,19H77.851V8.434h2.832Zm-3-13.3a1.39,1.39,0,0,1,.425-1.045,1.831,1.831,0,0,1,2.31,0,1.382,1.382,0,0,1,.43,1.045,1.386,1.386,0,0,1-.435,1.055,1.81,1.81,0,0,1-2.295,0A1.386,1.386,0,0,1,77.685,5.7ZM87.4,16.92a1.851,1.851,0,0,0,1.27-.43,1.506,1.506,0,0,0,.508-1.143h2.646a3.62,3.62,0,0,1-.586,1.968A3.866,3.866,0,0,1,89.662,18.7a4.936,4.936,0,0,1-2.212.493,4.587,4.587,0,0,1-3.574-1.44,5.7,5.7,0,0,1-1.309-3.979V13.59a5.635,5.635,0,0,1,1.3-3.9,4.534,4.534,0,0,1,3.564-1.455,4.444,4.444,0,0,1,3.179,1.128,3.994,3.994,0,0,1,1.216,3H89.179a1.939,1.939,0,0,0-.508-1.34,1.887,1.887,0,0,0-2.778.2,4.166,4.166,0,0,0-.5,2.333v.293a4.219,4.219,0,0,0,.5,2.347A1.721,1.721,0,0,0,87.4,16.92ZM96.415,19H93.583V8.434h2.832Zm-3-13.3a1.39,1.39,0,0,1,.425-1.045,1.831,1.831,0,0,1,2.31,0,1.382,1.382,0,0,1,.43,1.045,1.386,1.386,0,0,1-.435,1.055,1.81,1.81,0,0,1-2.295,0A1.386,1.386,0,0,1,93.417,5.7Zm4.883,7.92a6.266,6.266,0,0,1,.605-2.8,4.432,4.432,0,0,1,1.743-1.9,5.086,5.086,0,0,1,2.642-.674,4.812,4.812,0,0,1,3.491,1.309A5.252,5.252,0,0,1,108.29,13.1l.02.723a5.523,5.523,0,0,1-1.357,3.9,5.261,5.261,0,0,1-7.29,0A5.62,5.62,0,0,1,98.3,13.746Zm2.822.2a3.95,3.95,0,0,0,.566,2.3,2.035,2.035,0,0,0,3.223.01,4.322,4.322,0,0,0,.576-2.518,3.91,3.91,0,0,0-.576-2.289,1.873,1.873,0,0,0-1.621-.812,1.842,1.842,0,0,0-1.6.807A4.395,4.395,0,0,0,101.122,13.819Zm17.852,1.186,1.953-6.572h3.027l-4.248,12.207-.234.557a3.221,3.221,0,0,1-3.125,2.07,4.441,4.441,0,0,1-1.25-.186V20.943l.43.01a2.322,2.322,0,0,0,1.2-.244,1.6,1.6,0,0,0,.62-.811l.332-.869-3.7-10.6h3.037ZM133.026,19h-2.832V4h2.832Zm8.447,0a3.134,3.134,0,0,1-.283-.947,3.415,3.415,0,0,1-2.666,1.143,3.752,3.752,0,0,1-2.573-.9,2.889,2.889,0,0,1-1.021-2.266,2.986,2.986,0,0,1,1.245-2.578,6.144,6.144,0,0,1,3.6-.908h1.3v-.605a1.741,1.741,0,0,0-.376-1.172,1.479,1.479,0,0,0-1.187-.439,1.682,1.682,0,0,0-1.118.342,1.161,1.161,0,0,0-.405.938h-2.822a2.835,2.835,0,0,1,.566-1.7,3.744,3.744,0,0,1,1.6-1.226,5.837,5.837,0,0,1,2.324-.444,4.611,4.611,0,0,1,3.1.981,3.433,3.433,0,0,1,1.147,2.759v4.58a5.052,5.052,0,0,0,.42,2.275V19Zm-2.334-1.963a2.431,2.431,0,0,0,1.152-.278,1.828,1.828,0,0,0,.781-.747V14.2h-1.055q-2.119,0-2.256,1.465l-.01.166a1.13,1.13,0,0,0,.371.869A1.441,1.441,0,0,0,139.14,17.037ZM157.177,19a3.134,3.134,0,0,1-.283-.947,3.415,3.415,0,0,1-2.666,1.143,3.752,3.752,0,0,1-2.573-.9,2.889,2.889,0,0,1-1.021-2.266,2.986,2.986,0,0,1,1.245-2.578,6.144,6.144,0,0,1,3.6-.908h1.3v-.605a1.741,1.741,0,0,0-.376-1.172,1.479,1.479,0,0,0-1.187-.439,1.682,1.682,0,0,0-1.118.342,1.161,1.161,0,0,0-.405.938h-2.822a2.835,2.835,0,0,1,.566-1.7,3.744,3.744,0,0,1,1.6-1.226,5.837,5.837,0,0,1,2.324-.444,4.611,4.611,0,0,1,3.1.981,3.433,3.433,0,0,1,1.147,2.759v4.58a5.052,5.052,0,0,0,.42,2.275V19Zm-2.334-1.963A2.431,2.431,0,0,0,156,16.759a1.828,1.828,0,0,0,.781-.747V14.2h-1.055q-2.119,0-2.256,1.465l-.01.166a1.13,1.13,0,0,0,.371.869A1.441,1.441,0,0,0,154.843,17.037ZM167.5,16.08a.909.909,0,0,0-.513-.815,5.824,5.824,0,0,0-1.646-.532q-3.77-.791-3.77-3.2a2.9,2.9,0,0,1,1.167-2.349,4.708,4.708,0,0,1,3.052-.942,5.067,5.067,0,0,1,3.218.947,2.985,2.985,0,0,1,1.206,2.461h-2.822a1.366,1.366,0,0,0-.391-1,1.653,1.653,0,0,0-1.221-.4,1.689,1.689,0,0,0-1.1.322,1.017,1.017,0,0,0-.391.82.87.87,0,0,0,.444.757,4.571,4.571,0,0,0,1.5.5,12.244,12.244,0,0,1,1.777.474,2.92,2.92,0,0,1,2.236,2.842A2.756,2.756,0,0,1,169,18.3a5.35,5.35,0,0,1-3.2.894,5.588,5.588,0,0,1-2.358-.474,3.957,3.957,0,0,1-1.616-1.3,3.018,3.018,0,0,1-.586-1.782h2.676a1.473,1.473,0,0,0,.557,1.152,2.208,2.208,0,0,0,1.387.4,2.044,2.044,0,0,0,1.226-.308A.957.957,0,0,0,167.5,16.08Zm9.424,3.115a5.187,5.187,0,0,1-3.784-1.426,5.068,5.068,0,0,1-1.46-3.8V13.7a6.383,6.383,0,0,1,.615-2.847,4.515,4.515,0,0,1,1.743-1.934,4.893,4.893,0,0,1,2.573-.679,4.385,4.385,0,0,1,3.413,1.367,5.555,5.555,0,0,1,1.245,3.877v1.152H174.54a2.622,2.622,0,0,0,.825,1.66,2.5,2.5,0,0,0,1.743.625,3.046,3.046,0,0,0,2.549-1.182l1.387,1.553a4.237,4.237,0,0,1-1.719,1.4A5.639,5.639,0,0,1,176.923,19.2Zm-.322-8.682a1.764,1.764,0,0,0-1.362.569,2.946,2.946,0,0,0-.669,1.628H178.5v-.226a2.1,2.1,0,0,0-.508-1.457A1.819,1.819,0,0,0,176.6,10.514Zm11.992,5.566a.909.909,0,0,0-.513-.815,5.824,5.824,0,0,0-1.646-.532q-3.77-.791-3.77-3.2a2.9,2.9,0,0,1,1.167-2.349,4.708,4.708,0,0,1,3.052-.942,5.067,5.067,0,0,1,3.218.947,2.985,2.985,0,0,1,1.206,2.461h-2.822a1.366,1.366,0,0,0-.391-1,1.653,1.653,0,0,0-1.221-.4,1.689,1.689,0,0,0-1.1.322,1.017,1.017,0,0,0-.391.82.87.87,0,0,0,.444.757,4.571,4.571,0,0,0,1.5.5,12.244,12.244,0,0,1,1.777.474,2.92,2.92,0,0,1,2.236,2.842A2.756,2.756,0,0,1,190.1,18.3a5.35,5.35,0,0,1-3.2.894,5.588,5.588,0,0,1-2.358-.474,3.957,3.957,0,0,1-1.616-1.3,3.018,3.018,0,0,1-.586-1.782h2.676a1.473,1.473,0,0,0,.557,1.152,2.208,2.208,0,0,0,1.387.4,2.044,2.044,0,0,0,1.226-.308A.957.957,0,0,0,188.593,16.08Zm4.121-2.461a6.267,6.267,0,0,1,.605-2.8,4.432,4.432,0,0,1,1.743-1.9,5.086,5.086,0,0,1,2.642-.674A4.812,4.812,0,0,1,201.2,9.547,5.252,5.252,0,0,1,202.7,13.1l.02.723a5.523,5.523,0,0,1-1.357,3.9,5.261,5.261,0,0,1-7.29,0,5.62,5.62,0,0,1-1.362-3.984Zm2.822.2a3.95,3.95,0,0,0,.566,2.3,2.035,2.035,0,0,0,3.223.01,4.322,4.322,0,0,0,.576-2.518,3.91,3.91,0,0,0-.576-2.289,1.873,1.873,0,0,0-1.621-.812,1.842,1.842,0,0,0-1.6.807A4.395,4.395,0,0,0,195.536,13.819ZM210.4,11.08A7.667,7.667,0,0,0,209.384,11a2.067,2.067,0,0,0-2.1,1.084V19h-2.822V8.434h2.666l.078,1.26a2.615,2.615,0,0,1,2.354-1.455,2.957,2.957,0,0,1,.879.127ZM214.8,19h-2.822V8.434H214.8Zm-.83-14.854h3.076l-2.705,3.027H212.05ZM223.358,19a3.134,3.134,0,0,1-.283-.947,3.415,3.415,0,0,1-2.666,1.143,3.752,3.752,0,0,1-2.573-.9,2.889,2.889,0,0,1-1.021-2.266,2.986,2.986,0,0,1,1.245-2.578,6.144,6.144,0,0,1,3.6-.908h1.3v-.605a1.741,1.741,0,0,0-.376-1.172,1.479,1.479,0,0,0-1.187-.439,1.682,1.682,0,0,0-1.118.342,1.161,1.161,0,0,0-.405.938H217.05a2.835,2.835,0,0,1,.566-1.7,3.744,3.744,0,0,1,1.6-1.226,5.837,5.837,0,0,1,2.324-.444,4.611,4.611,0,0,1,3.1.981,3.433,3.433,0,0,1,1.147,2.759v4.58a5.052,5.052,0,0,0,.42,2.275V19Zm-2.334-1.963a2.431,2.431,0,0,0,1.152-.278,1.828,1.828,0,0,0,.781-.747V14.2H221.9q-2.119,0-2.256,1.465l-.01.166a1.13,1.13,0,0,0,.371.869A1.441,1.441,0,0,0,221.024,17.037Zm16.309-.117a1.851,1.851,0,0,0,1.27-.43,1.506,1.506,0,0,0,.508-1.143h2.646a3.62,3.62,0,0,1-.586,1.968,3.866,3.866,0,0,1-1.577,1.387,4.936,4.936,0,0,1-2.212.493,4.587,4.587,0,0,1-3.574-1.44,5.7,5.7,0,0,1-1.309-3.979V13.59a5.635,5.635,0,0,1,1.3-3.9,4.534,4.534,0,0,1,3.564-1.455,4.444,4.444,0,0,1,3.179,1.128,3.994,3.994,0,0,1,1.216,3H239.11a1.939,1.939,0,0,0-.508-1.34,1.887,1.887,0,0,0-2.778.2,4.166,4.166,0,0,0-.5,2.333v.293a4.219,4.219,0,0,0,.5,2.347A1.721,1.721,0,0,0,237.333,16.92Zm5.6-3.3a6.267,6.267,0,0,1,.605-2.8,4.432,4.432,0,0,1,1.743-1.9,5.086,5.086,0,0,1,2.642-.674,4.812,4.812,0,0,1,3.491,1.309,5.252,5.252,0,0,1,1.509,3.555l.02.723a5.523,5.523,0,0,1-1.357,3.9,5.261,5.261,0,0,1-7.29,0,5.62,5.62,0,0,1-1.362-3.984Zm2.822.2a3.95,3.95,0,0,0,.566,2.3,2.035,2.035,0,0,0,3.223.01,4.322,4.322,0,0,0,.576-2.518,3.91,3.91,0,0,0-.576-2.289,1.873,1.873,0,0,0-1.621-.812,1.842,1.842,0,0,0-1.6.807A4.395,4.395,0,0,0,245.751,13.819Zm11.572-5.386.088,1.182a3.713,3.713,0,0,1,3.037-1.377,2.818,2.818,0,0,1,2.8,1.611,3.628,3.628,0,0,1,3.174-1.611,3.152,3.152,0,0,1,2.559,1,4.6,4.6,0,0,1,.84,3.013V19h-2.832V12.262a2.012,2.012,0,0,0-.352-1.313,1.558,1.558,0,0,0-1.24-.415,1.762,1.762,0,0,0-1.758,1.211l.01,7.256h-2.822V12.271a1.988,1.988,0,0,0-.361-1.328,1.573,1.573,0,0,0-1.23-.41,1.829,1.829,0,0,0-1.738,1V19h-2.822V8.434ZM276.854,19.2a5.187,5.187,0,0,1-3.784-1.426,5.068,5.068,0,0,1-1.46-3.8V13.7a6.383,6.383,0,0,1,.615-2.847,4.515,4.515,0,0,1,1.743-1.934,4.893,4.893,0,0,1,2.573-.679,4.385,4.385,0,0,1,3.413,1.367,5.555,5.555,0,0,1,1.245,3.877v1.152h-6.729a2.622,2.622,0,0,0,.825,1.66,2.5,2.5,0,0,0,1.743.625,3.046,3.046,0,0,0,2.549-1.182l1.387,1.553a4.237,4.237,0,0,1-1.719,1.4A5.639,5.639,0,0,1,276.854,19.2Zm-.322-8.682a1.764,1.764,0,0,0-1.362.569,2.946,2.946,0,0,0-.669,1.628h3.926v-.226a2.1,2.1,0,0,0-.508-1.457A1.819,1.819,0,0,0,276.532,10.514Zm12.207.566A7.668,7.668,0,0,0,287.724,11a2.067,2.067,0,0,0-2.1,1.084V19H282.8V8.434h2.666l.078,1.26A2.615,2.615,0,0,1,287.9,8.238a2.957,2.957,0,0,1,.879.127Zm5.566,5.84a1.851,1.851,0,0,0,1.27-.43,1.506,1.506,0,0,0,.508-1.143h2.646a3.62,3.62,0,0,1-.586,1.968,3.866,3.866,0,0,1-1.577,1.387,4.936,4.936,0,0,1-2.212.493,4.587,4.587,0,0,1-3.574-1.44,5.7,5.7,0,0,1-1.309-3.979V13.59a5.635,5.635,0,0,1,1.3-3.9,4.534,4.534,0,0,1,3.564-1.455,4.444,4.444,0,0,1,3.179,1.128,3.994,3.994,0,0,1,1.216,3h-2.646a1.939,1.939,0,0,0-.508-1.34,1.887,1.887,0,0,0-2.778.2,4.166,4.166,0,0,0-.5,2.333v.293a4.219,4.219,0,0,0,.5,2.347A1.721,1.721,0,0,0,294.306,16.92ZM303.319,19h-2.832V8.434h2.832Zm-3-13.3a1.39,1.39,0,0,1,.425-1.045,1.831,1.831,0,0,1,2.31,0,1.382,1.382,0,0,1,.43,1.045,1.386,1.386,0,0,1-.435,1.055,1.81,1.81,0,0,1-2.295,0A1.386,1.386,0,0,1,300.321,5.7ZM311.767,19a3.134,3.134,0,0,1-.283-.947,3.415,3.415,0,0,1-2.666,1.143,3.752,3.752,0,0,1-2.573-.9,2.89,2.89,0,0,1-1.021-2.266,2.986,2.986,0,0,1,1.245-2.578,6.144,6.144,0,0,1,3.6-.908h1.3v-.605a1.741,1.741,0,0,0-.376-1.172,1.479,1.479,0,0,0-1.187-.439,1.682,1.682,0,0,0-1.118.342,1.161,1.161,0,0,0-.405.938h-2.822a2.835,2.835,0,0,1,.566-1.7,3.744,3.744,0,0,1,1.6-1.226,5.837,5.837,0,0,1,2.324-.444,4.611,4.611,0,0,1,3.1.981,3.433,3.433,0,0,1,1.147,2.759v4.58a5.051,5.051,0,0,0,.42,2.275V19Zm-2.334-1.963a2.431,2.431,0,0,0,1.152-.278,1.828,1.828,0,0,0,.781-.747V14.2h-1.055q-2.119,0-2.256,1.465l-.01.166a1.13,1.13,0,0,0,.371.869A1.441,1.441,0,0,0,309.433,17.037ZM319.345,19h-2.832V4h2.832Z" transform="translate(709.333 451)" fill="#fff"/>
    <path id="Trazado_610977" data-name="Trazado 610977" d="M0,0H93.168" transform="translate(876.926 490.777) rotate(90)" fill="none" stroke="#7be2d8" stroke-width="3"/>
    <path id="Trazado_610980" data-name="Trazado 610980" d="M0,0H120" transform="translate(536.676 701) rotate(90)" fill="none" stroke="#7be2d8" stroke-width="3"/>
    <path id="Trazado_610981" data-name="Trazado 610981" d="M0,0H89V94.9H248.179V65.387" transform="translate(274.926 896) rotate(90)" fill="none" stroke="#7be2d8" stroke-width="3"/>
    <path id="Trazado_610987" data-name="Trazado 610987" d="M0,0H89V197.9l302.939,2V89.639" transform="translate(1219.896 701) rotate(90)" fill="none" stroke="#7be2d8" stroke-width="3"/>
    <path id="Trazado_610985" data-name="Trazado 610985" d="M0,0H89V94.9H299.179V65.387" transform="translate(799.896 896) rotate(90)" fill="none" stroke="#7be2d8" stroke-width="3"/>
    <path id="Trazado_610983" data-name="Trazado 610983" d="M0,0H89V94.9s71.366-.044,94.975-.044" transform="translate(519.676 896) rotate(90)" fill="none" stroke="#7be2d8" stroke-width="3"/>
    <path id="Trazado_610978" data-name="Trazado 610978" d="M0,0V50.824H681.5V3.545" transform="translate(1219.333 634) rotate(180)" fill="none" stroke="#7be2d8" stroke-width="3"/>
    <path id="Trazado_610979" data-name="Trazado 610979" d="M0,0V50.824H525V3.545" transform="translate(800.333 844.223) rotate(180)" fill="none" stroke="#7be2d8" stroke-width="3"/>
    <rect id="Rectángulo_378753" data-name="Rectángulo 378753" width="398" height="75" rx="14" transform="translate(339.333 630)" fill="#7be2d8"/>
    <rect id="Rectángulo_378758" data-name="Rectángulo 378758" width="190" height="75" rx="14" transform="translate(180.333 821)" fill="#99fbf2"/>
    <rect id="Rectángulo_378761" data-name="Rectángulo 378761" width="161" height="58" rx="14" transform="translate(209.333 1016)" fill="#c3fdf7"/>
    <rect id="Rectángulo_378766" data-name="Rectángulo 378766" width="161" height="95" rx="14" transform="translate(734.333 1016)" fill="#c3fdf7"/>
    <rect id="Rectángulo_378762" data-name="Rectángulo 378762" width="161" height="73" rx="14" transform="translate(209.333 1107)" fill="#c3fdf7"/>
    <rect id="Rectángulo_378767" data-name="Rectángulo 378767" width="161" height="73" rx="14" transform="translate(734.333 1158)" fill="#c3fdf7"/>
    <rect id="Rectángulo_378759" data-name="Rectángulo 378759" width="228" height="75" rx="14" transform="translate(424.333 821)" fill="#99fbf2"/>
    <rect id="Rectángulo_378760" data-name="Rectángulo 378760" width="190" height="75" rx="14" transform="translate(705.333 822)" fill="#99fbf2"/>
    <rect id="Rectángulo_378754" data-name="Rectángulo 378754" width="398" height="75" rx="14" transform="translate(1020.333 630)" fill="#cefcba"/>
    <text id="El_servicio_pilar_del_desarrollo_institucional" data-name="El servicio, pilar del desarrollo institucional" transform="translate(383.333 658)" fill="#12263f" font-size="16" font-family="Roboto-Medium, Roboto" font-weight="500"><tspan x="0" y="15">El servicio, pilar del desarrollo institucional</tspan></text>
    <text id="Técnicas_de_venta_y_comunicación." data-name="Técnicas de venta y comunicación." transform="translate(209.333 837)" fill="#12263f" font-size="16" font-family="Roboto-Medium, Roboto" font-weight="500"><tspan x="0" y="15">Técnicas de venta </tspan><tspan x="0" y="39">y comunicación.</tspan></text>
    <text id="Técnicas_de_venta." data-name="Técnicas de venta." transform="translate(224.333 1036)" fill="#12263f" font-size="16" font-family="Roboto-Medium, Roboto" font-weight="500"><tspan x="0" y="15">Técnicas de venta.</tspan></text>
    <text id="Características_de_la_calidad_del_servicio." data-name="Características de la calidad del servicio." transform="translate(756.333 1030)" fill="#12263f" font-size="16" font-family="Roboto-Medium, Roboto" font-weight="500"><tspan x="0" y="15">Características </tspan><tspan x="0" y="39">de la calidad del </tspan><tspan x="0" y="63">servicio.</tspan></text>
    <text id="Técnicas_de_comunicación." data-name="Técnicas de comunicación." transform="translate(238.333 1122)" fill="#12263f" font-size="16" font-family="Roboto-Medium, Roboto" font-weight="500"><tspan x="0" y="15">Técnicas de </tspan><tspan x="0" y="39">comunicación.</tspan></text>
    <text id="Satisfacción_del_cliente." data-name="Satisfacción del cliente." transform="translate(762.333 1173)" fill="#12263f" font-size="16" font-family="Roboto-Medium, Roboto" font-weight="500"><tspan x="0" y="15">Satisfacción </tspan><tspan x="0" y="39">del cliente.</tspan></text>
    <text id="Estrategias_comerciales_de_las_entidades_financieras." data-name="Estrategias comerciales de las entidades financieras." transform="translate(437.333 835)" fill="#12263f" font-size="16" font-family="Roboto-Medium, Roboto" font-weight="500"><tspan x="0" y="15">Estrategias comerciales de </tspan><tspan x="0" y="39">las entidades financieras.</tspan></text>
    <text id="Calidad_del_servicio." data-name="Calidad del servicio." transform="translate(728.333 850)" fill="#12263f" font-size="16" font-family="Roboto-Medium, Roboto" font-weight="500"><tspan x="0" y="15">Calidad del servicio.</tspan></text>
    <text id="La_asesoría_comercial:_producto_de_las_cualidades_del_asesor_comercial" data-name="La asesoría comercial: producto de las cualidades del asesor comercial" transform="translate(1062.333 646)" fill="#12263f" font-size="16" font-family="Roboto-Medium, Roboto" font-weight="500"><tspan x="0" y="15">La asesoría comercial: producto de las </tspan><tspan x="0" y="39">cualidades del asesor comercial</tspan></text>
    <g id="Grupo_1073445" data-name="Grupo 1073445" transform="translate(5 -109)">
      <rect id="Rectángulo_378768" data-name="Rectángulo 378768" width="110" height="27" transform="translate(817.333 631)" fill="#fff"/>
      <text id="fundamentos_para" data-name="fundamentos para" transform="translate(805.333 651)" fill="#12263f" font-size="16" font-family="Roboto-Regular, Roboto"><tspan x="0" y="0">fundamentos para</tspan></text>
    </g>
    <g id="Grupo_1073446" data-name="Grupo 1073446" transform="translate(-335.25 101.223)">
      <rect id="Rectángulo_378768-2" data-name="Rectángulo 378768" width="110" height="27" transform="translate(817.333 631)" fill="#fff"/>
      <text id="con_enfoque_en" data-name="con enfoque en" transform="translate(817.333 651)" fill="#12263f" font-size="16" font-family="Roboto-Regular, Roboto"><tspan x="0" y="0">con enfoque en</tspan></text>
    </g>
    <g id="Grupo_1073447" data-name="Grupo 1073447" transform="translate(-597 296.223)">
      <rect id="Rectángulo_378768-3" data-name="Rectángulo 378768" width="110" height="27" transform="translate(817.333 631)" fill="#fff"/>
      <text id="compuestas_por" data-name="compuestas por" transform="translate(814.333 651)" fill="#12263f" font-size="16" font-family="Roboto-Regular, Roboto"><tspan x="0" y="0">compuestas por</tspan></text>
    </g>
    <g id="Grupo_1073450" data-name="Grupo 1073450" transform="translate(347.971 101.223)">
      <rect id="Rectángulo_378768-4" data-name="Rectángulo 378768" width="110" height="27" transform="translate(817.333 631)" fill="#fff"/>
      <text id="Enfocado_en" data-name="Enfocado en" transform="translate(827.833 651)" fill="#12263f" font-size="16" font-family="Roboto-Regular, Roboto"><tspan x="0" y="0">Enfocado en</tspan></text>
    </g>
    <g id="Grupo_1073449" data-name="Grupo 1073449" transform="translate(-72.029 296.223)">
      <rect id="Rectángulo_378768-5" data-name="Rectángulo 378768" width="110" height="27" transform="translate(817.333 631)" fill="#fff"/>
      <text id="identificado_por" data-name="identificado por" transform="translate(816.333 651)" fill="#12263f" font-size="16" font-family="Roboto-Regular, Roboto"><tspan x="0" y="0">identificado por</tspan></text>
    </g>
    <g id="Grupo_1073448" data-name="Grupo 1073448" transform="translate(-352.25 296.223)">
      <rect id="Rectángulo_378768-6" data-name="Rectángulo 378768" width="110" height="27" transform="translate(817.333 631)" fill="#fff"/>
      <text id="Entendiendo" transform="translate(827.25 651)" fill="#12263f" font-size="16" font-family="Roboto-Regular, Roboto"><tspan x="0" y="0">Entendiendo</tspan></text>
    </g>
    <path id="Trazado_610982" data-name="Trazado 610982" d="M-12576.333-8516.5h29.633" transform="translate(12756.333 9562)" fill="none" stroke="#7be2d8" stroke-width="3"/>
    <path id="Trazado_610984" data-name="Trazado 610984" d="M-12576.333-8516.5h29.633" transform="translate(13001.112 9595)" fill="none" stroke="#7be2d8" stroke-width="3"/>
    <path id="Trazado_610986" data-name="Trazado 610986" d="M-12576.333-8516.5h29.633" transform="translate(13281.333 9580)" fill="none" stroke="#7be2d8" stroke-width="3"/>
    <path id="Trazado_610988" data-name="Trazado 610988" d="M-12576.336-8516.5h109.871" transform="translate(13596.336 9489)" fill="none" stroke="#7be2d8" stroke-width="3"/>
    <path id="Trazado_610989" data-name="Trazado 610989" d="M-12576.336-8516.5h109.871" transform="translate(13596.336 9376)" fill="none" stroke="#7be2d8" stroke-width="3"/>
    <rect id="Rectángulo_378764" data-name="Rectángulo 378764" width="203" height="125" rx="14" transform="translate(449.333 1016)" fill="#c3fdf7"/>
    <text id="Las_diferentes_estrategias_comerciales_que_implementan_las_entidades_financieras." data-name="Las diferentes estrategias comerciales que implementan las entidades financieras." transform="translate(461.333 1032)" fill="#12263f" font-size="16" font-family="Roboto-Medium, Roboto" font-weight="500"><tspan x="0" y="15">Las diferentes </tspan><tspan x="0" y="39">estrategias comerciales </tspan><tspan x="0" y="63">que implementan las </tspan><tspan x="0" y="87">entidades financieras.</tspan></text>
    <rect id="Rectángulo_378755" data-name="Rectángulo 378755" width="293" height="75" rx="14" transform="translate(1127.333 822)" fill="#e7ffdd"/>
    <rect id="Rectángulo_378756" data-name="Rectángulo 378756" width="293" height="75" rx="14" transform="translate(1127.333 935)" fill="#e7ffdd"/>
    <rect id="Rectángulo_378757" data-name="Rectángulo 378757" width="293" height="75" rx="14" transform="translate(1127.333 1054)" fill="#e7ffdd"/>
    <text id="El_asesor_comercial_ideal_de_una_entidad_financiera." data-name="El asesor comercial, ideal de una entidad financiera." transform="translate(1169.333 838)" fill="#12263f" font-size="16" font-family="Roboto-Medium, Roboto" font-weight="500"><tspan x="0" y="15">El asesor comercial, ideal de </tspan><tspan x="0" y="39">una entidad financiera.</tspan></text>
    <text id="Política_comercial_y_de_crédito." data-name="Política comercial y de crédito." transform="translate(1165.333 963)" fill="#12263f" font-size="16" font-family="Roboto-Medium, Roboto" font-weight="500"><tspan x="0" y="15">Política comercial y de crédito.</tspan></text>
    <text id="Normatividad." transform="translate(1222.333 1082)" fill="#12263f" font-size="16" font-family="Roboto-Medium, Roboto" font-weight="500"><tspan x="0" y="15">Normatividad.</tspan></text>
  </g>
</svg>
