<svg xmlns="http://www.w3.org/2000/svg" xmlns:xlink="http://www.w3.org/1999/xlink" width="117.911" height="122.148" viewBox="0 0 117.911 122.148">
  <defs>
    <clipPath id="clip-path">
      <rect id="Rectángulo_378552" data-name="Rectángulo 378552" width="69.567" height="71.391" fill="#fff"/>
    </clipPath>
  </defs>
  <g id="Grupo_1072714" data-name="Grupo 1072714" transform="translate(-1249.333 -367)">
    <path id="Trazado_610197" data-name="Trazado 610197" d="M205.523,97.165a53.326,53.326,0,1,0,53.326,53.326,53.327,53.327,0,0,0-53.326-53.326" transform="translate(1108.394 285.33)" fill="#12263f" opacity="0.15"/>
    <path id="Trazado_610199" data-name="Trazado 610199" d="M205.523,97.165a53.326,53.326,0,1,0,53.326,53.326,53.327,53.327,0,0,0-53.326-53.326" transform="translate(1097.136 269.835)" fill="#2b5a56"/>
    <g id="Grupo_1073213" data-name="Grupo 1073213" transform="translate(1267.876 384.631)">
      <g id="Grupo_1073212" data-name="Grupo 1073212" clip-path="url(#clip-path)">
        <path id="Trazado_610774" data-name="Trazado 610774" d="M11.013,148.185c-.944,1.843-1.58,2.2-3.383,1.887-1.943-.341-3.88-.728-5.809-1.144A2.345,2.345,0,0,1,.068,145.91c.593-3.11,1.211-6.215,1.831-9.319.941-4.71,1.905-9.416,2.834-14.129.371-1.882,1.368-2.62,3.251-2.265,1.866.352,3.724.745,5.589,1.105a2.159,2.159,0,0,1,1.72,1.108,1.321,1.321,0,0,0,1.469.818q5.823-.045,11.648,0a2.224,2.224,0,0,0,1.71-.632c.424-.417.905-.776,1.364-1.158a6.348,6.348,0,0,1,8.58-.155,17.87,17.87,0,0,0,6.65,3.559,12.739,12.739,0,0,0,6.623-.246c.469-.132.519-.368.539-.8a2.323,2.323,0,0,1,2.1-2.481c1.9-.4,3.794-.78,5.7-1.136a2.415,2.415,0,0,1,3.15,2.146q2.3,11.616,4.622,23.228c.412,2.065-.167,3.009-2.221,3.455-1.783.387-3.571.757-5.367,1.071s-2.562-.173-3.335-2.239c-.836.941-1.566,1.781-2.32,2.6a.912.912,0,0,0-.193.812c.285,3.143-1.226,5.095-4.3,5.519-.5.069-.563.263-.631.687-.613,3.83-3.972,5.445-7.307,3.5-.471-.275-.554-.184-.782.242-1.8,3.37-5.2,3.875-7.926,1.2-.08-.078-.16-.157-.241-.234-.433-.409-.838-1.1-1.307-1.148-.511-.052-.517.847-.836,1.287a4.7,4.7,0,0,1-7.227.5q-6.639-6.579-13.221-13.216c-.42-.421-.78-.9-1.21-1.405m15.554-22.657c-.4-.039-.529-.063-.662-.063-3.247,0-6.494.01-9.741-.014-.6,0-.816.185-.935.791-1.211,6.174-2.46,12.34-3.7,18.508a1.384,1.384,0,0,0,.4,1.4q7.542,7.493,15.046,15.023a2.413,2.413,0,0,0,1.433.8,2.406,2.406,0,0,0,2.115-4.089c-1.318-1.372-2.7-2.686-4.019-4.054-.736-.761-.556-1.719.32-1.946a1.463,1.463,0,0,1,1.474.569q4.22,4.25,8.468,8.471a2.434,2.434,0,0,0,3.581.246,2.481,2.481,0,0,0-.175-3.667c-1.2-1.227-2.425-2.431-3.638-3.646-1.477-1.479-2.973-2.94-4.424-4.443-.735-.761-.551-1.7.322-1.969.639-.2,1.057.175,1.465.585q2.844,2.855,5.7,5.7c1.715,1.715,3.412,3.449,5.156,5.134a2.421,2.421,0,0,0,3.344.021,2.39,2.39,0,0,0,.07-3.417c-.2-.224-.419-.425-.63-.636q-4.828-4.826-9.656-9.653c-.542-.541-.965-1.135-.3-1.832.705-.743,1.331-.343,1.91.246.785.8,1.583,1.584,2.374,2.376,2.586,2.586,5.16,5.185,7.763,7.754a2.393,2.393,0,0,0,3.576.057,2.246,2.246,0,0,0-.238-3.343q-7.073-7.176-14.148-14.348a12.847,12.847,0,0,0-4.183-2.933c-.722-.3-1.289-.431-1.263.686a15.8,15.8,0,0,1-.172,1.666c-.429,5.092-2.52,7.933-6.774,9.2-1.428.424-1.867.154-2.191-1.327-.732-3.346-1.42-6.7-2.221-10.031a5,5,0,0,1,1.927-5.63c.843-.644,1.635-1.356,2.637-2.193M23.979,131.7q1.115,5.069,2.231,10.138c.134.609.507.373.849.224a5.92,5.92,0,0,0,3.449-4.138,33.292,33.292,0,0,0,.648-4.532c.305-2.378,1.444-3.2,3.741-2.5a13.193,13.193,0,0,1,5.465,3.577q6.779,6.833,13.5,13.724c.617.635.927.574,1.458-.024.742-.835,1.557-1.608,2.368-2.379a1.069,1.069,0,0,0,.353-1.093c-1.128-5.621-2.26-11.241-3.35-16.869-.182-.941-.5-1.17-1.47-.9a13.846,13.846,0,0,1-8.884-.468,21.459,21.459,0,0,1-5.541-3.319c-1.926-1.523-3.9-1.585-5.621-.175-2.738,2.249-5.446,4.535-8.165,6.809a2.442,2.442,0,0,0-1.031,1.928m-10.6-7.633c.176-.443-.181-.548-.645-.636-1.571-.3-3.146-.584-4.7-.958-.749-.18-1.025-.013-1.176.755q-2.224,11.335-4.519,22.655c-.125.617.048.9.639,1.013,1.609.3,3.219.6,4.821.937.661.138.893-.064,1.021-.741.761-4.02,1.578-8.03,2.376-12.044.718-3.612,1.435-7.224,2.182-10.982m42.86.115c.017.151.022.3.051.447q2.247,11.33,4.487,22.661c.127.648.486.633.967.539,1.534-.3,3.065-.615,4.6-.882.771-.134,1.025-.408.841-1.262-.708-3.271-1.316-6.564-1.972-9.847-.845-4.232-1.71-8.46-2.537-12.7-.126-.645-.309-.863-1.015-.692-1.589.384-3.2.67-4.809.979-.44.085-.849.146-.618.753" transform="translate(0 -92.876)" fill="#fff"/>
        <path id="Trazado_610775" data-name="Trazado 610775" d="M50.036,11.695a12.508,12.508,0,0,1,3.909,2.745c.31.341.561.187.875,0,.735-.436,1.492-.833,2.316-1.287a7.5,7.5,0,0,1-2.757-6.607,7.176,7.176,0,0,1,2.556-4.815A7.307,7.307,0,0,1,66.87,2.2c3.013,3.075,2.78,7.125-.659,10.965.8.451,1.6.884,2.376,1.351a.535.535,0,0,0,.782-.083,12.6,12.6,0,0,1,3.912-2.742c-2.976-3.51-3.055-7.261-.254-9.9a6.591,6.591,0,0,1,9.106.1c2.681,2.635,2.575,6.456-.286,9.71.164.438.634.448.964.635a11.278,11.278,0,0,1,5.877,8.751,1.821,1.821,0,0,1-2,2.213c-3.806.017-7.613.023-11.419-.007-.76-.006-1.135.085-1.1,1.007.045,1.256-.789,1.915-2.218,1.917q-9.628.012-19.256,0c-.56,0-1.121.02-1.679-.012a1.785,1.785,0,0,1-1.871-1.922c.05-.949-.377-1-1.113-.992-3.694.026-7.389.016-11.084.01-1.864,0-2.555-.838-2.251-2.672a11.19,11.19,0,0,1,6.214-8.5c.163-.085.323-.175.482-.268.029-.017.043-.06.064-.091-2.927-3.9-2.936-7.471-.024-10.013a6.567,6.567,0,0,1,8.938.225c2.7,2.646,2.6,6.256-.33,9.825M61.617,23.86c3.1,0,6.195-.024,9.291.015.839.011,1.09-.133.875-1.054a10.363,10.363,0,0,0-20.272.042c-.19.838,0,1.021.814,1.011,3.1-.036,6.194-.015,9.291-.014M43.35,20.945c1.863,0,3.727-.019,5.59.012a.936.936,0,0,0,1.063-.7,10.319,10.319,0,0,1,2.087-3.408c.445-.479.368-.78-.073-1.177a8.669,8.669,0,0,0-8.783-2.139,8.828,8.828,0,0,0-6.173,6.491c-.217.783.082.951.81.935,1.825-.039,3.652-.013,5.478-.013m36.559,0c1.863,0,3.727-.026,5.59.013.706.015.947-.173.753-.89a8.812,8.812,0,0,0-6.138-6.523,8.66,8.66,0,0,0-8.873,2.173c-.407.372-.459.653-.054,1.094a10.656,10.656,0,0,1,2.139,3.506.871.871,0,0,0,.993.638c1.863-.025,3.727-.01,5.59-.01M61.651,2.278a5.031,5.031,0,0,0-5.076,5.008,5.077,5.077,0,1,0,10.154,0,5.034,5.034,0,0,0-5.077-5.008m-15.853,0a4.238,4.238,0,0,0-4.325,4.292,4.308,4.308,0,0,0,8.616.04A4.245,4.245,0,0,0,45.8,2.279m31.723,0a4.29,4.29,0,1,0,4.309,4.31,4.247,4.247,0,0,0-4.309-4.31" transform="translate(-26.866 0)" fill="#fff"/>
      </g>
    </g>
  </g>
</svg>
