<svg xmlns="http://www.w3.org/2000/svg" xmlns:xlink="http://www.w3.org/1999/xlink" width="107" height="107" viewBox="0 0 107 107">
  <defs>
    <clipPath id="clip-path">
      <rect id="Rectángulo_378779" data-name="Rectángulo 378779" width="65.475" height="65.754" fill="#fff"/>
    </clipPath>
  </defs>
  <g id="Grupo_156312" data-name="Grupo 156312" transform="translate(-288.668 -4448)">
    <circle id="Elipse_5845" data-name="Elipse 5845" cx="53.5" cy="53.5" r="53.5" transform="translate(288.668 4448)" fill="#376460"/>
    <g id="Grupo_1073463" data-name="Grupo 1073463" transform="translate(308.192 4468.623)">
      <g id="Grupo_1073462" data-name="Grupo 1073462" clip-path="url(#clip-path)">
        <path id="Trazado_610998" data-name="Trazado 610998" d="M63.17,18.265c0,3.961.014,7.923-.013,11.884,0,.707.052,1.143.942,1.053,1.009-.1,1.393.457,1.375,1.452a26.108,26.108,0,0,1-3.593,12.9,1.3,1.3,0,0,0-.03,1.684,3.567,3.567,0,0,1-.454,4.2,9.552,9.552,0,0,1-3.387,2.586C51.1,57.446,44.159,60.812,37.281,64.3a8.051,8.051,0,0,1-5.8.344c-4.248-.98-8.5-1.925-12.757-2.879a7.761,7.761,0,0,0-2.131-.188c-1.431.077-2.865.109-4.3.157a5.214,5.214,0,0,0-1.9.1c-.544.254-.248,1.084-.474,1.629a3.216,3.216,0,0,1-2.773,2.181,20.407,20.407,0,0,1-4.18,0A3.226,3.226,0,0,1,.013,62.362q-.026-7.979,0-15.959A3.206,3.206,0,0,1,3.067,43.11c1.239-.089,2.488-.055,3.732-.033a3.112,3.112,0,0,1,2.968,1.891c.237.514.386.583.855.209a33.533,33.533,0,0,1,2.85-2.031.757.757,0,0,0,.324-1.112A25.635,25.635,0,0,1,11.915,32.8c-.024-.99.215-1.655,1.341-1.608.878.036.593-.613.594-1.024.015-6.15.007-12.3.012-18.449,0-2.844-.266-2.369,2.419-3.364,2.608-.966,5.224-1.912,7.839-2.857,1.457-.526,1.927-.189,1.936,1.361.009,1.6.009,1.6,1.644,1.6,1.056,0,2.114-.028,3.169.009.652.022.837-.24.828-.865-.03-2.037.028-4.075-.026-6.111C31.643.4,32.129,0,33.154,0Q38.417.022,43.68,0c1.038-.006,1.532.418,1.508,1.482-.03,1.32.028,2.642-.018,3.961-.026.749.251.99.983.964,1.319-.046,2.641-.036,3.961,0,.628.015.873-.192.847-.845-.044-1.13-.019-2.263-.01-3.4.011-1.41.544-1.8,1.814-1.29,3.138,1.267,6.263,2.566,9.4,3.83a1.544,1.544,0,0,1,1.016,1.679c-.027,3.961-.012,7.923-.012,11.884M10.137,53.912c0,1.546.075,3.1-.026,4.637-.069,1.059.322,1.243,1.277,1.207a33.4,33.4,0,0,1,6.871-.006c5.029.874,10,2.1,14.982,3.218a3.934,3.934,0,0,0,2.732-.284Q46.741,57.351,57.51,52.023a6.178,6.178,0,0,0,2.373-1.873c.869-1.212.5-2.248-.916-2.688a5.738,5.738,0,0,0-3.742.424Q46.848,50.9,38.484,53.96a2.438,2.438,0,0,1-1.744.091q-6-2.129-12.015-4.218c-.7-.243-1.187-.632-.927-1.4s.865-.747,1.569-.5c3.681,1.308,7.392,2.535,11.055,3.89a1.791,1.791,0,0,0,2.3-.767A1.668,1.668,0,0,0,38.6,48.8a7.707,7.707,0,0,0-3.213-2.231c-3.358-1.421-6.727-2.815-10.084-4.237a6.619,6.619,0,0,0-3.981-.389c-4.194.848-7.6,3.145-10.765,5.886a1.4,1.4,0,0,0-.422,1.219c.006,1.622,0,3.243,0,4.865M52.982,3.13c0,3.621,0,7.084-.006,10.548,0,.4.235.579.513.8A4.984,4.984,0,0,1,54.7,21.4c-.374.569-.337.731.276,1.031a6.294,6.294,0,0,1,3.611,4.759,13.708,13.708,0,0,1,.091,3.157c-.064,1.029.6.864,1.169.825.539-.037,1.31.378,1.3-.787-.033-7.729-.017-15.458-.018-23.187,0-.335.064-.718-.333-.881-2.563-1.053-5.13-2.093-7.82-3.189m-6.534,30.1c-2,0-3.99.023-5.985-.013-.647-.012-.835.2-.825.834.033,2.183.05,4.367-.006,6.549-.022.835.307,1,1.05,1A40.93,40.93,0,0,1,50.7,42.97c.789.2,1.036-.011,1.242-.733a42.1,42.1,0,0,0,1.235-8.114c.057-.677-.141-.926-.858-.909-1.957.045-3.915.015-5.872.015M8.147,54.4c0-2.523.014-5.045-.006-7.568-.011-1.278-.525-1.775-1.782-1.8-.9-.015-1.808-.02-2.711,0-1.123.027-1.61.473-1.614,1.568-.016,5.2,0,10.392-.009,15.587A1.359,1.359,0,0,0,3.478,63.7c.9.047,1.807.026,2.71.014,1.483-.02,1.95-.486,1.956-1.974.01-2.447,0-4.895,0-7.342m15.9-46.733c-2.672.964-5.208,1.882-7.746,2.793-.4.144-.434.447-.433.808q.008,9.613.008,19.226c0,.242-.1.624.257.649a6.285,6.285,0,0,0,2.241-.035c.563-.176.252-.94.245-1.427-.028-2.126.263-4.132,1.789-5.773a8.591,8.591,0,0,1,2.673-1.838c-1.921-2.981-1.752-4.8.675-7.5a.827.827,0,0,0,.293-.576c0-2.064,0-4.128,0-6.332M31,33.229c-1.882,0-3.766.063-5.644-.026-1-.047-1.24.306-1.122,1.208a26.932,26.932,0,0,1,.3,3.253,3,3,0,0,0,2.61,3.285,6.667,6.667,0,0,1,1.761.734,3.478,3.478,0,0,0,2.292.34,30.211,30.211,0,0,1,5.614-.437c.729.025.874-.318.866-.959-.027-2.182-.038-4.366,0-6.548.014-.73-.266-.875-.925-.863-1.919.037-3.839.013-5.758.013m7.779-2.044c1.846,0,3.693-.011,5.539.007.493,0,.77-.081.752-.671-.038-1.28.041-2.565-.031-3.842a4.483,4.483,0,0,0-4.335-4.362,33.682,33.682,0,0,0-3.84.011,4.364,4.364,0,0,0-4.072,3.461c-.36,1.487-.06,3-.185,4.5-.067.8.283.924.972.908,1.732-.04,3.466-.013,5.2-.014m20.537,2.044c-1.056,0-2.114.041-3.167-.014-.745-.038-1.083.147-1.081.973a30.563,30.563,0,0,1-1.324,8.9c-.1.333-.2.628.3.792,1.427.47,2.824,1.039,4.264,1.461.468.137,1.129.422,1.532-.24A24.1,24.1,0,0,0,63.411,33.93c.034-.548-.161-.724-.7-.71-1.131.031-2.263.01-3.394.009M43.2,14.133c0-3.895-.017-7.588.014-11.281.006-.749-.324-.857-.955-.851-2.526.025-5.053.04-7.579-.007-.805-.015-1.017.255-1.011,1.029.032,4.035.013,8.07.022,12.1,0,.194-.109.446.154.59,1.341-3.63,5.6-5.381,9.356-1.585M25.716,31.186c1.356,0,2.713-.033,4.067.014.66.023.807-.218.819-.839.031-1.612-.27-3.257.215-4.83.31-1-.15-1.356-.971-1.572a16.381,16.381,0,0,0-4.5-.208A4.636,4.636,0,0,0,20.657,28.5c-.014.64.03,1.283-.012,1.92-.039.6.194.784.778.771,1.431-.032,2.862-.011,4.294-.01m26.181,0h2.15c2.8,0,2.775,0,2.647-2.847a4.259,4.259,0,0,0-2.563-4.064,11.107,11.107,0,0,0-6.872-.188c-.311.07-.7.218-.55.691.6,1.84.365,3.738.374,5.614,0,.669.239.824.854.806,1.319-.039,2.64-.012,3.961-.012M18.151,33.229c-1.128,0-2.259.042-3.385-.015-.739-.037-.866.226-.806.913a27.318,27.318,0,0,0,1.465,6.681c.249.715.5.948,1.276.558a15,15,0,0,1,5.6-1.572c.406-.032.617-.081.518-.587a33.44,33.44,0,0,1-.573-5.256c-.022-.628-.273-.746-.819-.731-1.09.031-2.181.009-3.272.009m22.91,17.656c2.3-.836,4.41-1.746,6.6-2.353a4.511,4.511,0,0,0,2.94-2.813c.252-.524.137-.717-.379-.841A48.839,48.839,0,0,0,40.3,43.534c-.252-.008-.64-.067-.611.3.1,1.233-.472,2.551.452,3.687a4.243,4.243,0,0,1,.921,3.365M45.18,15.339c0,2.113,0,4.225,0,6.337,0,.329-.065.756.355.857a1.136,1.136,0,0,0,1.007-.4c.325-.324-.127-.515-.263-.734a5.152,5.152,0,0,1,2.648-7.687c.66-.217,1.63.15,1.931-.51a5.9,5.9,0,0,0,.086-2.235c0-.566-.036-1.134.01-1.7.055-.675-.168-.943-.88-.917-1.319.048-2.642.055-3.96,0-.772-.033-.963.271-.95.984.035,2,.012,4,.013,6m-6.3,4.773a2.964,2.964,0,0,0,3.012-3.081,3.05,3.05,0,1,0-6.1.082,2.952,2.952,0,0,0,3.088,3m-8.97-1.567a2.935,2.935,0,0,0-3.108-3,2.969,2.969,0,0,0-3.012,3,3.109,3.109,0,0,0,3.073,3.105,3.025,3.025,0,0,0,3.047-3.1m23.678-.014a3.013,3.013,0,0,0-3.151-2.985,2.978,2.978,0,0,0-3,3.02,3.067,3.067,0,0,0,3.084,3.085,3.1,3.1,0,0,0,3.062-3.12m-21.9-1.867c0-2.08-.007-3.774,0-5.469,0-.467-.053-.8-.654-.795-1.469.023-2.939.012-4.408.008-.359,0-.572.12-.568.518.008.716.005,1.432,0,2.147,0,.344.174.456.5.441,2.256-.1,3.85.975,5.129,3.151m6,28.74c-.283-.731.624-1.705-.646-1.856a16.848,16.848,0,0,0-2.825.118q-.011.094-.022.189L37.686,45.4M33.775,18.261V21.1c.311-.415,1.5.07,1.024-.9-.3-.61-.623-1.235-1.024-1.94m-2.264,2.527-.854,1.231c.275.259.705.551.887.338.339-.4.092-.981-.033-1.569" transform="translate(0 0)" fill="#fff"/>
        <path id="Trazado_610999" data-name="Trazado 610999" d="M243.192,52.509c1.031.293,2.3.617,3.545,1.028a.829.829,0,0,1,.511,1.106.863.863,0,0,1-1.015.7c-1.277-.293-2.547-.632-3.8-1.02a.851.851,0,0,1-.511-1.12c.131-.5.512-.715,1.268-.7" transform="translate(-187.12 -40.62)" fill="#fff"/>
        <path id="Trazado_611000" data-name="Trazado 611000" d="M250.313,75.136c-.7-.209-1.35-.392-1.992-.6a.885.885,0,0,1-.643-1.139.866.866,0,0,1,1.082-.736,13.219,13.219,0,0,1,2.054.555.889.889,0,0,1,.567,1.19.98.98,0,0,1-1.069.727" transform="translate(-191.58 -56.197)" fill="#fff"/>
        <path id="Trazado_611001" data-name="Trazado 611001" d="M76.915,55.316c-.666,0-1.05-.167-1.188-.7a.845.845,0,0,1,.479-1.126c1.248-.393,2.519-.724,3.794-1.017a.817.817,0,0,1,1.018.67.872.872,0,0,1-.58,1.173c-1.218.374-2.451.7-3.523,1" transform="translate(-58.546 -40.575)" fill="#fff"/>
        <path id="Trazado_611002" data-name="Trazado 611002" d="M79.491,72.653c.769-.072,1.156.155,1.3.638a.878.878,0,0,1-.557,1.189,18.151,18.151,0,0,1-2.154.628.924.924,0,0,1-1.107-.731.849.849,0,0,1,.507-1.119c.734-.271,1.5-.454,2.015-.6" transform="translate(-59.504 -56.195)" fill="#fff"/>
        <path id="Trazado_611003" data-name="Trazado 611003" d="M158.939,19.787c-.675,0-1.35.007-2.024,0s-1.095-.338-1.1-1.011.463-1.005,1.1-1.014c1.387-.021,2.775-.03,4.161.005a1.01,1.01,0,1,1-.007,2.019c-.712.014-1.425,0-2.137,0" transform="translate(-120.541 -13.725)" fill="#fff"/>
        <path id="Trazado_611004" data-name="Trazado 611004" d="M158.944,37.676c.712,0,1.424-.006,2.136,0a.952.952,0,0,1,1.044.946.939.939,0,0,1-.952,1.046c-1.459.055-2.922.052-4.381.007a.929.929,0,0,1-.981-1.011.969.969,0,0,1,1.111-.991h2.023" transform="translate(-120.534 -29.144)" fill="#fff"/>
      </g>
    </g>
  </g>
</svg>
