<svg xmlns="http://www.w3.org/2000/svg" xmlns:xlink="http://www.w3.org/1999/xlink" width="107" height="107" viewBox="0 0 107 107">
  <defs>
    <clipPath id="clip-path">
      <rect id="Rectángulo_378777" data-name="Rectángulo 378777" width="65.92" height="65.886" fill="#fff"/>
    </clipPath>
  </defs>
  <g id="Grupo_156312" data-name="Grupo 156312" transform="translate(-288.668 -4448)">
    <path id="Elipse_5845" data-name="Elipse 5845" d="M53.5,0A53.5,53.5,0,1,1,0,53.5,53.5,53.5,0,0,1,53.5,0Z" transform="translate(288.668 4448)" fill="#376460"/>
    <g id="Grupo_1073459" data-name="Grupo 1073459" transform="translate(307.747 4468.557)">
      <g id="Grupo_1073459-2" data-name="Grupo 1073459" clip-path="url(#clip-path)">
        <path id="Trazado_610991" data-name="Trazado 610991" d="M44.733,45.195c1.335-6.239,5.8-9.726,11.547-9.321A10.653,10.653,0,0,1,65.65,44,10.767,10.767,0,0,1,61,55.335c-.609.375-1.19.508-1.6-.157-.378-.608-.047-1.1.507-1.463a8.67,8.67,0,1,0-4.522,1.313c.034,0,.069,0,.1,0,.706-.025,1.358.058,1.356.978s-.707.968-1.379.978a9.989,9.989,0,0,1-6.084-1.842c-.616-.439-.948-.462-1.491.1-1.664,1.734-2.278,1.741-4.249.242a.947.947,0,0,0-.55-.236c-2.57-.111-5.074-.21-7.449,1.254-2.763,1.7-5.678,3.164-8.574,4.639-.857.437-.883.78-.387,1.494.545.785.967,1.655,1.475,2.467a1.171,1.171,0,0,1-.188,1.652c-.66.645-1.8,1.33-1.795,1.989.008.833.961,1.658,1.511,2.484.266.4.55.786.811,1.188.288.445.578.821,1.216.736a1.269,1.269,0,0,1,.992.472c.616.6,1.237,1.188,1.816,1.819A1.686,1.686,0,0,1,32.506,78q-2.289,2.365-4.652,4.657a1.7,1.7,0,0,1-2.561.027c-.6-.558-1.165-1.162-1.748-1.741-.276-.274-.57-.611-.5-.976.258-1.422-.8-2.22-1.438-3.217-.367-.577-.792-1.117-1.184-1.679a.9.9,0,0,1,.153-1.362A.924.924,0,0,1,22,73.969c.654.88,1.326,1.752,1.9,2.681.445.716.78.68,1.276.076.689-.84,2.065-1.438,2.08-2.4.013-.874-1.031-1.771-1.627-2.645-1.448-2.122-2.934-4.219-4.343-6.366-.43-.655-.8-.7-1.389-.285a26.6,26.6,0,0,0-2.309,2.187c-.318.29-.044.48.1.686.492.7.993,1.4,1.489,2.093.381.536.507,1.105-.081,1.541s-1.085.19-1.476-.373c-.43-.619-.9-1.211-1.313-1.84-.268-.407-.5-.394-.783-.05a2.55,2.55,0,0,1-2.535,1.014c-.326-.058-.49.178-.681.373-.337.342-.67.688-1.024,1.011a2.2,2.2,0,0,1-3.223.023Q4.341,68.064.708,64.348a2.182,2.182,0,0,1,0-3.22c.732-.79,1.688-1.425,1.419-2.746-.044-.217.183-.5.312-.738a1.3,1.3,0,0,1,.321-.4c4.316-3.4,6.525-8.268,9.01-12.944,1.429-2.689,2.786-5.423,4.344-8.036,1.35-2.266,1.2-4.642,1-7.075-.029-.357-.315-.512-.513-.737a2.329,2.329,0,0,1,.089-3.55c.741-.762,1.489-1.518,2.258-2.25a2.255,2.255,0,0,1,3.45.026c.668.64,1.315,1.3,1.965,1.961.474.48.617,1.014.087,1.526-.5.485-1,.3-1.444-.138-.61-.6-1.228-1.2-1.813-1.822-.347-.37-.626-.446-1.009-.042-.683.722-1.385,1.428-2.11,2.107-.381.357-.315.624.035.92.1.088.195.193.292.29Q31.645,40.725,44.892,53.962c.251.251.509.783.875.567a5.72,5.72,0,0,0,1.323-1.27c.148-.172-.132-.352-.248-.507a10.056,10.056,0,0,1-1.856-4.075,2.888,2.888,0,0,0-.881-1.555q-8.56-8.531-17.1-17.084a7.386,7.386,0,0,1-.765-.829.881.881,0,0,1,.156-1.282.848.848,0,0,1,1.215,0,19.157,19.157,0,0,1,1.752,1.735.955.955,0,0,0,1.485.235,4.628,4.628,0,0,1,.728-.378,3.448,3.448,0,0,1,4.164.634q3.271,3.2,6.476,6.469a3.414,3.414,0,0,1,.457,4.514,1.461,1.461,0,0,0,.375,2.227,18.068,18.068,0,0,1,1.681,1.837M19.182,31.314a9.4,9.4,0,0,1-.754,4.637c-.747,1.462-1.531,2.905-2.308,4.352-2.169,4.041-4.331,8.085-6.528,12.111a.983.983,0,0,0,.2,1.4c2.81,2.767,5.624,5.531,8.355,8.375a1.582,1.582,0,0,0,2.308.362c4.97-2.75,9.994-5.4,14.991-8.106a9.4,9.4,0,0,1,4.907-1.265c.244.009.544.14.665-.026L19.182,31.314m-11.2,23.5c-.131.113-.238.195-.333.289C6.538,56.219,5.436,57.349,4.3,58.442c-.45.433-.206.691.11,1.006q4.262,4.252,8.508,8.519c.441.446.741.459,1.175.005.994-1.041,2.011-2.063,3.054-3.054.428-.407.4-.653-.013-1.058-2.877-2.844-5.729-5.714-8.592-8.572-.166-.166-.358-.306-.554-.471M33.2,31.025c-.56.108-1.209.245-1.463.678s.405.686.692.976q3.616,3.657,7.271,7.274c.293.29.638.955.964.7a1.854,1.854,0,0,0,.668-1.744,1.944,1.944,0,0,0-.6-1.054q-3.093-3.091-6.182-6.187a2.178,2.178,0,0,0-1.346-.649m-22.006,38c-.217-.238-.367-.418-.532-.583-2.246-2.247-4.519-4.467-6.723-6.754-.572-.594-.839-.289-1.16.134s-1.232.672-.371,1.5c2.236,2.159,4.4,4.388,6.609,6.579.218.217.429.677.82.389a15.084,15.084,0,0,0,1.357-1.268M30.97,76.758c-.171-.435-.6-.645-.853-1-.429-.589-.77-.544-1.257-.009-.895.982-1.868,1.893-2.808,2.834-1.13,1.13-1.11,1.108.061,2.211.379.357.579.3.9-.029,1.193-1.217,2.409-2.412,3.615-3.618.12-.12.223-.256.34-.393M24.245,62.69a6.245,6.245,0,0,0-1.524.891c-.348.356.223.694.417,1.009.429.7.912,1.359,1.386,2.027.125.177.252.5.542.252a7.175,7.175,0,0,0,1.008-1.013c.2-.25-1.443-3.133-1.829-3.166" transform="translate(0 -17.365)" fill="#fff"/>
        <path id="Trazado_610992" data-name="Trazado 610992" d="M211.886,0q5.447,0,10.9,0c1.251,0,1.5.25,1.505,1.489q.006,5.7,0,11.409c0,1.253-.253,1.51-1.485,1.511-4.283,0-8.566.022-12.848-.016a3.051,3.051,0,0,0-2.055.7c-1.153.914-2.359,1.76-3.53,2.651a1.252,1.252,0,0,1-1.416.278c-.513-.264-.5-.771-.484-1.259,0-.069,0-.137,0-.206-.011-.65.2-1.435-.091-1.916-.342-.566-1.194-.164-1.82-.219-.985-.088-1.114-.738-1.114-1.522q0-4.677,0-9.353c0-.72-.015-1.44,0-2.158C199.479.3,199.783.005,200.888,0q5.5-.009,11,0m-7.332,15.156c.8-.592,1.584-1.089,2.269-1.7a3.974,3.974,0,0,1,2.905-.973c3.908.059,7.817.015,11.726.03.593,0,.954-.054.945-.811-.037-3.017-.027-6.035-.006-9.052,0-.593-.22-.761-.785-.76q-9.721.021-19.441,0c-.509,0-.736.126-.732.688q.032,4.629,0,9.258c0,.474.143.644.639.679,2.192.153,2.19.17,2.334,2.3a1.776,1.776,0,0,0,.143.338" transform="translate(-158.39 0)" fill="#fff"/>
        <path id="Trazado_610993" data-name="Trazado 610993" d="M249.074,119.254c0-1.473-.015-2.946.005-4.419.013-.975.644-1.42,1.491-.959q4.1,2.229,8.132,4.574a.965.965,0,0,1-.042,1.793q-4,2.3-8.046,4.521c-.9.491-1.525.057-1.537-.988-.016-1.507,0-3.014,0-4.522m7.253.076-5.338-3v6l5.338-3" transform="translate(-197.804 -90.292)" fill="#fff"/>
        <path id="Trazado_610994" data-name="Trazado 610994" d="M228.216,20.09h6.468c.239,0,.48-.009.718.007.631.042,1.069.359,1.063,1.01a.928.928,0,0,1-1.021.932c-1.026.029-2.053.02-3.079.02q-5.184,0-10.369,0c-.274,0-.548.006-.821-.006-.649-.029-1.171-.244-1.145-1.008s.559-.952,1.2-.953q3.491-.005,6.981,0" transform="translate(-174.742 -15.953)" fill="#fff"/>
        <path id="Trazado_610995" data-name="Trazado 610995" d="M225.7,40.365c1.441,0,2.881-.007,4.322,0,.627,0,1.2.143,1.221.928.017.822-.547,1.032-1.235,1.033q-4.374.008-8.747,0c-.642,0-1.193-.185-1.222-.942-.032-.834.552-1.018,1.235-1.021,1.475-.006,2.95,0,4.425,0" transform="translate(-174.746 -32.055)" fill="#fff"/>
      </g>
    </g>
  </g>
</svg>
