<svg xmlns="http://www.w3.org/2000/svg" xmlns:xlink="http://www.w3.org/1999/xlink" width="295" height="572.453" viewBox="0 0 295 572.453">
  <defs>
    <clipPath id="clip-path">
      <rect id="Rectángulo_378593" data-name="Rectángulo 378593" width="91.196" height="73.343" fill="#fff"/>
    </clipPath>
    <clipPath id="clip-path-2">
      <rect id="Rectángulo_378594" data-name="Rectángulo 378594" width="76.774" height="76.658" fill="#fff"/>
    </clipPath>
    <clipPath id="clip-path-3">
      <rect id="Rectángulo_378592" data-name="Rectángulo 378592" width="77.907" height="73.58" fill="#376460"/>
    </clipPath>
  </defs>
  <g id="Grupo_1073285" data-name="Grupo 1073285" transform="translate(-285 -2759)">
    <g id="Grupo_1073282" data-name="Grupo 1073282" transform="translate(14)">
      <circle id="Elipse_6025" data-name="Elipse 6025" cx="65.5" cy="65.5" r="65.5" transform="translate(353 3115.453)" fill="#7be2d8"/>
      <g id="Rectángulo_378590" data-name="Rectángulo 378590" transform="translate(285 3228.453)" fill="#c3fdf7" stroke="#7be2d8" stroke-width="8">
        <rect width="267" height="103" rx="21" stroke="none"/>
        <rect x="4" y="4" width="259" height="95" rx="17" fill="none"/>
      </g>
      <path id="Trazado_611059" data-name="Trazado 611059" d="M5.086,13.008l3.25-9.383H9.977L5.758,15H4.43L.219,3.625H1.852Zm9.352,2.148a3.693,3.693,0,0,1-2.8-1.129,4.19,4.19,0,0,1-1.078-3.02v-.266a5.073,5.073,0,0,1,.48-2.246,3.748,3.748,0,0,1,1.344-1.547,3.378,3.378,0,0,1,1.871-.559A3.166,3.166,0,0,1,16.82,7.477a4.7,4.7,0,0,1,.914,3.109v.6H12.008a3,3,0,0,0,.73,2.02,2.3,2.3,0,0,0,1.777.77,2.517,2.517,0,0,0,1.3-.312,3.259,3.259,0,0,0,.93-.828l.883.688A3.55,3.55,0,0,1,14.438,15.156Zm-.18-7.578a1.928,1.928,0,0,0-1.469.637A3.1,3.1,0,0,0,12.055,10h4.234V9.891A2.753,2.753,0,0,0,15.7,8.184,1.815,1.815,0,0,0,14.258,7.578Zm6.516-1.031.047,1.063a3.08,3.08,0,0,1,2.531-1.219q2.68,0,2.7,3.023V15H24.609V9.406a1.946,1.946,0,0,0-.418-1.352,1.675,1.675,0,0,0-1.277-.437,2.086,2.086,0,0,0-1.234.375,2.546,2.546,0,0,0-.828.984V15H19.406V6.547ZM27.883,10.7A4.952,4.952,0,0,1,28.8,7.574a3.137,3.137,0,0,1,4.766-.168V3h1.445V15H33.688l-.07-.906A2.943,2.943,0,0,1,31.2,15.156a2.887,2.887,0,0,1-2.395-1.2,5.008,5.008,0,0,1-.926-3.141Zm1.445.164a3.749,3.749,0,0,0,.594,2.25,1.92,1.92,0,0,0,1.641.813A2.108,2.108,0,0,0,33.57,12.7V8.813a2.125,2.125,0,0,0-1.992-1.2,1.929,1.929,0,0,0-1.656.82A4.128,4.128,0,0,0,29.328,10.867Zm11.438,4.289a3.693,3.693,0,0,1-2.8-1.129,4.19,4.19,0,0,1-1.078-3.02v-.266a5.073,5.073,0,0,1,.48-2.246,3.748,3.748,0,0,1,1.344-1.547,3.378,3.378,0,0,1,1.871-.559,3.166,3.166,0,0,1,2.563,1.086,4.7,4.7,0,0,1,.914,3.109v.6H38.336a3,3,0,0,0,.73,2.02,2.3,2.3,0,0,0,1.777.77,2.517,2.517,0,0,0,1.3-.312,3.259,3.259,0,0,0,.93-.828l.883.688A3.55,3.55,0,0,1,40.766,15.156Zm-.18-7.578a1.928,1.928,0,0,0-1.469.637A3.1,3.1,0,0,0,38.383,10h4.234V9.891a2.753,2.753,0,0,0-.594-1.707A1.815,1.815,0,0,0,40.586,7.578Zm9.234.266a4.331,4.331,0,0,0-.711-.055A1.9,1.9,0,0,0,47.18,9v6H45.734V6.547h1.406l.023.977A2.251,2.251,0,0,1,49.18,6.391a1.477,1.477,0,0,1,.641.109ZM52.719,15H51.273V3h1.445Zm5.82.156a3.693,3.693,0,0,1-2.8-1.129,4.19,4.19,0,0,1-1.078-3.02v-.266a5.073,5.073,0,0,1,.48-2.246,3.748,3.748,0,0,1,1.344-1.547,3.378,3.378,0,0,1,1.871-.559,3.166,3.166,0,0,1,2.563,1.086,4.7,4.7,0,0,1,.914,3.109v.6H56.109a3,3,0,0,0,.73,2.02,2.3,2.3,0,0,0,1.777.77,2.517,2.517,0,0,0,1.3-.312,3.259,3.259,0,0,0,.93-.828l.883.688A3.55,3.55,0,0,1,58.539,15.156Zm-.18-7.578a1.928,1.928,0,0,0-1.469.637A3.1,3.1,0,0,0,56.156,10h4.234V9.891A2.753,2.753,0,0,0,59.8,8.184,1.815,1.815,0,0,0,58.359,7.578ZM69.039,15H67.594V3h1.445Zm1.93-4.3a4.993,4.993,0,0,1,.488-2.234A3.643,3.643,0,0,1,72.816,6.93,3.7,3.7,0,0,1,74.8,6.391a3.565,3.565,0,0,1,2.793,1.2,4.6,4.6,0,0,1,1.066,3.18v.1a5.036,5.036,0,0,1-.473,2.215,3.589,3.589,0,0,1-1.352,1.527,3.743,3.743,0,0,1-2.02.547,3.556,3.556,0,0,1-2.785-1.2A4.575,4.575,0,0,1,70.969,10.8Zm1.453.172a3.616,3.616,0,0,0,.652,2.258,2.211,2.211,0,0,0,3.5-.012,3.955,3.955,0,0,0,.648-2.418,3.61,3.61,0,0,0-.66-2.254A2.1,2.1,0,0,0,74.8,7.578a2.075,2.075,0,0,0-1.727.852A3.925,3.925,0,0,0,72.422,10.867ZM85.4,12.758a1.064,1.064,0,0,0-.441-.91,4.249,4.249,0,0,0-1.539-.559,7.277,7.277,0,0,1-1.742-.562,2.479,2.479,0,0,1-.953-.781,1.869,1.869,0,0,1-.309-1.078,2.193,2.193,0,0,1,.879-1.758,3.432,3.432,0,0,1,2.246-.719,3.532,3.532,0,0,1,2.332.742,2.357,2.357,0,0,1,.895,1.9H85.313a1.3,1.3,0,0,0-.5-1.023,1.888,1.888,0,0,0-1.27-.43,1.976,1.976,0,0,0-1.234.344,1.082,1.082,0,0,0-.445.9.877.877,0,0,0,.414.789,5.1,5.1,0,0,0,1.5.508,7.8,7.8,0,0,1,1.754.578,2.558,2.558,0,0,1,1,.809,1.988,1.988,0,0,1,.324,1.152,2.163,2.163,0,0,1-.906,1.816,3.8,3.8,0,0,1-2.352.684,4.257,4.257,0,0,1-1.8-.359,2.922,2.922,0,0,1-1.223-1,2.42,2.42,0,0,1-.441-1.395H81.57a1.5,1.5,0,0,0,.582,1.152,2.258,2.258,0,0,0,1.434.426,2.331,2.331,0,0,0,1.316-.332A1.02,1.02,0,0,0,85.4,12.758Zm14.43-1.891a5.062,5.062,0,0,1-.883,3.109,2.829,2.829,0,0,1-2.391,1.18,3.1,3.1,0,0,1-2.422-.977v4.07H92.688V6.547h1.32l.07.938a2.977,2.977,0,0,1,2.453-1.094,2.882,2.882,0,0,1,2.41,1.148,5.117,5.117,0,0,1,.887,3.2ZM98.383,10.7a3.735,3.735,0,0,0-.609-2.258A1.963,1.963,0,0,0,96.1,7.617a2.125,2.125,0,0,0-1.969,1.164V12.82a2.129,2.129,0,0,0,1.984,1.156,1.954,1.954,0,0,0,1.652-.824A4.077,4.077,0,0,0,98.383,10.7Zm7.367-2.859a4.331,4.331,0,0,0-.711-.055A1.9,1.9,0,0,0,103.109,9v6h-1.445V6.547h1.406l.023.977a2.251,2.251,0,0,1,2.016-1.133,1.477,1.477,0,0,1,.641.109Zm.789,2.852a4.993,4.993,0,0,1,.488-2.234,3.643,3.643,0,0,1,1.359-1.531,3.7,3.7,0,0,1,1.988-.539,3.565,3.565,0,0,1,2.793,1.2,4.6,4.6,0,0,1,1.066,3.18v.1a5.036,5.036,0,0,1-.473,2.215,3.589,3.589,0,0,1-1.352,1.527,3.743,3.743,0,0,1-2.02.547,3.556,3.556,0,0,1-2.785-1.2,4.575,4.575,0,0,1-1.066-3.164Zm1.453.172a3.616,3.616,0,0,0,.652,2.258,2.211,2.211,0,0,0,3.5-.012,3.955,3.955,0,0,0,.648-2.418,3.61,3.61,0,0,0-.66-2.254,2.1,2.1,0,0,0-1.754-.863,2.075,2.075,0,0,0-1.727.852A3.925,3.925,0,0,0,107.992,10.867Zm7.7-.164a4.952,4.952,0,0,1,.922-3.129,3.137,3.137,0,0,1,4.766-.168V3h1.445V15H121.5l-.07-.906a2.943,2.943,0,0,1-2.414,1.063,2.887,2.887,0,0,1-2.395-1.2,5.008,5.008,0,0,1-.926-3.141Zm1.445.164a3.749,3.749,0,0,0,.594,2.25,1.92,1.92,0,0,0,1.641.813,2.108,2.108,0,0,0,2.008-1.234V8.813a2.125,2.125,0,0,0-1.992-1.2,1.929,1.929,0,0,0-1.656.82A4.128,4.128,0,0,0,117.141,10.867Zm13.148,3.3a3.07,3.07,0,0,1-2.477.992,2.628,2.628,0,0,1-2.059-.785,3.4,3.4,0,0,1-.715-2.324v-5.5h1.445v5.461q0,1.922,1.563,1.922a2.163,2.163,0,0,0,2.2-1.234V6.547H131.7V15H130.32Zm6.992-.187a2.082,2.082,0,0,0,1.352-.469,1.649,1.649,0,0,0,.641-1.172h1.367a2.621,2.621,0,0,1-.5,1.383,3.293,3.293,0,0,1-1.23,1.047,3.55,3.55,0,0,1-1.629.391A3.482,3.482,0,0,1,134.535,14a4.59,4.59,0,0,1-1.02-3.152v-.242a5.089,5.089,0,0,1,.453-2.2,3.451,3.451,0,0,1,1.3-1.492,3.7,3.7,0,0,1,2-.531,3.39,3.39,0,0,1,2.363.852,3.043,3.043,0,0,1,1,2.211h-1.367a1.992,1.992,0,0,0-.621-1.348,1.932,1.932,0,0,0-1.379-.527,2.023,2.023,0,0,0-1.707.793,3.724,3.724,0,0,0-.605,2.293v.273a3.65,3.65,0,0,0,.6,2.25A2.033,2.033,0,0,0,137.281,13.977ZM144.227,4.5V6.547H145.8V7.664h-1.578v5.249a1.173,1.173,0,0,0,.211.763.888.888,0,0,0,.719.254,3.5,3.5,0,0,0,.688-.094V15a4.215,4.215,0,0,1-1.109.155,1.8,1.8,0,0,1-1.461-.586,2.517,2.517,0,0,1-.492-1.664V7.664h-1.539V6.547h1.539V4.5Zm2.727,6.2a4.993,4.993,0,0,1,.488-2.234A3.642,3.642,0,0,1,148.8,6.93a3.7,3.7,0,0,1,1.988-.539,3.565,3.565,0,0,1,2.793,1.2,4.6,4.6,0,0,1,1.066,3.18v.1a5.036,5.036,0,0,1-.473,2.215,3.589,3.589,0,0,1-1.352,1.527,3.743,3.743,0,0,1-2.02.547,3.556,3.556,0,0,1-2.785-1.2,4.575,4.575,0,0,1-1.066-3.164Zm1.453.172a3.616,3.616,0,0,0,.652,2.258,2.211,2.211,0,0,0,3.5-.012A3.954,3.954,0,0,0,153.2,10.7a3.61,3.61,0,0,0-.66-2.254,2.1,2.1,0,0,0-1.754-.863,2.075,2.075,0,0,0-1.727.852A3.925,3.925,0,0,0,148.406,10.867Zm12.977,1.891a1.064,1.064,0,0,0-.441-.91,4.249,4.249,0,0,0-1.539-.559,7.277,7.277,0,0,1-1.742-.562,2.479,2.479,0,0,1-.953-.781,1.869,1.869,0,0,1-.309-1.078,2.193,2.193,0,0,1,.879-1.758,3.432,3.432,0,0,1,2.246-.719,3.532,3.532,0,0,1,2.332.742,2.357,2.357,0,0,1,.895,1.9H161.3a1.3,1.3,0,0,0-.5-1.023,1.888,1.888,0,0,0-1.27-.43,1.976,1.976,0,0,0-1.234.344,1.082,1.082,0,0,0-.445.9.877.877,0,0,0,.414.789,5.1,5.1,0,0,0,1.5.508,7.8,7.8,0,0,1,1.754.578,2.558,2.558,0,0,1,1,.809,1.988,1.988,0,0,1,.324,1.152,2.163,2.163,0,0,1-.906,1.816,3.8,3.8,0,0,1-2.352.684,4.257,4.257,0,0,1-1.8-.359,2.922,2.922,0,0,1-1.223-1,2.42,2.42,0,0,1-.441-1.395h1.445a1.5,1.5,0,0,0,.582,1.152,2.258,2.258,0,0,0,1.434.426,2.331,2.331,0,0,0,1.316-.332A1.02,1.02,0,0,0,161.383,12.758Zm10.055.125,1.969-6.336h1.547l-3.4,9.758q-.789,2.109-2.508,2.109l-.273-.023-.539-.1V17.117l.391.031a1.923,1.923,0,0,0,1.145-.3,2.148,2.148,0,0,0,.676-1.086l.32-.859L167.75,6.547h1.578ZM6.016,36.758a1.064,1.064,0,0,0-.441-.91,4.249,4.249,0,0,0-1.539-.559,7.277,7.277,0,0,1-1.742-.562,2.479,2.479,0,0,1-.953-.781,1.869,1.869,0,0,1-.309-1.078,2.193,2.193,0,0,1,.879-1.758,3.432,3.432,0,0,1,2.246-.719,3.532,3.532,0,0,1,2.332.742,2.357,2.357,0,0,1,.895,1.9H5.93a1.3,1.3,0,0,0-.5-1.023,1.888,1.888,0,0,0-1.27-.43,1.976,1.976,0,0,0-1.234.344,1.082,1.082,0,0,0-.445.9.877.877,0,0,0,.414.789,5.1,5.1,0,0,0,1.5.508,7.8,7.8,0,0,1,1.754.578,2.558,2.558,0,0,1,1,.809,1.988,1.988,0,0,1,.324,1.152,2.163,2.163,0,0,1-.906,1.816,3.8,3.8,0,0,1-2.352.684,4.257,4.257,0,0,1-1.8-.359,2.922,2.922,0,0,1-1.223-1A2.42,2.42,0,0,1,.742,36.4H2.188a1.5,1.5,0,0,0,.582,1.152,2.258,2.258,0,0,0,1.434.426,2.331,2.331,0,0,0,1.316-.332A1.02,1.02,0,0,0,6.016,36.758Zm6.836,2.4a3.693,3.693,0,0,1-2.8-1.129,4.19,4.19,0,0,1-1.078-3.02v-.266a5.073,5.073,0,0,1,.48-2.246A3.748,3.748,0,0,1,10.8,30.949a3.378,3.378,0,0,1,1.871-.559,3.166,3.166,0,0,1,2.563,1.086,4.7,4.7,0,0,1,.914,3.109v.6H10.422a3,3,0,0,0,.73,2.02,2.3,2.3,0,0,0,1.777.77,2.517,2.517,0,0,0,1.3-.312,3.258,3.258,0,0,0,.93-.828l.883.688A3.55,3.55,0,0,1,12.852,39.156Zm-.18-7.578a1.928,1.928,0,0,0-1.469.637A3.1,3.1,0,0,0,10.469,34H14.7v-.109a2.753,2.753,0,0,0-.594-1.707A1.815,1.815,0,0,0,12.672,31.578Zm9.234.266a4.331,4.331,0,0,0-.711-.055A1.9,1.9,0,0,0,19.266,33v6H17.82V30.547h1.406l.023.977a2.251,2.251,0,0,1,2.016-1.133,1.477,1.477,0,0,1,.641.109Zm4.258,5.2,2.094-6.492h1.477L26.7,39H25.6l-3.062-8.453h1.477ZM32.7,39H31.25V30.547H32.7ZM31.133,28.3a.863.863,0,0,1,.215-.594.807.807,0,0,1,.637-.242.819.819,0,0,1,.641.242.854.854,0,0,1,.219.594.826.826,0,0,1-.219.586.834.834,0,0,1-.641.234.821.821,0,0,1-.637-.234A.834.834,0,0,1,31.133,28.3ZM38.4,37.977a2.082,2.082,0,0,0,1.352-.469,1.649,1.649,0,0,0,.641-1.172h1.367a2.621,2.621,0,0,1-.5,1.383,3.293,3.293,0,0,1-1.23,1.047,3.55,3.55,0,0,1-1.629.391A3.482,3.482,0,0,1,35.652,38a4.59,4.59,0,0,1-1.02-3.152v-.242a5.089,5.089,0,0,1,.453-2.2,3.451,3.451,0,0,1,1.3-1.492,3.7,3.7,0,0,1,2-.531,3.39,3.39,0,0,1,2.363.852,3.043,3.043,0,0,1,1,2.211H40.391a1.992,1.992,0,0,0-.621-1.348,1.932,1.932,0,0,0-1.379-.527,2.023,2.023,0,0,0-1.707.793,3.724,3.724,0,0,0-.605,2.293v.273a3.65,3.65,0,0,0,.6,2.25A2.033,2.033,0,0,0,38.4,37.977ZM44.953,39H43.508V30.547h1.445ZM43.391,28.3a.863.863,0,0,1,.215-.594.807.807,0,0,1,.637-.242.819.819,0,0,1,.641.242.854.854,0,0,1,.219.594.826.826,0,0,1-.219.586.834.834,0,0,1-.641.234.821.821,0,0,1-.637-.234A.834.834,0,0,1,43.391,28.3ZM46.883,34.7a4.993,4.993,0,0,1,.488-2.234A3.643,3.643,0,0,1,48.73,30.93a3.7,3.7,0,0,1,1.988-.539,3.565,3.565,0,0,1,2.793,1.2,4.6,4.6,0,0,1,1.066,3.18v.1a5.036,5.036,0,0,1-.473,2.215,3.589,3.589,0,0,1-1.352,1.527,3.743,3.743,0,0,1-2.02.547,3.556,3.556,0,0,1-2.785-1.2A4.575,4.575,0,0,1,46.883,34.8Zm1.453.172a3.616,3.616,0,0,0,.652,2.258,2.211,2.211,0,0,0,3.5-.012,3.955,3.955,0,0,0,.648-2.418,3.61,3.61,0,0,0-.66-2.254,2.1,2.1,0,0,0-1.754-.863,2.075,2.075,0,0,0-1.727.852A3.925,3.925,0,0,0,48.336,34.867Zm12.977,1.891a1.064,1.064,0,0,0-.441-.91,4.249,4.249,0,0,0-1.539-.559,7.277,7.277,0,0,1-1.742-.562,2.479,2.479,0,0,1-.953-.781,1.869,1.869,0,0,1-.309-1.078,2.193,2.193,0,0,1,.879-1.758,3.432,3.432,0,0,1,2.246-.719,3.532,3.532,0,0,1,2.332.742,2.357,2.357,0,0,1,.895,1.9H61.227a1.3,1.3,0,0,0-.5-1.023,1.888,1.888,0,0,0-1.27-.43,1.976,1.976,0,0,0-1.234.344,1.082,1.082,0,0,0-.445.9.877.877,0,0,0,.414.789,5.1,5.1,0,0,0,1.5.508,7.8,7.8,0,0,1,1.754.578,2.558,2.558,0,0,1,1,.809,1.988,1.988,0,0,1,.324,1.152,2.163,2.163,0,0,1-.906,1.816,3.8,3.8,0,0,1-2.352.684,4.257,4.257,0,0,1-1.8-.359,2.922,2.922,0,0,1-1.223-1,2.42,2.42,0,0,1-.441-1.395h1.445a1.5,1.5,0,0,0,.582,1.152,2.258,2.258,0,0,0,1.434.426,2.331,2.331,0,0,0,1.316-.332A1.02,1.02,0,0,0,61.313,36.758ZM73.82,39a3.036,3.036,0,0,1-.2-.891,3.225,3.225,0,0,1-2.406,1.047,2.984,2.984,0,0,1-2.051-.707,2.288,2.288,0,0,1-.8-1.793,2.39,2.39,0,0,1,1-2.051,4.733,4.733,0,0,1,2.824-.73h1.406v-.664A1.623,1.623,0,0,0,73.141,32a1.821,1.821,0,0,0-1.336-.449,2.108,2.108,0,0,0-1.3.391,1.151,1.151,0,0,0-.523.945H68.531a2,2,0,0,1,.449-1.223,3.066,3.066,0,0,1,1.219-.934,4.1,4.1,0,0,1,1.691-.344,3.342,3.342,0,0,1,2.289.73,2.635,2.635,0,0,1,.859,2.012v3.891a4.757,4.757,0,0,0,.3,1.852V39Zm-2.4-1.1a2.54,2.54,0,0,0,1.289-.352,2.127,2.127,0,0,0,.883-.914V34.9H72.461q-2.656,0-2.656,1.555a1.316,1.316,0,0,0,.453,1.063A1.742,1.742,0,0,0,71.422,37.9ZM78.875,39H77.43V27h1.445Zm9.664-1.023a2.082,2.082,0,0,0,1.352-.469,1.649,1.649,0,0,0,.641-1.172H91.9a2.621,2.621,0,0,1-.5,1.383,3.293,3.293,0,0,1-1.23,1.047,3.55,3.55,0,0,1-1.629.391A3.482,3.482,0,0,1,85.793,38a4.59,4.59,0,0,1-1.02-3.152v-.242a5.089,5.089,0,0,1,.453-2.2,3.451,3.451,0,0,1,1.3-1.492,3.7,3.7,0,0,1,2-.531,3.39,3.39,0,0,1,2.363.852,3.043,3.043,0,0,1,1,2.211H90.531a1.992,1.992,0,0,0-.621-1.348,1.932,1.932,0,0,0-1.379-.527,2.023,2.023,0,0,0-1.707.793,3.724,3.724,0,0,0-.605,2.293v.273a3.65,3.65,0,0,0,.6,2.25A2.033,2.033,0,0,0,88.539,37.977ZM95.094,39H93.648V27h1.445Zm3.883,0H97.531V30.547h1.445ZM97.414,28.3a.863.863,0,0,1,.215-.594.807.807,0,0,1,.637-.242.819.819,0,0,1,.641.242.854.854,0,0,1,.219.594.826.826,0,0,1-.219.586.834.834,0,0,1-.641.234.821.821,0,0,1-.637-.234A.834.834,0,0,1,97.414,28.3ZM104.8,39.156a3.693,3.693,0,0,1-2.8-1.129,4.19,4.19,0,0,1-1.078-3.02v-.266a5.073,5.073,0,0,1,.48-2.246,3.748,3.748,0,0,1,1.344-1.547,3.378,3.378,0,0,1,1.871-.559,3.166,3.166,0,0,1,2.563,1.086,4.7,4.7,0,0,1,.914,3.109v.6h-5.727a3,3,0,0,0,.73,2.02,2.3,2.3,0,0,0,1.777.77,2.517,2.517,0,0,0,1.3-.312,3.259,3.259,0,0,0,.93-.828l.883.688A3.55,3.55,0,0,1,104.8,39.156Zm-.18-7.578a1.928,1.928,0,0,0-1.469.637A3.1,3.1,0,0,0,102.414,34h4.234v-.109a2.753,2.753,0,0,0-.594-1.707A1.815,1.815,0,0,0,104.617,31.578Zm6.516-1.031.047,1.063a3.08,3.08,0,0,1,2.531-1.219q2.68,0,2.7,3.023V39h-1.445V33.406a1.946,1.946,0,0,0-.418-1.352,1.675,1.675,0,0,0-1.277-.437,2.086,2.086,0,0,0-1.234.375,2.546,2.546,0,0,0-.828.984V39h-1.445V30.547Zm9.422-2.047v2.047h1.578v1.117h-1.578v5.249a1.173,1.173,0,0,0,.211.763.888.888,0,0,0,.719.254,3.5,3.5,0,0,0,.688-.094V39a4.215,4.215,0,0,1-1.109.155,1.8,1.8,0,0,1-1.461-.586,2.517,2.517,0,0,1-.492-1.664V31.664H117.57V30.547h1.539V28.5Zm6.773,10.656a3.693,3.693,0,0,1-2.8-1.129,4.19,4.19,0,0,1-1.078-3.02v-.266a5.073,5.073,0,0,1,.48-2.246,3.748,3.748,0,0,1,1.344-1.547,3.378,3.378,0,0,1,1.871-.559,3.166,3.166,0,0,1,2.563,1.086,4.7,4.7,0,0,1,.914,3.109v.6H124.9a3,3,0,0,0,.73,2.02,2.3,2.3,0,0,0,1.777.77,2.517,2.517,0,0,0,1.3-.312,3.258,3.258,0,0,0,.93-.828l.883.688A3.55,3.55,0,0,1,127.328,39.156Zm-.18-7.578a1.928,1.928,0,0,0-1.469.637A3.1,3.1,0,0,0,124.945,34h4.234v-.109a2.753,2.753,0,0,0-.594-1.707A1.815,1.815,0,0,0,127.148,31.578Zm5.1,9.688-.82-.562a3.77,3.77,0,0,0,.766-2.109v-1.3h1.414v1.133A3.559,3.559,0,0,1,133.223,40,3.7,3.7,0,0,1,132.25,41.266Zm10.539-3.289a2.082,2.082,0,0,0,1.352-.469,1.649,1.649,0,0,0,.641-1.172h1.367a2.621,2.621,0,0,1-.5,1.383,3.293,3.293,0,0,1-1.23,1.047,3.55,3.55,0,0,1-1.629.391A3.482,3.482,0,0,1,140.043,38a4.59,4.59,0,0,1-1.02-3.152v-.242a5.089,5.089,0,0,1,.453-2.2,3.451,3.451,0,0,1,1.3-1.492,3.7,3.7,0,0,1,2-.531,3.39,3.39,0,0,1,2.363.852,3.043,3.043,0,0,1,1,2.211h-1.367a1.992,1.992,0,0,0-.621-1.348,1.932,1.932,0,0,0-1.379-.527,2.023,2.023,0,0,0-1.707.793,3.724,3.724,0,0,0-.605,2.293v.273a3.65,3.65,0,0,0,.6,2.25A2.033,2.033,0,0,0,142.789,37.977Zm4.6-3.281a4.993,4.993,0,0,1,.488-2.234,3.642,3.642,0,0,1,1.359-1.531,3.7,3.7,0,0,1,1.988-.539,3.565,3.565,0,0,1,2.793,1.2,4.6,4.6,0,0,1,1.066,3.18v.1a5.036,5.036,0,0,1-.473,2.215,3.589,3.589,0,0,1-1.352,1.527,3.743,3.743,0,0,1-2.02.547,3.556,3.556,0,0,1-2.785-1.2,4.575,4.575,0,0,1-1.066-3.164Zm1.453.172a3.616,3.616,0,0,0,.652,2.258,2.211,2.211,0,0,0,3.5-.012,3.954,3.954,0,0,0,.648-2.418,3.61,3.61,0,0,0-.66-2.254,2.1,2.1,0,0,0-1.754-.863,2.075,2.075,0,0,0-1.727.852A3.925,3.925,0,0,0,148.844,34.867Zm9.422-4.32.047,1.063a3.08,3.08,0,0,1,2.531-1.219q2.68,0,2.7,3.023V39H162.1V33.406a1.946,1.946,0,0,0-.418-1.352,1.675,1.675,0,0,0-1.277-.437,2.086,2.086,0,0,0-1.234.375,2.546,2.546,0,0,0-.828.984V39H156.9V30.547Zm11.07,4.156a4.961,4.961,0,0,1,.914-3.152,3.226,3.226,0,0,1,4.82-.152l.063-.852h1.328v11.7h-1.445V38.219a3.033,3.033,0,0,1-2.328.938,2.915,2.915,0,0,1-2.441-1.191,5.072,5.072,0,0,1-.91-3.16Zm1.445.164a3.761,3.761,0,0,0,.613,2.281,1.951,1.951,0,0,0,1.652.828,2.164,2.164,0,0,0,1.969-1.141V32.7a2.171,2.171,0,0,0-1.953-1.117,1.965,1.965,0,0,0-1.664.832A4.094,4.094,0,0,0,170.781,34.867ZM184,38.164a3.07,3.07,0,0,1-2.477.992,2.628,2.628,0,0,1-2.059-.785,3.4,3.4,0,0,1-.715-2.324v-5.5H180.2v5.461q0,1.922,1.563,1.922a2.163,2.163,0,0,0,2.2-1.234V30.547h1.445V39h-1.375Zm5.172.836h-1.445V30.547h1.445Zm-1.562-10.7a.863.863,0,0,1,.215-.594.807.807,0,0,1,.637-.242.819.819,0,0,1,.641.242.854.854,0,0,1,.219.594.826.826,0,0,1-.219.586.834.834,0,0,1-.641.234.821.821,0,0,1-.637-.234A.834.834,0,0,1,187.609,28.3Zm7.383,10.852a3.693,3.693,0,0,1-2.8-1.129,4.19,4.19,0,0,1-1.078-3.02v-.266a5.073,5.073,0,0,1,.48-2.246,3.748,3.748,0,0,1,1.344-1.547,3.378,3.378,0,0,1,1.871-.559,3.166,3.166,0,0,1,2.563,1.086,4.7,4.7,0,0,1,.914,3.109v.6h-5.727a3,3,0,0,0,.73,2.02,2.3,2.3,0,0,0,1.777.77,2.517,2.517,0,0,0,1.3-.312,3.258,3.258,0,0,0,.93-.828l.883.688A3.55,3.55,0,0,1,194.992,39.156Zm-.18-7.578a1.928,1.928,0,0,0-1.469.637A3.1,3.1,0,0,0,192.609,34h4.234v-.109a2.753,2.753,0,0,0-.594-1.707A1.815,1.815,0,0,0,194.813,31.578Zm6.516-1.031.047,1.063a3.08,3.08,0,0,1,2.531-1.219q2.68,0,2.7,3.023V39h-1.445V33.406a1.946,1.946,0,0,0-.418-1.352,1.675,1.675,0,0,0-1.277-.437,2.086,2.086,0,0,0-1.234.375,2.546,2.546,0,0,0-.828.984V39h-1.445V30.547ZM3.055,52.5v2.047H4.633v1.117H3.055v5.249a1.173,1.173,0,0,0,.211.763.888.888,0,0,0,.719.254,3.5,3.5,0,0,0,.688-.094V63a4.215,4.215,0,0,1-1.109.155A1.8,1.8,0,0,1,2.1,62.57a2.517,2.517,0,0,1-.492-1.664V55.664H.07V54.547H1.609V52.5ZM7.891,63H6.445V54.547H7.891ZM6.328,52.3a.863.863,0,0,1,.215-.594.807.807,0,0,1,.637-.242.819.819,0,0,1,.641.242.854.854,0,0,1,.219.594.826.826,0,0,1-.219.586.834.834,0,0,1-.641.234.821.821,0,0,1-.637-.234A.834.834,0,0,1,6.328,52.3Zm7.383,10.852a3.693,3.693,0,0,1-2.8-1.129,4.19,4.19,0,0,1-1.078-3.02v-.266a5.073,5.073,0,0,1,.48-2.246,3.748,3.748,0,0,1,1.344-1.547,3.378,3.378,0,0,1,1.871-.559,3.166,3.166,0,0,1,2.563,1.086,4.7,4.7,0,0,1,.914,3.109v.6H11.281a3,3,0,0,0,.73,2.02,2.3,2.3,0,0,0,1.777.77,2.517,2.517,0,0,0,1.3-.312,3.258,3.258,0,0,0,.93-.828l.883.688A3.55,3.55,0,0,1,13.711,63.156Zm-.18-7.578a1.928,1.928,0,0,0-1.469.637A3.1,3.1,0,0,0,11.328,58h4.234v-.109a2.753,2.753,0,0,0-.594-1.707A1.815,1.815,0,0,0,13.531,55.578Zm6.516-1.031.047,1.063a3.08,3.08,0,0,1,2.531-1.219q2.68,0,2.7,3.023V63H23.883V57.406a1.946,1.946,0,0,0-.418-1.352,1.675,1.675,0,0,0-1.277-.437,2.086,2.086,0,0,0-1.234.375,2.546,2.546,0,0,0-.828.984V63H18.68V54.547Zm10.969,8.609a3.693,3.693,0,0,1-2.8-1.129,4.19,4.19,0,0,1-1.078-3.02v-.266a5.073,5.073,0,0,1,.48-2.246,3.748,3.748,0,0,1,1.344-1.547,3.378,3.378,0,0,1,1.871-.559A3.166,3.166,0,0,1,33.4,55.477a4.7,4.7,0,0,1,.914,3.109v.6H28.586a3,3,0,0,0,.73,2.02,2.3,2.3,0,0,0,1.777.77,2.517,2.517,0,0,0,1.3-.312,3.258,3.258,0,0,0,.93-.828l.883.688A3.55,3.55,0,0,1,31.016,63.156Zm-.18-7.578a1.928,1.928,0,0,0-1.469.637A3.1,3.1,0,0,0,28.633,58h4.234v-.109a2.753,2.753,0,0,0-.594-1.707A1.815,1.815,0,0,0,30.836,55.578Zm12.5,6.4a2.082,2.082,0,0,0,1.352-.469,1.649,1.649,0,0,0,.641-1.172H46.7a2.621,2.621,0,0,1-.5,1.383,3.293,3.293,0,0,1-1.23,1.047,3.55,3.55,0,0,1-1.629.391A3.482,3.482,0,0,1,40.59,62a4.59,4.59,0,0,1-1.02-3.152v-.242a5.089,5.089,0,0,1,.453-2.2,3.451,3.451,0,0,1,1.3-1.492,3.7,3.7,0,0,1,2-.531,3.39,3.39,0,0,1,2.363.852,3.043,3.043,0,0,1,1,2.211H45.328a1.992,1.992,0,0,0-.621-1.348,1.932,1.932,0,0,0-1.379-.527,2.023,2.023,0,0,0-1.707.793,3.724,3.724,0,0,0-.605,2.293v.273a3.65,3.65,0,0,0,.6,2.25A2.033,2.033,0,0,0,43.336,61.977Zm4.6-3.281a4.993,4.993,0,0,1,.488-2.234,3.643,3.643,0,0,1,1.359-1.531,3.7,3.7,0,0,1,1.988-.539,3.565,3.565,0,0,1,2.793,1.2,4.6,4.6,0,0,1,1.066,3.18v.1a5.036,5.036,0,0,1-.473,2.215,3.589,3.589,0,0,1-1.352,1.527,3.743,3.743,0,0,1-2.02.547A3.556,3.556,0,0,1,49,61.961,4.575,4.575,0,0,1,47.938,58.8Zm1.453.172a3.616,3.616,0,0,0,.652,2.258,2.211,2.211,0,0,0,3.5-.012,3.955,3.955,0,0,0,.648-2.418,3.61,3.61,0,0,0-.66-2.254,2.1,2.1,0,0,0-1.754-.863,2.075,2.075,0,0,0-1.727.852A3.925,3.925,0,0,0,49.391,58.867Zm9.422-4.32.047,1.063a3.08,3.08,0,0,1,2.531-1.219q2.68,0,2.7,3.023V63H62.648V57.406a1.946,1.946,0,0,0-.418-1.352,1.675,1.675,0,0,0-1.277-.437,2.086,2.086,0,0,0-1.234.375,2.546,2.546,0,0,0-.828.984V63H57.445V54.547ZM68.234,52.5v2.047h1.578v1.117H68.234v5.249a1.173,1.173,0,0,0,.211.763.888.888,0,0,0,.719.254,3.5,3.5,0,0,0,.688-.094V63a4.215,4.215,0,0,1-1.109.155,1.8,1.8,0,0,1-1.461-.586,2.517,2.517,0,0,1-.492-1.664V55.664H65.25V54.547h1.539V52.5ZM76.719,63a3.036,3.036,0,0,1-.2-.891,3.225,3.225,0,0,1-2.406,1.047,2.984,2.984,0,0,1-2.051-.707,2.288,2.288,0,0,1-.8-1.793,2.39,2.39,0,0,1,1-2.051,4.733,4.733,0,0,1,2.824-.73h1.406v-.664A1.623,1.623,0,0,0,76.039,56a1.821,1.821,0,0,0-1.336-.449,2.107,2.107,0,0,0-1.3.391,1.151,1.151,0,0,0-.523.945H71.43a2,2,0,0,1,.449-1.223,3.066,3.066,0,0,1,1.219-.934,4.1,4.1,0,0,1,1.691-.344,3.342,3.342,0,0,1,2.289.73,2.635,2.635,0,0,1,.859,2.012v3.891a4.757,4.757,0,0,0,.3,1.852V63Zm-2.4-1.1a2.54,2.54,0,0,0,1.289-.352,2.127,2.127,0,0,0,.883-.914V58.9H75.359q-2.656,0-2.656,1.555a1.316,1.316,0,0,0,.453,1.063A1.742,1.742,0,0,0,74.32,61.9Zm9.273.078a2.082,2.082,0,0,0,1.352-.469,1.649,1.649,0,0,0,.641-1.172h1.367a2.621,2.621,0,0,1-.5,1.383,3.293,3.293,0,0,1-1.23,1.047,3.55,3.55,0,0,1-1.629.391A3.482,3.482,0,0,1,80.848,62a4.59,4.59,0,0,1-1.02-3.152v-.242a5.089,5.089,0,0,1,.453-2.2,3.451,3.451,0,0,1,1.3-1.492,3.7,3.7,0,0,1,2-.531,3.39,3.39,0,0,1,2.363.852,3.043,3.043,0,0,1,1,2.211H85.586a1.992,1.992,0,0,0-.621-1.348,1.932,1.932,0,0,0-1.379-.527,2.023,2.023,0,0,0-1.707.793,3.724,3.724,0,0,0-.605,2.293v.273a3.65,3.65,0,0,0,.6,2.25A2.033,2.033,0,0,0,83.594,61.977ZM90.539,52.5v2.047h1.578v1.117H90.539v5.249a1.173,1.173,0,0,0,.211.763.888.888,0,0,0,.719.254,3.5,3.5,0,0,0,.688-.094V63a4.215,4.215,0,0,1-1.109.155,1.8,1.8,0,0,1-1.461-.586,2.517,2.517,0,0,1-.492-1.664V55.664H87.555V54.547h1.539V52.5Zm2.727,6.2a4.993,4.993,0,0,1,.488-2.234,3.643,3.643,0,0,1,1.359-1.531,3.7,3.7,0,0,1,1.988-.539,3.565,3.565,0,0,1,2.793,1.2,4.6,4.6,0,0,1,1.066,3.18v.1a5.036,5.036,0,0,1-.473,2.215,3.589,3.589,0,0,1-1.352,1.527,3.743,3.743,0,0,1-2.02.547,3.556,3.556,0,0,1-2.785-1.2A4.575,4.575,0,0,1,93.266,58.8Zm1.453.172a3.616,3.616,0,0,0,.652,2.258,2.211,2.211,0,0,0,3.5-.012,3.955,3.955,0,0,0,.648-2.418,3.61,3.61,0,0,0-.66-2.254,2.1,2.1,0,0,0-1.754-.863,2.075,2.075,0,0,0-1.727.852A3.925,3.925,0,0,0,94.719,58.867Zm11.664-.164a4.952,4.952,0,0,1,.922-3.129,3.137,3.137,0,0,1,4.766-.168V51h1.445V63h-1.328l-.07-.906a2.943,2.943,0,0,1-2.414,1.063,2.887,2.887,0,0,1-2.395-1.2,5.008,5.008,0,0,1-.926-3.141Zm1.445.164a3.749,3.749,0,0,0,.594,2.25,1.92,1.92,0,0,0,1.641.813A2.108,2.108,0,0,0,112.07,60.7V56.813a2.125,2.125,0,0,0-1.992-1.2,1.929,1.929,0,0,0-1.656.82A4.128,4.128,0,0,0,107.828,58.867Zm9.5,4.133h-1.445V54.547h1.445Zm-1.562-10.7a.863.863,0,0,1,.215-.594.807.807,0,0,1,.637-.242.819.819,0,0,1,.641.242.854.854,0,0,1,.219.594.826.826,0,0,1-.219.586.834.834,0,0,1-.641.234.821.821,0,0,1-.637-.234A.834.834,0,0,1,115.766,52.3Zm7.961,3.539a4.331,4.331,0,0,0-.711-.055A1.9,1.9,0,0,0,121.086,57v6h-1.445V54.547h1.406l.023.977a2.251,2.251,0,0,1,2.016-1.133,1.477,1.477,0,0,1,.641.109Zm4.688,7.313a3.693,3.693,0,0,1-2.8-1.129,4.19,4.19,0,0,1-1.078-3.02v-.266a5.073,5.073,0,0,1,.48-2.246,3.748,3.748,0,0,1,1.344-1.547,3.378,3.378,0,0,1,1.871-.559,3.166,3.166,0,0,1,2.563,1.086,4.7,4.7,0,0,1,.914,3.109v.6h-5.727a3,3,0,0,0,.73,2.02,2.3,2.3,0,0,0,1.777.77,2.517,2.517,0,0,0,1.3-.312,3.258,3.258,0,0,0,.93-.828l.883.688A3.55,3.55,0,0,1,128.414,63.156Zm-.18-7.578a1.928,1.928,0,0,0-1.469.637A3.1,3.1,0,0,0,126.031,58h4.234v-.109a2.753,2.753,0,0,0-.594-1.707A1.815,1.815,0,0,0,128.234,55.578Zm8.539,6.4a2.082,2.082,0,0,0,1.352-.469,1.649,1.649,0,0,0,.641-1.172h1.367a2.621,2.621,0,0,1-.5,1.383,3.293,3.293,0,0,1-1.23,1.047,3.55,3.55,0,0,1-1.629.391A3.482,3.482,0,0,1,134.027,62a4.59,4.59,0,0,1-1.02-3.152v-.242a5.089,5.089,0,0,1,.453-2.2,3.451,3.451,0,0,1,1.3-1.492,3.7,3.7,0,0,1,2-.531,3.39,3.39,0,0,1,2.363.852,3.043,3.043,0,0,1,1,2.211h-1.367a1.992,1.992,0,0,0-.621-1.348,1.932,1.932,0,0,0-1.379-.527,2.023,2.023,0,0,0-1.707.793,3.724,3.724,0,0,0-.605,2.293v.273a3.65,3.65,0,0,0,.6,2.25A2.033,2.033,0,0,0,136.773,61.977Zm6.945-9.477v2.047H145.3v1.117h-1.578v5.249a1.173,1.173,0,0,0,.211.763.888.888,0,0,0,.719.254,3.5,3.5,0,0,0,.688-.094V63a4.215,4.215,0,0,1-1.109.155,1.8,1.8,0,0,1-1.461-.586,2.517,2.517,0,0,1-.492-1.664V55.664h-1.539V54.547h1.539V52.5Zm2.727,6.2a4.993,4.993,0,0,1,.488-2.234,3.642,3.642,0,0,1,1.359-1.531,3.7,3.7,0,0,1,1.988-.539,3.565,3.565,0,0,1,2.793,1.2,4.6,4.6,0,0,1,1.066,3.18v.1a5.036,5.036,0,0,1-.473,2.215,3.589,3.589,0,0,1-1.352,1.527,3.743,3.743,0,0,1-2.02.547,3.556,3.556,0,0,1-2.785-1.2,4.575,4.575,0,0,1-1.066-3.164Zm1.453.172a3.616,3.616,0,0,0,.652,2.258,2.211,2.211,0,0,0,3.5-.012A3.954,3.954,0,0,0,152.7,58.7a3.61,3.61,0,0,0-.66-2.254,2.1,2.1,0,0,0-1.754-.863,2.075,2.075,0,0,0-1.727.852A3.925,3.925,0,0,0,147.9,58.867Zm8.086,3.375a.905.905,0,0,1,.223-.625.848.848,0,0,1,.668-.25.874.874,0,0,1,.676.25.887.887,0,0,1,.23.625.839.839,0,0,1-.23.6.89.89,0,0,1-.676.242.8.8,0,0,1-.891-.844Z" transform="translate(310 3243.453)" fill="#12263f"/>
      <g id="Grupo_1073277" data-name="Grupo 1073277" transform="translate(373 3144.453)">
        <g id="Grupo_1073276" data-name="Grupo 1073276" clip-path="url(#clip-path)">
          <path id="Trazado_610845" data-name="Trazado 610845" d="M54.856,158.612a16.6,16.6,0,0,1-3.2-.468c-1.564-.445-3.144-.835-4.715-1.256q-2.5-.669-4.993-1.352c-2.36-.642-4.733-1.236-7.081-1.925-.246-.072-.5-.117-.753-.168a.993.993,0,0,0-.769.15c-.412.264-.842.5-1.265.749-.442.259-.449.263-.193.729q.529.966,1.077,1.921a3.411,3.411,0,0,1-1.19,4.659c-1.414.876-2.87,1.691-4.349,2.453a3.42,3.42,0,0,1-4.575-1.519c-.648-1.08-1.248-2.19-1.869-3.287q-4.734-8.351-9.471-16.7a4.238,4.238,0,0,1-.72-2.271,3.3,3.3,0,0,1,1.6-2.857c1.4-.87,2.853-1.671,4.309-2.451a3.451,3.451,0,0,1,4.514,1.242c.2.31.373.632.546.955a.379.379,0,0,0,.619.17c1.648-.966,3.3-1.93,4.956-2.876,2.212-1.262,4.368-2.622,6.643-3.772a12.652,12.652,0,0,1,4.787-1.439,8.515,8.515,0,0,1,3.29.445c2.536.828,5.02,1.8,7.557,2.627a53.252,53.252,0,0,0,5.267,1.465,8.8,8.8,0,0,1,2.858.886,5.375,5.375,0,0,1,2.382,6.883c-.031.086-.16.169-.075.256s.206.025.311-.012a6.581,6.581,0,0,0,1.128-.531q2.56-1.481,5.115-2.968c3.241-1.881,6.473-3.776,9.726-5.635a14.492,14.492,0,0,1,5.536-1.959c2.668-.308,5.21.724,6.283,3.35a5.85,5.85,0,0,1-2.174,7.186c-2.878,1.748-5.74,3.525-8.608,5.29q-7.885,4.853-15.77,9.705a16.384,16.384,0,0,1-3.632,1.82,15.142,15.142,0,0,1-3.1.507m2.621-13.472a12.553,12.553,0,0,1-4.034-.584c-3-.635-5.946-1.533-8.9-2.365a1.449,1.449,0,0,1-.955-1.849,1.394,1.394,0,0,1,1.79-.905c2.543.716,5.083,1.446,7.648,2.083a9.266,9.266,0,0,0,2.394.32,2.278,2.278,0,0,0,2.222-2.358,2.654,2.654,0,0,0-2.319-2.628,36.461,36.461,0,0,1-4.6-1.117c-3.036-.906-6.007-2.015-8.989-3.081a7.5,7.5,0,0,0-3.475-.355,9.684,9.684,0,0,0-3.635,1.323c-3.651,2.077-7.281,4.19-10.925,6.277-.3.17-.24.324-.109.553q1.938,3.4,3.866,6.8,1.284,2.269,2.551,4.547c.143.258.262.313.531.137.512-.335,1.083-.583,1.576-.94a2.8,2.8,0,0,1,2.6-.394c1.821.526,3.66.993,5.492,1.483q4.52,1.209,9.041,2.416c1.312.349,2.605.773,3.943,1.018a7.9,7.9,0,0,0,5.732-.982q3.606-2.2,7.205-4.418c6.094-3.746,12.171-7.519,18.288-11.227a3.079,3.079,0,0,0,.4-4.6,3.348,3.348,0,0,0-2.558-.674,9.758,9.758,0,0,0-3.329.981c-1.855.87-3.576,1.983-5.347,3-3.491,2.011-6.962,4.055-10.45,6.072a10.028,10.028,0,0,1-5.659,1.469M30.51,158.765a2.119,2.119,0,0,0-.447-1.084q-4.784-8.446-9.574-16.888c-.561-.989-1.071-2.009-1.7-2.955-.273-.409-.42-.434-.861-.223q-.182.087-.358.186c-1.12.63-2.236,1.268-3.36,1.891-.576.319-.684.646-.361,1.215q3.548,6.257,7.1,12.514c1.43,2.522,2.853,5.048,4.29,7.566.361.633.656.722,1.285.376,1.233-.679,2.451-1.385,3.673-2.083a.517.517,0,0,0,.322-.515" transform="translate(-7.603 -91.136)" fill="#fff"/>
          <path id="Trazado_610846" data-name="Trazado 610846" d="M35.4,20.134c0,2.977-.014,5.954.009,8.931a1.969,1.969,0,0,1-1.108,1.87q-7.056,4.048-14.1,8.12c-.573.33-1.149.655-1.718.991a1.458,1.458,0,0,1-1.593-.012q-7.885-4.56-15.785-9.1A2.014,2.014,0,0,1,0,29.028q.009-8.949,0-17.9A1.842,1.842,0,0,1,.986,9.38Q8.174,5.263,15.342,1.113C15.8.85,16.258.592,16.7.314a1.766,1.766,0,0,1,1.97-.028q5.575,3.237,11.163,6.452c1.506.869,3,1.755,4.523,2.6a1.833,1.833,0,0,1,1.028,1.758c-.009,3.014,0,6.027,0,9.041H35.4M19.167,36.314c.127-.065.214-.106.3-.154l8.916-5.129c1.242-.714,2.481-1.432,3.727-2.14a.69.69,0,0,0,.4-.741c-.047-.535-.04-1.077-.04-1.616q0-5.587,0-11.174c0-.576.011-1.151.012-1.727,0-.1.041-.24-.073-.3s-.175.06-.256.106c-.212.122-.419.253-.631.376q-6.048,3.482-12.1,6.961a.474.474,0,0,0-.275.465q.019,6.6.019,13.2c0,.61,0,1.221,0,1.878M2.949,13.254v.454c0,4.644.024,9.288-.022,13.931a1.545,1.545,0,0,0,.921,1.585c4.064,2.291,8.1,4.635,12.143,6.961.07.041.136.135.225.067s.051-.16.038-.241a7.337,7.337,0,0,1-.061-1.21c.037-4.508-.076-9.017.063-13.525a.471.471,0,0,0-.246-.488c-.686-.38-1.36-.778-2.045-1.159-.568-.316-.564-.309-.559.348.011,1.408.062,2.819,0,4.225a1.427,1.427,0,0,1-2.238,1.18c-1.425-.813-2.831-1.663-4.27-2.448a2.033,2.033,0,0,1-1.147-2c.03-1.923.021-3.847.035-5.77a.369.369,0,0,0-.211-.38c-.86-.489-1.711-1-2.627-1.531m1.4-2.5c.726.421,1.406.763,2.027,1.19a1.307,1.307,0,0,0,1.661.042c2.094-1.288,4.252-2.474,6.385-3.7q2.928-1.683,5.855-3.371c.078-.045.225-.022.222-.152,0-.105-.116-.146-.2-.2-.667-.387-1.362-.734-1.989-1.176a.928.928,0,0,0-1.207,0c-3.118,1.844-6.268,3.634-9.407,5.442L4.35,10.758M17.781,18.4a2.4,2.4,0,0,0,.265-.119c.265-.153.523-.318.788-.471q5.979-3.45,11.962-6.893c.23-.132.234-.192,0-.32q-1.171-.651-2.33-1.324a.54.54,0,0,0-.61.006c-1.788,1.038-3.586,2.061-5.378,3.094q-3.689,2.128-7.376,4.261c-.182.1-.227.178-.024.3.761.445,1.52.892,2.282,1.335a.813.813,0,0,0,.417.135m-7.627-4.348c.048.122.165.17.27.228.417.232.841.451,1.249.7a.438.438,0,0,0,.507.006c.54-.313,1.087-.612,1.628-.924q5.548-3.2,11.1-6.4c.352-.2.351-.248-.01-.465-.388-.233-.783-.454-1.171-.688a.439.439,0,0,0-.512.01c-.31.2-.633.371-.951.555l-12.1,6.98m.356,5.6h0c0-.587-.007-1.174,0-1.761a.382.382,0,0,0-.205-.39c-.427-.238-.846-.49-1.274-.726-.34-.188-.363-.173-.365.206,0,1.138,0,2.275-.01,3.413a.353.353,0,0,0,.218.343c.469.264.933.535,1.4.8.061.035.116.111.195.071s.035-.128.035-.2q0-.88,0-1.76" transform="translate(0 0)" fill="#fff"/>
          <path id="Trazado_610847" data-name="Trazado 610847" d="M205.232,29.59a8.866,8.866,0,0,1-1.5-1.415,9.214,9.214,0,0,1-2.089-7.4,9.607,9.607,0,0,1,6.751-7.626A9.426,9.426,0,0,1,219.6,18.779a8.544,8.544,0,0,1,.6,4.636,9.766,9.766,0,0,1-2.858,5.511,4.188,4.188,0,0,1-.531.45c-.261.178-.173.25.058.342a18.965,18.965,0,0,1,1.939.877,17.005,17.005,0,0,1,8.221,9.491,14.185,14.185,0,0,1,.834,3.787,1.387,1.387,0,0,1-1.337,1.6c-.329.031-.661.042-.991.042-9.871,0-19.742-.012-29.613.017-1.591,0-2.256-.731-1.99-2.274a17.49,17.49,0,0,1,3.93-8.6A17.12,17.12,0,0,1,205,29.693c.057-.022.112-.049.235-.1m5.663,13v-.008q6.528,0,13.056,0c.845,0,.83.01.6-.794a13.623,13.623,0,0,0-3.488-6A14.225,14.225,0,0,0,197.091,42.3c-.078.3.059.294.27.294q6.767,0,13.534,0M217.342,22.2a6.465,6.465,0,1,0-12.929-.012,6.465,6.465,0,0,0,12.929.012" transform="translate(-136.681 -9.035)" fill="#fff"/>
          <path id="Trazado_610848" data-name="Trazado 610848" d="M141.4,38.429a1.264,1.264,0,0,0-.7-.123q-5.5.01-11,.02a6.294,6.294,0,0,1-.735-.036,1.526,1.526,0,0,1-1.42-1.43,1.543,1.543,0,0,1,1.421-1.432,6.711,6.711,0,0,1,.807-.052q5.647,0,11.295.012c.069,0,.148.033.219-.075-.2-.148-.4-.291-.6-.448a1.349,1.349,0,0,1-.44-1.556A1.439,1.439,0,0,1,141.4,32.3a1.048,1.048,0,0,1,.807.161c1.635,1.058,3.256,2.14,4.836,3.278A1.359,1.359,0,0,1,147.038,38c-1.573,1.105-3.169,2.18-4.772,3.242a1.34,1.34,0,0,1-1.844-.42A1.462,1.462,0,0,1,140.567,39a2.912,2.912,0,0,1,.361-.311c.128-.09.273-.156.47-.265" transform="translate(-89.913 -22.754)" fill="#fff"/>
          <path id="Trazado_610849" data-name="Trazado 610849" d="M133.9,79.136a2.021,2.021,0,0,0,.521.476,1.446,1.446,0,1,1-1.706,2.333c-1.434-.963-2.859-1.938-4.287-2.909a2.527,2.527,0,0,1-.232-.18,1.361,1.361,0,0,1,.066-2.365c1.5-1.064,3.021-2.091,4.55-3.11a1.477,1.477,0,0,1,1.955.3,1.5,1.5,0,0,1-.33,2.066c-.161.129-.326.253-.516.4a.676.676,0,0,0,.466.073q5.738,0,11.476,0c.159,0,.32-.006.478.006a1.4,1.4,0,0,1,1.27,1.332,1.35,1.35,0,0,1-1.221,1.544c-.45.037-.906,0-1.359.005l-10.592.029h-.54" transform="translate(-89.913 -51.562)" fill="#fff"/>
          <path id="Trazado_610850" data-name="Trazado 610850" d="M31.2,166.31a1.339,1.339,0,0,1-1.35,1.387,1.408,1.408,0,1,1,.044-2.816A1.357,1.357,0,0,1,31.2,166.31" transform="translate(-20.051 -116.235)" fill="#fff"/>
        </g>
      </g>
    </g>
    <g id="Grupo_1073283" data-name="Grupo 1073283" transform="translate(-721 271)">
      <circle id="Elipse_6026" data-name="Elipse 6026" cx="65.5" cy="65.5" r="65.5" transform="translate(1088 2624.453)" fill="#afe599"/>
      <g id="Rectángulo_378589" data-name="Rectángulo 378589" transform="translate(1020 2737.453)" fill="#e7ffdd" stroke="#afe599" stroke-width="8">
        <rect width="267" height="96" rx="16" stroke="none"/>
        <rect x="4" y="4" width="259" height="88" rx="12" fill="none"/>
      </g>
      <path id="Trazado_611058" data-name="Trazado 611058" d="M9.688,11.391a4.185,4.185,0,0,1-1.332,2.785,4.365,4.365,0,0,1-2.98.98,4.008,4.008,0,0,1-3.23-1.445A5.815,5.815,0,0,1,.93,9.844V8.75A6.481,6.481,0,0,1,1.5,5.961,4.231,4.231,0,0,1,3.1,4.113a4.47,4.47,0,0,1,2.406-.645A4.11,4.11,0,0,1,8.414,4.48a4.235,4.235,0,0,1,1.273,2.8H8.18a3.268,3.268,0,0,0-.848-1.975A2.565,2.565,0,0,0,5.508,4.7,2.684,2.684,0,0,0,3.254,5.759a4.882,4.882,0,0,0-.816,3.026v1.1a5.018,5.018,0,0,0,.773,2.948A2.5,2.5,0,0,0,5.375,13.93a2.887,2.887,0,0,0,1.918-.566,3.143,3.143,0,0,0,.887-1.973Zm1.438-.7a4.993,4.993,0,0,1,.488-2.234A3.643,3.643,0,0,1,12.973,6.93a3.7,3.7,0,0,1,1.988-.539,3.565,3.565,0,0,1,2.793,1.2,4.6,4.6,0,0,1,1.066,3.18v.1a5.036,5.036,0,0,1-.473,2.215A3.589,3.589,0,0,1,17,14.609a3.743,3.743,0,0,1-2.02.547,3.556,3.556,0,0,1-2.785-1.2A4.575,4.575,0,0,1,11.125,10.8Zm1.453.172a3.616,3.616,0,0,0,.652,2.258,2.211,2.211,0,0,0,3.5-.012,3.955,3.955,0,0,0,.648-2.418,3.61,3.61,0,0,0-.66-2.254,2.1,2.1,0,0,0-1.754-.863,2.075,2.075,0,0,0-1.727.852A3.925,3.925,0,0,0,12.578,10.867ZM22,6.547l.047,1.063a3.08,3.08,0,0,1,2.531-1.219q2.68,0,2.7,3.023V15H25.836V9.406a1.946,1.946,0,0,0-.418-1.352,1.675,1.675,0,0,0-1.277-.437,2.086,2.086,0,0,0-1.234.375,2.546,2.546,0,0,0-.828.984V15H20.633V6.547Zm10.852,7.43a2.082,2.082,0,0,0,1.352-.469,1.649,1.649,0,0,0,.641-1.172h1.367a2.621,2.621,0,0,1-.5,1.383,3.293,3.293,0,0,1-1.23,1.047,3.55,3.55,0,0,1-1.629.391A3.482,3.482,0,0,1,30.105,14a4.59,4.59,0,0,1-1.02-3.152v-.242a5.089,5.089,0,0,1,.453-2.2,3.451,3.451,0,0,1,1.3-1.492,3.7,3.7,0,0,1,2-.531,3.39,3.39,0,0,1,2.363.852,3.043,3.043,0,0,1,1,2.211H34.844a1.992,1.992,0,0,0-.621-1.348,1.932,1.932,0,0,0-1.379-.527,2.023,2.023,0,0,0-1.707.793,3.724,3.724,0,0,0-.605,2.293v.273a3.65,3.65,0,0,0,.6,2.25A2.033,2.033,0,0,0,32.852,13.977Zm8.492,1.18a3.693,3.693,0,0,1-2.8-1.129,4.19,4.19,0,0,1-1.078-3.02v-.266a5.073,5.073,0,0,1,.48-2.246,3.748,3.748,0,0,1,1.344-1.547,3.378,3.378,0,0,1,1.871-.559,3.166,3.166,0,0,1,2.563,1.086,4.7,4.7,0,0,1,.914,3.109v.6H38.914a3,3,0,0,0,.73,2.02,2.3,2.3,0,0,0,1.777.77,2.517,2.517,0,0,0,1.3-.312,3.259,3.259,0,0,0,.93-.828l.883.688A3.55,3.55,0,0,1,41.344,15.156Zm-.18-7.578a1.928,1.928,0,0,0-1.469.637A3.1,3.1,0,0,0,38.961,10H43.2V9.891A2.753,2.753,0,0,0,42.6,8.184,1.815,1.815,0,0,0,41.164,7.578Zm9.234.266a4.331,4.331,0,0,0-.711-.055A1.9,1.9,0,0,0,47.758,9v6H46.313V6.547h1.406l.023.977a2.251,2.251,0,0,1,2.016-1.133A1.477,1.477,0,0,1,50.4,6.5ZM54.078,4.5V6.547h1.578V7.664H54.078v5.249a1.173,1.173,0,0,0,.211.763.888.888,0,0,0,.719.254,3.5,3.5,0,0,0,.688-.094V15a4.215,4.215,0,0,1-1.109.155,1.8,1.8,0,0,1-1.461-.586,2.517,2.517,0,0,1-.492-1.664V7.664H51.094V6.547h1.539V4.5ZM62.563,15a3.036,3.036,0,0,1-.2-.891,3.225,3.225,0,0,1-2.406,1.047,2.984,2.984,0,0,1-2.051-.707,2.287,2.287,0,0,1-.8-1.793,2.39,2.39,0,0,1,1-2.051,4.733,4.733,0,0,1,2.824-.73h1.406V9.211A1.623,1.623,0,0,0,61.883,8a1.821,1.821,0,0,0-1.336-.449,2.107,2.107,0,0,0-1.3.391,1.151,1.151,0,0,0-.523.945H57.273a2,2,0,0,1,.449-1.223,3.066,3.066,0,0,1,1.219-.934,4.1,4.1,0,0,1,1.691-.344,3.342,3.342,0,0,1,2.289.73,2.635,2.635,0,0,1,.859,2.012v3.891a4.757,4.757,0,0,0,.3,1.852V15Zm-2.4-1.1a2.54,2.54,0,0,0,1.289-.352,2.127,2.127,0,0,0,.883-.914V10.9H61.2q-2.656,0-2.656,1.555A1.316,1.316,0,0,0,59,13.516,1.742,1.742,0,0,0,60.164,13.9Zm9.969-6.055a4.331,4.331,0,0,0-.711-.055A1.9,1.9,0,0,0,67.492,9v6H66.047V6.547h1.406l.023.977a2.251,2.251,0,0,1,2.016-1.133,1.477,1.477,0,0,1,.641.109ZM75.039,10.7a4.993,4.993,0,0,1,.488-2.234A3.643,3.643,0,0,1,76.887,6.93a3.7,3.7,0,0,1,1.988-.539,3.565,3.565,0,0,1,2.793,1.2,4.6,4.6,0,0,1,1.066,3.18v.1a5.036,5.036,0,0,1-.473,2.215,3.589,3.589,0,0,1-1.352,1.527,3.743,3.743,0,0,1-2.02.547,3.556,3.556,0,0,1-2.785-1.2A4.575,4.575,0,0,1,75.039,10.8Zm1.453.172a3.616,3.616,0,0,0,.652,2.258,2.211,2.211,0,0,0,3.5-.012,3.955,3.955,0,0,0,.648-2.418,3.61,3.61,0,0,0-.66-2.254,2.1,2.1,0,0,0-1.754-.863,2.075,2.075,0,0,0-1.727.852A3.925,3.925,0,0,0,76.492,10.867Zm15.2,0a5.062,5.062,0,0,1-.883,3.109,2.829,2.829,0,0,1-2.391,1.18,3.1,3.1,0,0,1-2.422-.977v4.07H84.547V6.547h1.32l.07.938a2.977,2.977,0,0,1,2.453-1.094A2.882,2.882,0,0,1,90.8,7.539a5.117,5.117,0,0,1,.887,3.2ZM90.242,10.7a3.735,3.735,0,0,0-.609-2.258,1.963,1.963,0,0,0-1.672-.828,2.125,2.125,0,0,0-1.969,1.164V12.82a2.129,2.129,0,0,0,1.984,1.156,1.954,1.954,0,0,0,1.652-.824A4.077,4.077,0,0,0,90.242,10.7Zm6.789,4.453a3.693,3.693,0,0,1-2.8-1.129,4.19,4.19,0,0,1-1.078-3.02v-.266a5.073,5.073,0,0,1,.48-2.246A3.748,3.748,0,0,1,94.98,6.949a3.378,3.378,0,0,1,1.871-.559,3.166,3.166,0,0,1,2.563,1.086,4.7,4.7,0,0,1,.914,3.109v.6H94.6a3,3,0,0,0,.73,2.02,2.3,2.3,0,0,0,1.777.77,2.517,2.517,0,0,0,1.3-.312,3.259,3.259,0,0,0,.93-.828l.883.688A3.55,3.55,0,0,1,97.031,15.156Zm-.18-7.578a1.928,1.928,0,0,0-1.469.637A3.1,3.1,0,0,0,94.648,10h4.234V9.891a2.753,2.753,0,0,0-.594-1.707A1.815,1.815,0,0,0,96.852,7.578Zm9.234.266a4.331,4.331,0,0,0-.711-.055A1.9,1.9,0,0,0,103.445,9v6H102V6.547h1.406l.023.977a2.251,2.251,0,0,1,2.016-1.133,1.477,1.477,0,0,1,.641.109ZM112.32,15a3.036,3.036,0,0,1-.2-.891,3.225,3.225,0,0,1-2.406,1.047,2.984,2.984,0,0,1-2.051-.707,2.288,2.288,0,0,1-.8-1.793,2.39,2.39,0,0,1,1-2.051,4.733,4.733,0,0,1,2.824-.73h1.406V9.211A1.623,1.623,0,0,0,111.641,8a1.821,1.821,0,0,0-1.336-.449,2.108,2.108,0,0,0-1.3.391,1.151,1.151,0,0,0-.523.945h-1.453a2,2,0,0,1,.449-1.223,3.066,3.066,0,0,1,1.219-.934,4.1,4.1,0,0,1,1.691-.344,3.342,3.342,0,0,1,2.289.73,2.635,2.635,0,0,1,.859,2.012v3.891a4.757,4.757,0,0,0,.3,1.852V15Zm-2.4-1.1a2.54,2.54,0,0,0,1.289-.352,2.127,2.127,0,0,0,.883-.914V10.9h-1.133q-2.656,0-2.656,1.555a1.316,1.316,0,0,0,.453,1.063A1.742,1.742,0,0,0,109.922,13.9Zm9.273.078a2.082,2.082,0,0,0,1.352-.469,1.649,1.649,0,0,0,.641-1.172h1.367a2.621,2.621,0,0,1-.5,1.383,3.293,3.293,0,0,1-1.23,1.047,3.55,3.55,0,0,1-1.629.391A3.482,3.482,0,0,1,116.449,14a4.59,4.59,0,0,1-1.02-3.152v-.242a5.089,5.089,0,0,1,.453-2.2,3.451,3.451,0,0,1,1.3-1.492,3.7,3.7,0,0,1,2-.531,3.39,3.39,0,0,1,2.363.852,3.043,3.043,0,0,1,1,2.211h-1.367a1.992,1.992,0,0,0-.621-1.348,1.932,1.932,0,0,0-1.379-.527,2.023,2.023,0,0,0-1.707.793,3.724,3.724,0,0,0-.605,2.293v.273a3.65,3.65,0,0,0,.6,2.25A2.033,2.033,0,0,0,119.2,13.977ZM125.75,15H124.3V6.547h1.445ZM124.188,4.3a.863.863,0,0,1,.215-.594.807.807,0,0,1,.637-.242.819.819,0,0,1,.641.242.854.854,0,0,1,.219.594.826.826,0,0,1-.219.586.834.834,0,0,1-.641.234.821.821,0,0,1-.637-.234A.834.834,0,0,1,124.188,4.3ZM127.68,10.7a4.993,4.993,0,0,1,.488-2.234,3.642,3.642,0,0,1,1.359-1.531,3.7,3.7,0,0,1,1.988-.539,3.565,3.565,0,0,1,2.793,1.2,4.6,4.6,0,0,1,1.066,3.18v.1a5.036,5.036,0,0,1-.473,2.215,3.589,3.589,0,0,1-1.352,1.527,3.743,3.743,0,0,1-2.02.547,3.556,3.556,0,0,1-2.785-1.2A4.575,4.575,0,0,1,127.68,10.8Zm1.453.172a3.616,3.616,0,0,0,.652,2.258,2.211,2.211,0,0,0,3.5-.012,3.954,3.954,0,0,0,.648-2.418,3.61,3.61,0,0,0-.66-2.254,2.1,2.1,0,0,0-1.754-.863,2.075,2.075,0,0,0-1.727.852A3.925,3.925,0,0,0,129.133,10.867Zm9.422-4.32.047,1.063a3.08,3.08,0,0,1,2.531-1.219q2.68,0,2.7,3.023V15h-1.445V9.406a1.946,1.946,0,0,0-.418-1.352,1.675,1.675,0,0,0-1.277-.437,2.086,2.086,0,0,0-1.234.375,2.546,2.546,0,0,0-.828.984V15h-1.445V6.547Zm10.969,8.609a3.693,3.693,0,0,1-2.8-1.129,4.19,4.19,0,0,1-1.078-3.02v-.266a5.073,5.073,0,0,1,.48-2.246,3.748,3.748,0,0,1,1.344-1.547,3.378,3.378,0,0,1,1.871-.559,3.166,3.166,0,0,1,2.563,1.086,4.7,4.7,0,0,1,.914,3.109v.6h-5.727a3,3,0,0,0,.73,2.02,2.3,2.3,0,0,0,1.777.77,2.517,2.517,0,0,0,1.3-.312,3.258,3.258,0,0,0,.93-.828l.883.688A3.55,3.55,0,0,1,149.523,15.156Zm-.18-7.578a1.928,1.928,0,0,0-1.469.637A3.1,3.1,0,0,0,147.141,10h4.234V9.891a2.753,2.753,0,0,0-.594-1.707A1.815,1.815,0,0,0,149.344,7.578Zm10.07,5.18a1.064,1.064,0,0,0-.441-.91,4.249,4.249,0,0,0-1.539-.559,7.277,7.277,0,0,1-1.742-.562,2.479,2.479,0,0,1-.953-.781,1.869,1.869,0,0,1-.309-1.078,2.193,2.193,0,0,1,.879-1.758,3.432,3.432,0,0,1,2.246-.719,3.532,3.532,0,0,1,2.332.742,2.357,2.357,0,0,1,.895,1.9h-1.453a1.3,1.3,0,0,0-.5-1.023,1.888,1.888,0,0,0-1.27-.43,1.976,1.976,0,0,0-1.234.344,1.082,1.082,0,0,0-.445.9.877.877,0,0,0,.414.789,5.1,5.1,0,0,0,1.5.508,7.8,7.8,0,0,1,1.754.578,2.558,2.558,0,0,1,1,.809,1.988,1.988,0,0,1,.324,1.152,2.163,2.163,0,0,1-.906,1.816,3.8,3.8,0,0,1-2.352.684,4.257,4.257,0,0,1-1.8-.359,2.922,2.922,0,0,1-1.223-1,2.42,2.42,0,0,1-.441-1.395h1.445a1.5,1.5,0,0,0,.582,1.152,2.258,2.258,0,0,0,1.434.426,2.331,2.331,0,0,0,1.316-.332A1.02,1.02,0,0,0,159.414,12.758Zm6.938-2.055a4.952,4.952,0,0,1,.922-3.129,3.137,3.137,0,0,1,4.766-.168V3h1.445V15h-1.328l-.07-.906a2.943,2.943,0,0,1-2.414,1.063,2.887,2.887,0,0,1-2.395-1.2,5.008,5.008,0,0,1-.926-3.141Zm1.445.164a3.749,3.749,0,0,0,.594,2.25,1.919,1.919,0,0,0,1.641.813,2.108,2.108,0,0,0,2.008-1.234V8.813a2.125,2.125,0,0,0-1.992-1.2,1.929,1.929,0,0,0-1.656.82A4.128,4.128,0,0,0,167.8,10.867Zm11.438,4.289a3.693,3.693,0,0,1-2.8-1.129,4.19,4.19,0,0,1-1.078-3.02v-.266a5.073,5.073,0,0,1,.48-2.246,3.748,3.748,0,0,1,1.344-1.547,3.378,3.378,0,0,1,1.871-.559,3.166,3.166,0,0,1,2.563,1.086,4.7,4.7,0,0,1,.914,3.109v.6H176.8a3,3,0,0,0,.73,2.02,2.3,2.3,0,0,0,1.777.77,2.517,2.517,0,0,0,1.3-.312,3.258,3.258,0,0,0,.93-.828l.883.688A3.55,3.55,0,0,1,179.234,15.156Zm-.18-7.578a1.928,1.928,0,0,0-1.469.637A3.1,3.1,0,0,0,176.852,10h4.234V9.891a2.753,2.753,0,0,0-.594-1.707A1.815,1.815,0,0,0,179.055,7.578ZM6.313,39a3.036,3.036,0,0,1-.2-.891A3.225,3.225,0,0,1,3.7,39.156a2.984,2.984,0,0,1-2.051-.707,2.287,2.287,0,0,1-.8-1.793,2.39,2.39,0,0,1,1-2.051,4.733,4.733,0,0,1,2.824-.73H6.086v-.664A1.623,1.623,0,0,0,5.633,32,1.821,1.821,0,0,0,4.3,31.555a2.108,2.108,0,0,0-1.3.391,1.151,1.151,0,0,0-.523.945H1.023a2,2,0,0,1,.449-1.223,3.066,3.066,0,0,1,1.219-.934,4.1,4.1,0,0,1,1.691-.344,3.342,3.342,0,0,1,2.289.73,2.635,2.635,0,0,1,.859,2.012v3.891a4.757,4.757,0,0,0,.3,1.852V39Zm-2.4-1.1A2.54,2.54,0,0,0,5.2,37.547a2.127,2.127,0,0,0,.883-.914V34.9H4.953Q2.3,34.9,2.3,36.453a1.316,1.316,0,0,0,.453,1.063A1.742,1.742,0,0,0,3.914,37.9Zm9.273.078a2.082,2.082,0,0,0,1.352-.469,1.649,1.649,0,0,0,.641-1.172h1.367a2.621,2.621,0,0,1-.5,1.383,3.293,3.293,0,0,1-1.23,1.047,3.55,3.55,0,0,1-1.629.391A3.482,3.482,0,0,1,10.441,38a4.59,4.59,0,0,1-1.02-3.152v-.242a5.089,5.089,0,0,1,.453-2.2,3.451,3.451,0,0,1,1.3-1.492,3.7,3.7,0,0,1,2-.531,3.39,3.39,0,0,1,2.363.852,3.043,3.043,0,0,1,1,2.211H15.18a1.992,1.992,0,0,0-.621-1.348,1.932,1.932,0,0,0-1.379-.527,2.023,2.023,0,0,0-1.707.793,3.724,3.724,0,0,0-.605,2.293v.273a3.65,3.65,0,0,0,.6,2.25A2.033,2.033,0,0,0,13.188,37.977ZM20.133,28.5v2.047h1.578v1.117H20.133v5.249a1.173,1.173,0,0,0,.211.763.888.888,0,0,0,.719.254,3.5,3.5,0,0,0,.688-.094V39a4.215,4.215,0,0,1-1.109.155,1.8,1.8,0,0,1-1.461-.586,2.517,2.517,0,0,1-.492-1.664V31.664H17.148V30.547h1.539V28.5ZM24.969,39H23.523V30.547h1.445ZM23.406,28.3a.863.863,0,0,1,.215-.594.807.807,0,0,1,.637-.242.819.819,0,0,1,.641.242.854.854,0,0,1,.219.594.826.826,0,0,1-.219.586.834.834,0,0,1-.641.234.821.821,0,0,1-.637-.234A.834.834,0,0,1,23.406,28.3Zm6.664,8.734,2.094-6.492h1.477L30.609,39h-1.1l-3.062-8.453h1.477ZM34.531,34.7a4.993,4.993,0,0,1,.488-2.234,3.643,3.643,0,0,1,1.359-1.531,3.7,3.7,0,0,1,1.988-.539,3.565,3.565,0,0,1,2.793,1.2,4.6,4.6,0,0,1,1.066,3.18v.1a5.036,5.036,0,0,1-.473,2.215A3.589,3.589,0,0,1,40.4,38.609a3.743,3.743,0,0,1-2.02.547,3.556,3.556,0,0,1-2.785-1.2A4.575,4.575,0,0,1,34.531,34.8Zm1.453.172a3.616,3.616,0,0,0,.652,2.258,2.211,2.211,0,0,0,3.5-.012,3.955,3.955,0,0,0,.648-2.418,3.61,3.61,0,0,0-.66-2.254,2.1,2.1,0,0,0-1.754-.863,2.075,2.075,0,0,0-1.727.852A3.925,3.925,0,0,0,35.984,34.867Zm12.977,1.891a1.064,1.064,0,0,0-.441-.91,4.249,4.249,0,0,0-1.539-.559,7.277,7.277,0,0,1-1.742-.562,2.479,2.479,0,0,1-.953-.781,1.869,1.869,0,0,1-.309-1.078,2.193,2.193,0,0,1,.879-1.758,3.432,3.432,0,0,1,2.246-.719,3.532,3.532,0,0,1,2.332.742,2.357,2.357,0,0,1,.895,1.9H48.875a1.3,1.3,0,0,0-.5-1.023,1.888,1.888,0,0,0-1.27-.43,1.976,1.976,0,0,0-1.234.344,1.082,1.082,0,0,0-.445.9.877.877,0,0,0,.414.789,5.1,5.1,0,0,0,1.5.508,7.8,7.8,0,0,1,1.754.578,2.558,2.558,0,0,1,1,.809,1.988,1.988,0,0,1,.324,1.152,2.163,2.163,0,0,1-.906,1.816,3.8,3.8,0,0,1-2.352.684,4.257,4.257,0,0,1-1.8-.359,2.922,2.922,0,0,1-1.223-1,2.42,2.42,0,0,1-.441-1.395h1.445a1.5,1.5,0,0,0,.582,1.152,2.258,2.258,0,0,0,1.434.426,2.331,2.331,0,0,0,1.316-.332A1.02,1.02,0,0,0,48.961,36.758ZM55.9,34.7a4.961,4.961,0,0,1,.914-3.152,3.226,3.226,0,0,1,4.82-.152l.063-.852h1.328v11.7H61.578V38.219a3.033,3.033,0,0,1-2.328.938,2.915,2.915,0,0,1-2.441-1.191,5.072,5.072,0,0,1-.91-3.16Zm1.445.164a3.761,3.761,0,0,0,.613,2.281,1.951,1.951,0,0,0,1.652.828,2.164,2.164,0,0,0,1.969-1.141V32.7a2.171,2.171,0,0,0-1.953-1.117,1.965,1.965,0,0,0-1.664.832A4.094,4.094,0,0,0,57.344,34.867Zm13.219,3.3a3.07,3.07,0,0,1-2.477.992,2.628,2.628,0,0,1-2.059-.785,3.4,3.4,0,0,1-.715-2.324v-5.5h1.445v5.461q0,1.922,1.563,1.922a2.163,2.163,0,0,0,2.2-1.234V30.547h1.445V39H70.594Zm7.109.992a3.693,3.693,0,0,1-2.8-1.129,4.19,4.19,0,0,1-1.078-3.02v-.266a5.073,5.073,0,0,1,.48-2.246,3.748,3.748,0,0,1,1.344-1.547,3.378,3.378,0,0,1,1.871-.559,3.166,3.166,0,0,1,2.563,1.086,4.7,4.7,0,0,1,.914,3.109v.6H75.242a3,3,0,0,0,.73,2.02,2.3,2.3,0,0,0,1.777.77,2.517,2.517,0,0,0,1.3-.312,3.259,3.259,0,0,0,.93-.828l.883.688A3.55,3.55,0,0,1,77.672,39.156Zm-.18-7.578a1.928,1.928,0,0,0-1.469.637A3.1,3.1,0,0,0,75.289,34h4.234v-.109a2.753,2.753,0,0,0-.594-1.707A1.815,1.815,0,0,0,77.492,31.578Zm13.2.266a4.331,4.331,0,0,0-.711-.055A1.9,1.9,0,0,0,88.047,33v6H86.6V30.547h1.406l.023.977a2.251,2.251,0,0,1,2.016-1.133,1.477,1.477,0,0,1,.641.109Zm4.688,7.313a3.693,3.693,0,0,1-2.8-1.129,4.19,4.19,0,0,1-1.078-3.02v-.266a5.073,5.073,0,0,1,.48-2.246,3.748,3.748,0,0,1,1.344-1.547,3.378,3.378,0,0,1,1.871-.559,3.166,3.166,0,0,1,2.563,1.086,4.7,4.7,0,0,1,.914,3.109v.6H92.945a3,3,0,0,0,.73,2.02,2.3,2.3,0,0,0,1.777.77,2.517,2.517,0,0,0,1.3-.312,3.259,3.259,0,0,0,.93-.828l.883.688A3.55,3.55,0,0,1,95.375,39.156Zm-.18-7.578a1.928,1.928,0,0,0-1.469.637A3.1,3.1,0,0,0,92.992,34h4.234v-.109a2.753,2.753,0,0,0-.594-1.707A1.815,1.815,0,0,0,95.2,31.578Zm6.516-1.031.047,1.063a3.08,3.08,0,0,1,2.531-1.219q2.68,0,2.7,3.023V39h-1.445V33.406a1.946,1.946,0,0,0-.418-1.352,1.675,1.675,0,0,0-1.277-.437,2.086,2.086,0,0,0-1.234.375,2.546,2.546,0,0,0-.828.984V39h-1.445V30.547Zm9.422-2.047v2.047h1.578v1.117h-1.578v5.249a1.173,1.173,0,0,0,.211.763.888.888,0,0,0,.719.254,3.5,3.5,0,0,0,.688-.094V39a4.215,4.215,0,0,1-1.109.155,1.8,1.8,0,0,1-1.461-.586,2.517,2.517,0,0,1-.492-1.664V31.664h-1.539V30.547h1.539V28.5ZM119.617,39a3.036,3.036,0,0,1-.2-.891,3.225,3.225,0,0,1-2.406,1.047,2.984,2.984,0,0,1-2.051-.707,2.288,2.288,0,0,1-.8-1.793,2.39,2.39,0,0,1,1-2.051,4.733,4.733,0,0,1,2.824-.73h1.406v-.664A1.623,1.623,0,0,0,118.938,32a1.821,1.821,0,0,0-1.336-.449,2.108,2.108,0,0,0-1.3.391,1.151,1.151,0,0,0-.523.945h-1.453a2,2,0,0,1,.449-1.223A3.066,3.066,0,0,1,116,30.734a4.1,4.1,0,0,1,1.691-.344,3.342,3.342,0,0,1,2.289.73,2.635,2.635,0,0,1,.859,2.012v3.891a4.757,4.757,0,0,0,.3,1.852V39Zm-2.4-1.1a2.54,2.54,0,0,0,1.289-.352,2.127,2.127,0,0,0,.883-.914V34.9h-1.133q-2.656,0-2.656,1.555a1.316,1.316,0,0,0,.453,1.063A1.742,1.742,0,0,0,117.219,37.9Zm13.039-3.031a5.026,5.026,0,0,1-.891,3.113,2.846,2.846,0,0,1-2.391,1.176,2.947,2.947,0,0,1-2.477-1.133l-.07.977H123.1V27h1.445v4.477a2.93,2.93,0,0,1,2.414-1.086,2.863,2.863,0,0,1,2.418,1.164,5.177,5.177,0,0,1,.879,3.188Zm-1.445-.164a3.906,3.906,0,0,0-.57-2.281,1.888,1.888,0,0,0-1.641-.8,2.122,2.122,0,0,0-2.055,1.328V36.6a2.181,2.181,0,0,0,2.07,1.328,1.878,1.878,0,0,0,1.617-.8A4.153,4.153,0,0,0,128.813,34.7Zm4.836,4.3H132.2V30.547h1.445Zm-1.562-10.7a.863.863,0,0,1,.215-.594.807.807,0,0,1,.637-.242.819.819,0,0,1,.641.242.854.854,0,0,1,.219.594.826.826,0,0,1-.219.586.834.834,0,0,1-.641.234.821.821,0,0,1-.637-.234A.834.834,0,0,1,132.086,28.3ZM137.531,39h-1.445V27h1.445Zm3.883,0h-1.445V30.547h1.445Zm-1.562-10.7a.863.863,0,0,1,.215-.594.807.807,0,0,1,.637-.242.819.819,0,0,1,.641.242.854.854,0,0,1,.219.594.826.826,0,0,1-.219.586.834.834,0,0,1-.641.234.821.821,0,0,1-.637-.234A.834.834,0,0,1,139.852,28.3Zm7.266,9.672a2.082,2.082,0,0,0,1.352-.469,1.649,1.649,0,0,0,.641-1.172h1.367a2.621,2.621,0,0,1-.5,1.383,3.293,3.293,0,0,1-1.23,1.047,3.55,3.55,0,0,1-1.629.391A3.482,3.482,0,0,1,144.371,38a4.59,4.59,0,0,1-1.02-3.152v-.242a5.089,5.089,0,0,1,.453-2.2,3.451,3.451,0,0,1,1.3-1.492,3.7,3.7,0,0,1,2-.531,3.39,3.39,0,0,1,2.363.852,3.043,3.043,0,0,1,1,2.211h-1.367a1.992,1.992,0,0,0-.621-1.348,1.932,1.932,0,0,0-1.379-.527,2.023,2.023,0,0,0-1.707.793,3.724,3.724,0,0,0-.605,2.293v.273a3.65,3.65,0,0,0,.6,2.25A2.033,2.033,0,0,0,147.117,37.977Zm8.492,1.18a3.693,3.693,0,0,1-2.8-1.129,4.19,4.19,0,0,1-1.078-3.02v-.266a5.073,5.073,0,0,1,.48-2.246,3.748,3.748,0,0,1,1.344-1.547,3.378,3.378,0,0,1,1.871-.559,3.166,3.166,0,0,1,2.563,1.086,4.7,4.7,0,0,1,.914,3.109v.6H153.18a3,3,0,0,0,.73,2.02,2.3,2.3,0,0,0,1.777.77,2.517,2.517,0,0,0,1.3-.312,3.258,3.258,0,0,0,.93-.828l.883.688A3.55,3.55,0,0,1,155.609,39.156Zm-.18-7.578a1.928,1.928,0,0,0-1.469.637A3.1,3.1,0,0,0,153.227,34h4.234v-.109a2.753,2.753,0,0,0-.594-1.707A1.815,1.815,0,0,0,155.43,31.578Zm6.516-1.031.047,1.063a3.08,3.08,0,0,1,2.531-1.219q2.68,0,2.7,3.023V39h-1.445V33.406a1.946,1.946,0,0,0-.418-1.352,1.675,1.675,0,0,0-1.277-.437,2.086,2.086,0,0,0-1.234.375,2.546,2.546,0,0,0-.828.984V39h-1.445V30.547ZM174.938,39h-1.445V27h1.445Zm1.93-4.3a4.993,4.993,0,0,1,.488-2.234,3.642,3.642,0,0,1,1.359-1.531,3.7,3.7,0,0,1,1.988-.539,3.565,3.565,0,0,1,2.793,1.2,4.6,4.6,0,0,1,1.066,3.18v.1a5.036,5.036,0,0,1-.473,2.215,3.589,3.589,0,0,1-1.352,1.527,3.743,3.743,0,0,1-2.02.547,3.556,3.556,0,0,1-2.785-1.2,4.575,4.575,0,0,1-1.066-3.164Zm1.453.172a3.616,3.616,0,0,0,.652,2.258,2.211,2.211,0,0,0,3.5-.012,3.954,3.954,0,0,0,.648-2.418,3.61,3.61,0,0,0-.66-2.254,2.1,2.1,0,0,0-1.754-.863,2.075,2.075,0,0,0-1.727.852A3.925,3.925,0,0,0,178.32,34.867ZM191.3,36.758a1.064,1.064,0,0,0-.441-.91,4.249,4.249,0,0,0-1.539-.559,7.277,7.277,0,0,1-1.742-.562,2.479,2.479,0,0,1-.953-.781,1.869,1.869,0,0,1-.309-1.078,2.193,2.193,0,0,1,.879-1.758,3.432,3.432,0,0,1,2.246-.719,3.532,3.532,0,0,1,2.332.742,2.357,2.357,0,0,1,.895,1.9h-1.453a1.3,1.3,0,0,0-.5-1.023,1.888,1.888,0,0,0-1.27-.43,1.976,1.976,0,0,0-1.234.344,1.082,1.082,0,0,0-.445.9.877.877,0,0,0,.414.789,5.1,5.1,0,0,0,1.5.508,7.8,7.8,0,0,1,1.754.578,2.558,2.558,0,0,1,1,.809,1.988,1.988,0,0,1,.324,1.152,2.163,2.163,0,0,1-.906,1.816,3.8,3.8,0,0,1-2.352.684,4.257,4.257,0,0,1-1.8-.359,2.922,2.922,0,0,1-1.223-1,2.42,2.42,0,0,1-.441-1.395h1.445a1.5,1.5,0,0,0,.582,1.152,2.258,2.258,0,0,0,1.434.426,2.331,2.331,0,0,0,1.316-.332A1.02,1.02,0,0,0,191.3,36.758ZM5.18,55.844a4.331,4.331,0,0,0-.711-.055A1.9,1.9,0,0,0,2.539,57v6H1.094V54.547H2.5l.023.977a2.251,2.251,0,0,1,2.016-1.133,1.477,1.477,0,0,1,.641.109Zm4.688,7.313a3.693,3.693,0,0,1-2.8-1.129,4.19,4.19,0,0,1-1.078-3.02v-.266a5.073,5.073,0,0,1,.48-2.246,3.748,3.748,0,0,1,1.344-1.547,3.378,3.378,0,0,1,1.871-.559,3.166,3.166,0,0,1,2.563,1.086,4.7,4.7,0,0,1,.914,3.109v.6H7.438a3,3,0,0,0,.73,2.02,2.3,2.3,0,0,0,1.777.77,2.517,2.517,0,0,0,1.3-.312,3.258,3.258,0,0,0,.93-.828l.883.688A3.55,3.55,0,0,1,9.867,63.156Zm-.18-7.578a1.928,1.928,0,0,0-1.469.637A3.1,3.1,0,0,0,7.484,58h4.234v-.109a2.753,2.753,0,0,0-.594-1.707A1.815,1.815,0,0,0,9.688,55.578Zm8.539,6.4a2.082,2.082,0,0,0,1.352-.469,1.649,1.649,0,0,0,.641-1.172h1.367a2.621,2.621,0,0,1-.5,1.383,3.293,3.293,0,0,1-1.23,1.047,3.55,3.55,0,0,1-1.629.391A3.482,3.482,0,0,1,15.48,62a4.59,4.59,0,0,1-1.02-3.152v-.242a5.089,5.089,0,0,1,.453-2.2,3.451,3.451,0,0,1,1.3-1.492,3.7,3.7,0,0,1,2-.531,3.39,3.39,0,0,1,2.363.852,3.043,3.043,0,0,1,1,2.211H20.219a1.992,1.992,0,0,0-.621-1.348,1.932,1.932,0,0,0-1.379-.527,2.023,2.023,0,0,0-1.707.793,3.724,3.724,0,0,0-.605,2.293v.273a3.65,3.65,0,0,0,.6,2.25A2.033,2.033,0,0,0,18.227,61.977Zm10.2.188a3.07,3.07,0,0,1-2.477.992,2.628,2.628,0,0,1-2.059-.785,3.4,3.4,0,0,1-.715-2.324v-5.5h1.445v5.461q0,1.922,1.563,1.922a2.163,2.163,0,0,0,2.2-1.234V54.547h1.445V63H28.461Zm7.688-6.32a4.331,4.331,0,0,0-.711-.055A1.9,1.9,0,0,0,33.477,57v6H32.031V54.547h1.406l.023.977a2.251,2.251,0,0,1,2.016-1.133,1.477,1.477,0,0,1,.641.109Zm6.25,4.914a1.064,1.064,0,0,0-.441-.91,4.249,4.249,0,0,0-1.539-.559,7.277,7.277,0,0,1-1.742-.562,2.479,2.479,0,0,1-.953-.781,1.869,1.869,0,0,1-.309-1.078,2.193,2.193,0,0,1,.879-1.758,3.432,3.432,0,0,1,2.246-.719,3.532,3.532,0,0,1,2.332.742,2.357,2.357,0,0,1,.895,1.9H42.281a1.3,1.3,0,0,0-.5-1.023,1.888,1.888,0,0,0-1.27-.43,1.976,1.976,0,0,0-1.234.344,1.082,1.082,0,0,0-.445.9.877.877,0,0,0,.414.789,5.1,5.1,0,0,0,1.5.508,7.8,7.8,0,0,1,1.754.578,2.558,2.558,0,0,1,1,.809,1.988,1.988,0,0,1,.324,1.152,2.163,2.163,0,0,1-.906,1.816,3.8,3.8,0,0,1-2.352.684,4.257,4.257,0,0,1-1.8-.359,2.922,2.922,0,0,1-1.223-1,2.42,2.42,0,0,1-.441-1.395h1.445a1.5,1.5,0,0,0,.582,1.152,2.258,2.258,0,0,0,1.434.426,2.331,2.331,0,0,0,1.316-.332A1.02,1.02,0,0,0,42.367,60.758ZM45.313,58.7a4.993,4.993,0,0,1,.488-2.234A3.643,3.643,0,0,1,47.16,54.93a3.7,3.7,0,0,1,1.988-.539,3.565,3.565,0,0,1,2.793,1.2,4.6,4.6,0,0,1,1.066,3.18v.1a5.036,5.036,0,0,1-.473,2.215,3.589,3.589,0,0,1-1.352,1.527,3.743,3.743,0,0,1-2.02.547,3.556,3.556,0,0,1-2.785-1.2A4.575,4.575,0,0,1,45.313,58.8Zm1.453.172a3.616,3.616,0,0,0,.652,2.258,2.211,2.211,0,0,0,3.5-.012,3.955,3.955,0,0,0,.648-2.418,3.61,3.61,0,0,0-.66-2.254,2.1,2.1,0,0,0-1.754-.863,2.075,2.075,0,0,0-1.727.852A3.925,3.925,0,0,0,46.766,58.867Zm12.977,1.891a1.064,1.064,0,0,0-.441-.91,4.249,4.249,0,0,0-1.539-.559,7.277,7.277,0,0,1-1.742-.562,2.479,2.479,0,0,1-.953-.781,1.869,1.869,0,0,1-.309-1.078,2.193,2.193,0,0,1,.879-1.758,3.432,3.432,0,0,1,2.246-.719,3.532,3.532,0,0,1,2.332.742,2.357,2.357,0,0,1,.895,1.9H59.656a1.3,1.3,0,0,0-.5-1.023,1.888,1.888,0,0,0-1.27-.43,1.976,1.976,0,0,0-1.234.344,1.082,1.082,0,0,0-.445.9.877.877,0,0,0,.414.789,5.1,5.1,0,0,0,1.5.508,7.8,7.8,0,0,1,1.754.578,2.558,2.558,0,0,1,1,.809,1.988,1.988,0,0,1,.324,1.152,2.163,2.163,0,0,1-.906,1.816,3.8,3.8,0,0,1-2.352.684,4.257,4.257,0,0,1-1.8-.359,2.922,2.922,0,0,1-1.223-1,2.42,2.42,0,0,1-.441-1.395h1.445a1.5,1.5,0,0,0,.582,1.152,2.258,2.258,0,0,0,1.434.426,2.331,2.331,0,0,0,1.316-.332A1.02,1.02,0,0,0,59.742,60.758Zm10.68,1.219a2.082,2.082,0,0,0,1.352-.469,1.649,1.649,0,0,0,.641-1.172h1.367a2.621,2.621,0,0,1-.5,1.383,3.293,3.293,0,0,1-1.23,1.047,3.55,3.55,0,0,1-1.629.391A3.482,3.482,0,0,1,67.676,62a4.59,4.59,0,0,1-1.02-3.152v-.242a5.089,5.089,0,0,1,.453-2.2,3.451,3.451,0,0,1,1.3-1.492,3.7,3.7,0,0,1,2-.531,3.39,3.39,0,0,1,2.363.852,3.043,3.043,0,0,1,1,2.211H72.414a1.992,1.992,0,0,0-.621-1.348,1.932,1.932,0,0,0-1.379-.527,2.023,2.023,0,0,0-1.707.793,3.724,3.724,0,0,0-.605,2.293v.273a3.65,3.65,0,0,0,.6,2.25A2.033,2.033,0,0,0,70.422,61.977ZM80.625,63a3.036,3.036,0,0,1-.2-.891,3.225,3.225,0,0,1-2.406,1.047,2.984,2.984,0,0,1-2.051-.707,2.288,2.288,0,0,1-.8-1.793,2.39,2.39,0,0,1,1-2.051,4.733,4.733,0,0,1,2.824-.73H80.4v-.664A1.623,1.623,0,0,0,79.945,56a1.821,1.821,0,0,0-1.336-.449,2.107,2.107,0,0,0-1.3.391,1.151,1.151,0,0,0-.523.945H75.336a2,2,0,0,1,.449-1.223A3.066,3.066,0,0,1,77,54.734a4.1,4.1,0,0,1,1.691-.344,3.342,3.342,0,0,1,2.289.73,2.635,2.635,0,0,1,.859,2.012v3.891a4.757,4.757,0,0,0,.3,1.852V63Zm-2.4-1.1a2.54,2.54,0,0,0,1.289-.352,2.127,2.127,0,0,0,.883-.914V58.9H79.266q-2.656,0-2.656,1.555a1.316,1.316,0,0,0,.453,1.063A1.742,1.742,0,0,0,78.227,61.9ZM91.25,58.867a5.062,5.062,0,0,1-.883,3.109,2.829,2.829,0,0,1-2.391,1.18,3.1,3.1,0,0,1-2.422-.977v4.07H84.109v-11.7h1.32l.07.938a2.977,2.977,0,0,1,2.453-1.094,2.882,2.882,0,0,1,2.41,1.148,5.117,5.117,0,0,1,.887,3.2ZM89.8,58.7a3.735,3.735,0,0,0-.609-2.258,1.963,1.963,0,0,0-1.672-.828,2.125,2.125,0,0,0-1.969,1.164V60.82a2.129,2.129,0,0,0,1.984,1.156,1.954,1.954,0,0,0,1.652-.824A4.077,4.077,0,0,0,89.8,58.7Zm5.242-6.2v2.047h1.578v1.117H95.047v5.249a1.173,1.173,0,0,0,.211.763.888.888,0,0,0,.719.254,3.5,3.5,0,0,0,.688-.094V63a4.215,4.215,0,0,1-1.109.155,1.8,1.8,0,0,1-1.461-.586,2.517,2.517,0,0,1-.492-1.664V55.664H92.063V54.547H93.6V52.5ZM103.531,63a3.036,3.036,0,0,1-.2-.891,3.225,3.225,0,0,1-2.406,1.047,2.984,2.984,0,0,1-2.051-.707,2.288,2.288,0,0,1-.8-1.793,2.39,2.39,0,0,1,1-2.051,4.733,4.733,0,0,1,2.824-.73H103.3v-.664A1.623,1.623,0,0,0,102.852,56a1.821,1.821,0,0,0-1.336-.449,2.107,2.107,0,0,0-1.3.391,1.151,1.151,0,0,0-.523.945H98.242a2,2,0,0,1,.449-1.223,3.066,3.066,0,0,1,1.219-.934,4.1,4.1,0,0,1,1.691-.344,3.342,3.342,0,0,1,2.289.73,2.635,2.635,0,0,1,.859,2.012v3.891a4.757,4.757,0,0,0,.3,1.852V63Zm-2.4-1.1a2.54,2.54,0,0,0,1.289-.352,2.127,2.127,0,0,0,.883-.914V58.9h-1.133q-2.656,0-2.656,1.555a1.316,1.316,0,0,0,.453,1.063A1.742,1.742,0,0,0,101.133,61.9Zm5.531-3.2a4.952,4.952,0,0,1,.922-3.129,3.137,3.137,0,0,1,4.766-.168V51H113.8V63h-1.328l-.07-.906a2.943,2.943,0,0,1-2.414,1.063,2.887,2.887,0,0,1-2.395-1.2,5.008,5.008,0,0,1-.926-3.141Zm1.445.164a3.749,3.749,0,0,0,.594,2.25,1.92,1.92,0,0,0,1.641.813,2.108,2.108,0,0,0,2.008-1.234V56.813a2.125,2.125,0,0,0-1.992-1.2,1.929,1.929,0,0,0-1.656.82A4.128,4.128,0,0,0,108.109,58.867Zm7.547-.172a4.993,4.993,0,0,1,.488-2.234A3.643,3.643,0,0,1,117.5,54.93a3.7,3.7,0,0,1,1.988-.539,3.565,3.565,0,0,1,2.793,1.2,4.6,4.6,0,0,1,1.066,3.18v.1a5.036,5.036,0,0,1-.473,2.215,3.589,3.589,0,0,1-1.352,1.527,3.743,3.743,0,0,1-2.02.547,3.556,3.556,0,0,1-2.785-1.2,4.575,4.575,0,0,1-1.066-3.164Zm1.453.172a3.616,3.616,0,0,0,.652,2.258,2.211,2.211,0,0,0,3.5-.012,3.955,3.955,0,0,0,.648-2.418,3.61,3.61,0,0,0-.66-2.254,2.1,2.1,0,0,0-1.754-.863,2.075,2.075,0,0,0-1.727.852A3.925,3.925,0,0,0,117.109,58.867Zm12.977,1.891a1.064,1.064,0,0,0-.441-.91,4.249,4.249,0,0,0-1.539-.559,7.277,7.277,0,0,1-1.742-.562,2.479,2.479,0,0,1-.953-.781,1.869,1.869,0,0,1-.309-1.078,2.193,2.193,0,0,1,.879-1.758,3.432,3.432,0,0,1,2.246-.719,3.532,3.532,0,0,1,2.332.742,2.357,2.357,0,0,1,.895,1.9H130a1.3,1.3,0,0,0-.5-1.023,1.888,1.888,0,0,0-1.27-.43,1.976,1.976,0,0,0-1.234.344,1.082,1.082,0,0,0-.445.9.877.877,0,0,0,.414.789,5.1,5.1,0,0,0,1.5.508,7.8,7.8,0,0,1,1.754.578,2.558,2.558,0,0,1,1,.809,1.988,1.988,0,0,1,.324,1.152,2.163,2.163,0,0,1-.906,1.816,3.8,3.8,0,0,1-2.352.684,4.257,4.257,0,0,1-1.8-.359,2.922,2.922,0,0,1-1.223-1,2.42,2.42,0,0,1-.441-1.395h1.445a1.5,1.5,0,0,0,.582,1.152,2.258,2.258,0,0,0,1.434.426,2.331,2.331,0,0,0,1.316-.332A1.02,1.02,0,0,0,130.086,60.758Zm3.359,1.484a.905.905,0,0,1,.223-.625.848.848,0,0,1,.668-.25.874.874,0,0,1,.676.25.887.887,0,0,1,.23.625.839.839,0,0,1-.23.6.89.89,0,0,1-.676.242.8.8,0,0,1-.891-.844Z" transform="translate(1047 2749.453)" fill="#12263f"/>
      <g id="Grupo_1073279" data-name="Grupo 1073279" transform="translate(1115.112 2644.796)">
        <g id="Grupo_1073278" data-name="Grupo 1073278" clip-path="url(#clip-path-2)">
          <path id="Trazado_610851" data-name="Trazado 610851" d="M28.152,203.71c0,2.27-.017,4.539.009,6.808a1.7,1.7,0,0,1-1.162,1.8c-1.675.682-3.328,1.415-4.99,2.126l-5.865,2.512c-.479.2-.961.4-1.439.611a1.623,1.623,0,0,1-1.359-.04Q10.068,216.1,6.782,214.7q-2.728-1.168-5.462-2.321C.2,211.906,0,211.616,0,210.4V196.913c0-.1,0-.192,0-.288a1.437,1.437,0,0,1,.929-1.457c.8-.328,1.584-.679,2.376-1.018l5.749-2.461c1.379-.59,2.765-1.164,4.131-1.783a2.065,2.065,0,0,1,1.8,0c3.56,1.548,7.131,3.074,10.7,4.607.518.222,1.031.457,1.554.666a1.435,1.435,0,0,1,.912,1.5q0,3.516,0,7.032M12.776,214.559a.992.992,0,0,0,.018-.121q0-5.784.005-11.568a.28.28,0,0,0-.21-.3c-.931-.392-1.856-.8-2.784-1.2q-3.458-1.488-6.915-2.976c-.332-.143-.329-.153-.329.22,0,3.643.008,7.286-.011,10.929a.763.763,0,0,0,.553.873c3.226,1.347,6.431,2.745,9.672,4.139m2.581.03c.278-.128.505-.238.738-.338q4.618-1.983,9.241-3.954a.374.374,0,0,0,.259-.427q-.007-5.626,0-11.251a.573.573,0,0,0-.04-.33c-.3.134-.6.272-.895.4q-2.316.993-4.634,1.983c-1.457.623-2.911,1.254-4.374,1.863a.39.39,0,0,0-.3.431q.013,5.642.006,11.284v.339m-1.2-22.3a1.161,1.161,0,0,0-.476.116c-.222.1-.44.214-.664.31q-1.877.8-3.755,1.6l-4.579,1.944c-.053.023-.145,0-.14.092,0,.067.071.1.131.128.266.107.536.205.8.318,2.61,1.119,5.228,2.217,7.82,3.376a1.733,1.733,0,0,0,1.6,0c1.985-.9,4-1.737,6.006-2.587.822-.348,1.623-.747,2.469-1.039.083-.029.227.006.238-.117s-.132-.149-.225-.189c-.8-.345-1.6-.683-2.4-1.029q-3.249-1.406-6.5-2.815c-.116-.05-.24-.081-.318-.107" transform="translate(0 -141.039)" fill="#fff"/>
          <path id="Trazado_610852" data-name="Trazado 610852" d="M117.646,96.564c-.034.119-.079.282-.127.444-.134.448-.263.9-.407,1.343a.42.42,0,0,0,.047.334,15.661,15.661,0,0,1,1,2.482.311.311,0,0,0,.189.2c.372.184.745.365,1.114.555a1.553,1.553,0,0,1,.911,1.217,12.157,12.157,0,0,1-.052,4.069,1.35,1.35,0,0,1-.792.909c-.373.2-.761.382-1.141.573-.1.051-.2.086-.241.228a13.315,13.315,0,0,1-.982,2.42.576.576,0,0,0-.037.484c.168.493.3,1,.467,1.49a.964.964,0,0,1-.163.816,5.943,5.943,0,0,1-.933,1.173,17.191,17.191,0,0,1-1.912,1.789,1.4,1.4,0,0,1-1.544.234,11.071,11.071,0,0,0-1.186-.372.392.392,0,0,0-.306.04A16.29,16.29,0,0,1,109.078,118a.346.346,0,0,0-.235.193q-.269.56-.549,1.116a1.552,1.552,0,0,1-1.218.91,12.07,12.07,0,0,1-4.008-.036,1.262,1.262,0,0,1-.907-.694c-.225-.41-.43-.831-.638-1.25-.053-.107-.091-.2-.228-.238a13.415,13.415,0,0,1-2.364-.955.729.729,0,0,0-.632-.039c-.448.166-.912.287-1.371.424a1.011,1.011,0,0,1-.8-.112,6.315,6.315,0,0,1-1.227-.966,15.882,15.882,0,0,1-1.749-1.862,1.389,1.389,0,0,1-.287-1.56,10.543,10.543,0,0,0,.372-1.186.451.451,0,0,0-.033-.366,14.091,14.091,0,0,1-1.021-2.507.225.225,0,0,0-.139-.156c-.373-.181-.743-.369-1.116-.549a1.529,1.529,0,0,1-.948-1.222,11.708,11.708,0,0,1,.023-3.972,1.4,1.4,0,0,1,.793-1.016,4.57,4.57,0,0,0,1.281-.692,4.453,4.453,0,0,0,.533-1.306c.176-.422.377-.833.573-1.246a.563.563,0,0,0,.034-.457c-.154-.453-.275-.917-.428-1.37a1.074,1.074,0,0,1,.1-.947,8.15,8.15,0,0,1,1.072-1.307,15.3,15.3,0,0,1,1.777-1.653,1.343,1.343,0,0,1,1.534-.25,9.4,9.4,0,0,0,1.214.387.358.358,0,0,0,.275-.033,14.275,14.275,0,0,1,2.569-1.037c.085-.021.112-.084.146-.153.188-.381.381-.76.57-1.141a1.545,1.545,0,0,1,1.244-.929,13.282,13.282,0,0,1,3.853.028,1.458,1.458,0,0,1,1.131.879c.176.352.356.7.526,1.057a.514.514,0,0,0,.342.3,13.712,13.712,0,0,1,2.3.939.618.618,0,0,0,.515.054c.423-.143.861-.243,1.278-.4a1.12,1.12,0,0,1,1.09.125,11.912,11.912,0,0,1,1.983,1.755,8.4,8.4,0,0,1,1.046,1.248,1.509,1.509,0,0,1,.287.753m.317,8.482c0-.245-.011-.491,0-.735a.459.459,0,0,0-.283-.484c-.3-.146-.581-.313-.881-.45a1.622,1.622,0,0,1-.943-1.132,11.315,11.315,0,0,0-1.281-3.015,1.109,1.109,0,0,1-.058-1.1,6.911,6.911,0,0,0,.349-1.126.476.476,0,0,0-.119-.468,14.616,14.616,0,0,0-1.082-1.087.438.438,0,0,0-.44-.108,6.663,6.663,0,0,0-1.188.363.849.849,0,0,1-.828.043,15.144,15.144,0,0,0-3.573-1.521,1.089,1.089,0,0,1-.645-.54c-.205-.373-.411-.746-.6-1.128a.466.466,0,0,0-.469-.306q-.768.008-1.535,0a.44.44,0,0,0-.432.268c-.169.332-.344.661-.513.992a1.4,1.4,0,0,1-.882.775,14.358,14.358,0,0,0-3.428,1.453.809.809,0,0,1-.769,0c-.263-.116-.542-.193-.806-.3a1.009,1.009,0,0,0-1.242.319c-1.073,1.154-1.057.749-.5,2.352a1.269,1.269,0,0,1-.068,1.128,11.191,11.191,0,0,0-.862,1.743c-.186.509-.351,1.027-.517,1.542a1.077,1.077,0,0,1-.521.657c-.4.217-.8.445-1.206.655a.438.438,0,0,0-.272.451c.015.479.013.959,0,1.439a.517.517,0,0,0,.334.552c.3.134.584.307.881.451a1.52,1.52,0,0,1,.853,1.012,12.358,12.358,0,0,0,1.326,3.134,1.026,1.026,0,0,1,.085.971c-.144.366-.259.742-.366,1.121a.592.592,0,0,0,.158.639c.317.316.636.63.945.953a.567.567,0,0,0,.606.159,5.152,5.152,0,0,0,1.032-.328,1.157,1.157,0,0,1,1.155.061,10.746,10.746,0,0,0,1.8.884c.5.176,1.008.339,1.512.507a1.068,1.068,0,0,1,.622.519c.207.384.419.765.616,1.155a.492.492,0,0,0,.478.306q.768,0,1.535,0a.448.448,0,0,0,.444-.3c.144-.308.312-.605.462-.911a1.524,1.524,0,0,1,1.01-.855A11.845,11.845,0,0,0,111,114.433a1,1,0,0,1,.969-.092,8.063,8.063,0,0,0,1.246.4.458.458,0,0,0,.444-.1,12.363,12.363,0,0,0,1.091-1.078.507.507,0,0,0,.119-.53c-.125-.384-.238-.773-.375-1.152a1.142,1.142,0,0,1,.093-1.038,10.1,10.1,0,0,0,1.2-2.774,2.111,2.111,0,0,1,1.226-1.478c1.116-.544.932-.217.954-1.537" transform="translate(-66.784 -66.693)" fill="#fff"/>
          <path id="Trazado_610853" data-name="Trazado 610853" d="M217.792,14.052A14.061,14.061,0,1,1,203.749,0a14.081,14.081,0,0,1,14.043,14.051M203.353,25.532a11.5,11.5,0,1,0-11.145-12.165,11.473,11.473,0,0,0,11.145,12.165" transform="translate(-141.017 -0.001)" fill="#fff"/>
          <path id="Trazado_610854" data-name="Trazado 610854" d="M76.323,30.566,73.564,29.2q-1.158-.575-2.317-1.147c-.185-.091-.236-.171-.111-.385.267-.459.481-.948.723-1.422a3.881,3.881,0,0,1,.23-.382.2.2,0,0,1,.295-.071q4.847,2.44,9.7,4.872a1.746,1.746,0,0,1,.716.519,1.219,1.219,0,0,1-.439,1.826c-1.37.71-2.756,1.388-4.134,2.081q-2.909,1.462-5.814,2.931c-.186.095-.264.037-.358-.108-.3-.466-.491-.991-.761-1.474a1.682,1.682,0,0,0-.151-.28c-.168-.2-.07-.286.115-.377.792-.39,1.581-.788,2.371-1.183l2.706-1.352c-.093-.083-.19-.052-.273-.052-3.316,0-6.634-.074-9.947.015a13.668,13.668,0,0,0-11.653,6.623,13.6,13.6,0,0,0-2.1,7.166q0,8.9.006,17.808c0,.286-.063.38-.362.368-.639-.025-1.279-.016-1.919,0-.212,0-.292-.037-.292-.274.007-6.075-.08-12.151.036-18.223a15.863,15.863,0,0,1,3.989-10.177,16.551,16.551,0,0,1,7.615-5.068,16.911,16.911,0,0,1,5.317-.8c3.081.011,6.162,0,9.243,0h.318l.014-.058" transform="translate(-37 -19.145)" fill="#fff"/>
          <path id="Trazado_610855" data-name="Trazado 610855" d="M126.562,154.123l1.039.521,3.742,1.866.056.031c.472.233.47.232.229.7-.251.493-.5.988-.747,1.482-.119.237-.25.257-.5.125-1.387-.721-2.789-1.416-4.187-2.117-1.855-.929-3.708-1.862-5.569-2.779a1.261,1.261,0,0,1-.779-1.15,1.218,1.218,0,0,1,.756-1.162q4.117-2.047,8.227-4.107a14.8,14.8,0,0,0,1.666-.875c.116-.078.2-.062.269.041a3.322,3.322,0,0,1,.239.377c.258.5.5,1.01.763,1.509.091.174.059.25-.122.338-1.683.82-3.361,1.651-5.039,2.48-.015.007-.021.033-.06.1H127c3.2,0,6.4.012,9.595,0a13.951,13.951,0,0,0,13.925-14.012q.02-8.791,0-17.582c0-.3.06-.4.378-.386.617.028,1.237.027,1.854,0,.3-.013.342.087.342.356q-.012,8.408,0,16.815a19.4,19.4,0,0,1-.231,3.374,16.774,16.774,0,0,1-2.322,6.139,16.754,16.754,0,0,1-14.061,7.854c-3.166.017-6.332,0-9.5,0h-.4l-.011.056" transform="translate(-89.102 -88.863)" fill="#fff"/>
          <path id="Trazado_610856" data-name="Trazado 610856" d="M135.152,127.328a7.661,7.661,0,0,1-7.7,7.65,7.645,7.645,0,0,1-.011-15.291,7.677,7.677,0,0,1,7.707,7.641m-12.8.005a5.124,5.124,0,1,0,5.122-5.123,5.073,5.073,0,0,0-5.122,5.123" transform="translate(-89.087 -88.986)" fill="#fff"/>
          <path id="Trazado_610857" data-name="Trazado 610857" d="M227.275,21.877c0,.543.01,1.087,0,1.63-.006.214.043.284.275.293a4.834,4.834,0,0,1,3.823,1.882c1.961,2.524.62,5.163-1.355,6.372a5.087,5.087,0,0,1-2.5.686c-.2.009-.248.067-.245.256.01.682,0,1.364.009,2.046,0,.208-.056.271-.266.267-.682-.013-1.365-.015-2.047,0-.224.005-.26-.081-.257-.276.01-.661,0-1.321.009-1.982,0-.221-.033-.309-.286-.317a4.872,4.872,0,0,1-3.28-1.3,4.922,4.922,0,0,1-1.51-2.921c-.028-.174.018-.238.188-.238.7,0,1.407,0,2.111,0a.189.189,0,0,1,.216.181,1.987,1.987,0,0,0,1.534,1.583c1.013.331,1.022.306,1.022-.736,0-.895-.006-1.79,0-2.685,0-.2-.049-.267-.261-.274a4.806,4.806,0,0,1-3.7-1.727c-1.786-2.143-1.234-4.475.595-6.076a4.763,4.763,0,0,1,3.054-1.13c.281-.011.324-.1.318-.352-.017-.649,0-1.3-.01-1.95,0-.2.037-.279.259-.274.693.015,1.386.011,2.079,0,.185,0,.234.058.231.236-.009.682.006,1.364-.009,2.046,0,.222.056.279.28.287a4.844,4.844,0,0,1,4.54,3.2,8.589,8.589,0,0,1,.252,1.021c.042.193-.023.249-.206.248-.693,0-1.386,0-2.079,0a.2.2,0,0,1-.231-.2,1.986,1.986,0,0,0-1.453-1.543,5.089,5.089,0,0,0-.778-.169c-.229-.045-.34.009-.328.286.024.543.007,1.087.007,1.63m0,6.373c0,.574,0,1.148,0,1.722,0,.157.028.232.209.218a2.746,2.746,0,0,0,1.933-.848,1.572,1.572,0,0,0-.019-2.166,2.773,2.773,0,0,0-1.91-.828c-.175-.015-.216.048-.214.211.008.563,0,1.127,0,1.69m-2.561-6.375c0-.565-.007-1.13,0-1.694,0-.188-.061-.241-.239-.225a2.809,2.809,0,0,0-1.864.8,1.547,1.547,0,0,0-.037,2.188,2.753,2.753,0,0,0,1.9.853c.188.016.237-.051.234-.229-.009-.565,0-1.129,0-1.694" transform="translate(-163.295 -11.028)" fill="#fff"/>
        </g>
      </g>
    </g>
    <path id="Trazado_611056" data-name="Trazado 611056" d="M28,0H267a28,28,0,0,1,28,28V82a28,28,0,0,1-28,28H28A28,28,0,0,1,0,82V28A28,28,0,0,1,28,0Z" transform="translate(285 2759)" fill="#99fbf2"/>
    <g id="Grupo_1073284" data-name="Grupo 1073284" transform="translate(7.907 0.547)">
      <path id="Trazado_611057" data-name="Trazado 611057" d="M-53.32-3.789A4.025,4.025,0,0,1-54.676-.9,4.76,4.76,0,0,1-57.9.156,4.28,4.28,0,0,1-61.34-1.316a6.038,6.038,0,0,1-1.254-4.043v-.7a6.819,6.819,0,0,1,.578-2.891,4.332,4.332,0,0,1,1.652-1.918,4.629,4.629,0,0,1,2.5-.668A4.637,4.637,0,0,1-54.7-10.477,4.326,4.326,0,0,1-53.3-7.516h-2.344a2.376,2.376,0,0,0-.613-1.6,2.271,2.271,0,0,0-1.605-.5,1.991,1.991,0,0,0-1.754.84,4.707,4.707,0,0,0-.6,2.605V-5.3a5.038,5.038,0,0,0,.559,2.7,1.954,1.954,0,0,0,1.762.852,2.314,2.314,0,0,0,1.621-.5,2.241,2.241,0,0,0,.613-1.535ZM-47.031,0a2.507,2.507,0,0,1-.227-.758,2.732,2.732,0,0,1-2.133.914,3,3,0,0,1-2.059-.719,2.312,2.312,0,0,1-.816-1.812,2.389,2.389,0,0,1,1-2.062,4.915,4.915,0,0,1,2.879-.727h1.039v-.484a1.393,1.393,0,0,0-.3-.937,1.183,1.183,0,0,0-.949-.352,1.345,1.345,0,0,0-.895.273.929.929,0,0,0-.324.75h-2.258a2.268,2.268,0,0,1,.453-1.359,3,3,0,0,1,1.281-.98,4.669,4.669,0,0,1,1.859-.355A3.689,3.689,0,0,1-46-7.824a2.747,2.747,0,0,1,.918,2.207v3.664a4.041,4.041,0,0,0,.336,1.82V0ZM-48.9-1.57a1.945,1.945,0,0,0,.922-.223,1.462,1.462,0,0,0,.625-.6V-3.844H-48.2q-1.7,0-1.8,1.172l-.008.133a.9.9,0,0,0,.3.7A1.153,1.153,0,0,0-48.9-1.57Zm10.3-4.766a6.134,6.134,0,0,0-.812-.062,1.654,1.654,0,0,0-1.68.867V0h-2.258V-8.453h2.133l.063,1.008a2.092,2.092,0,0,1,1.883-1.164,2.366,2.366,0,0,1,.7.1ZM-32.852,0a2.507,2.507,0,0,1-.227-.758,2.732,2.732,0,0,1-2.133.914A3,3,0,0,1-37.27-.562a2.312,2.312,0,0,1-.816-1.812,2.389,2.389,0,0,1,1-2.062,4.915,4.915,0,0,1,2.879-.727h1.039v-.484a1.393,1.393,0,0,0-.3-.937,1.183,1.183,0,0,0-.949-.352,1.345,1.345,0,0,0-.895.273.929.929,0,0,0-.324.75H-37.9a2.268,2.268,0,0,1,.453-1.359,3,3,0,0,1,1.281-.98A4.669,4.669,0,0,1-34.3-8.609a3.689,3.689,0,0,1,2.48.785,2.747,2.747,0,0,1,.918,2.207v3.664a4.041,4.041,0,0,0,.336,1.82V0Zm-1.867-1.57a1.945,1.945,0,0,0,.922-.223,1.462,1.462,0,0,0,.625-.6V-3.844h-.844q-1.7,0-1.8,1.172l-.008.133a.9.9,0,0,0,.3.7A1.153,1.153,0,0,0-34.719-1.57Zm9.063-.094a1.481,1.481,0,0,0,1.016-.344,1.2,1.2,0,0,0,.406-.914h2.117a2.9,2.9,0,0,1-.469,1.574A3.093,3.093,0,0,1-23.848-.238a3.949,3.949,0,0,1-1.77.395A3.67,3.67,0,0,1-28.477-1,4.56,4.56,0,0,1-29.523-4.18v-.148a4.508,4.508,0,0,1,1.039-3.117,3.627,3.627,0,0,1,2.852-1.164,3.555,3.555,0,0,1,2.543.9,3.2,3.2,0,0,1,.973,2.4h-2.117a1.551,1.551,0,0,0-.406-1.072,1.354,1.354,0,0,0-1.031-.412,1.36,1.36,0,0,0-1.191.575,3.333,3.333,0,0,0-.4,1.866v.235a3.375,3.375,0,0,0,.4,1.878A1.377,1.377,0,0,0-25.656-1.664Zm7.531-8.867v2.078h1.445V-6.8h-1.445v4.219a1.007,1.007,0,0,0,.18.672.9.9,0,0,0,.688.2,3.6,3.6,0,0,0,.664-.055V-.047a4.648,4.648,0,0,1-1.367.2,2.156,2.156,0,0,1-2.422-2.4V-6.8h-1.234V-8.453h1.234v-2.078ZM-11.531.156A4.15,4.15,0,0,1-14.559-.984a4.054,4.054,0,0,1-1.168-3.039v-.219a5.106,5.106,0,0,1,.492-2.277A3.612,3.612,0,0,1-13.84-8.066a3.914,3.914,0,0,1,2.059-.543,3.508,3.508,0,0,1,2.73,1.094,4.444,4.444,0,0,1,1,3.1v.922h-5.383a2.1,2.1,0,0,0,.66,1.328,2,2,0,0,0,1.395.5,2.437,2.437,0,0,0,2.039-.945l1.109,1.242A3.389,3.389,0,0,1-9.609-.246,4.511,4.511,0,0,1-11.531.156Zm-.258-6.945a1.411,1.411,0,0,0-1.09.455,2.357,2.357,0,0,0-.535,1.3h3.141v-.181a1.681,1.681,0,0,0-.406-1.165A1.456,1.456,0,0,0-11.789-6.789Zm9.766.453A6.134,6.134,0,0,0-2.836-6.4a1.654,1.654,0,0,0-1.68.867V0H-6.773V-8.453h2.133l.063,1.008A2.092,2.092,0,0,1-2.7-8.609a2.366,2.366,0,0,1,.7.1ZM1.5,0H-.758V-8.453H1.5ZM.836-11.883H3.3L1.133-9.461H-.7ZM8.023-2.336a.727.727,0,0,0-.41-.652A4.659,4.659,0,0,0,6.3-3.414Q3.281-4.047,3.281-5.977a2.323,2.323,0,0,1,.934-1.879,3.766,3.766,0,0,1,2.441-.754,4.053,4.053,0,0,1,2.574.758A2.388,2.388,0,0,1,10.2-5.883H7.938a1.092,1.092,0,0,0-.312-.8A1.322,1.322,0,0,0,6.648-7a1.351,1.351,0,0,0-.883.258.814.814,0,0,0-.312.656.7.7,0,0,0,.355.605,3.657,3.657,0,0,0,1.2.4A9.8,9.8,0,0,1,8.43-4.7,2.336,2.336,0,0,1,10.219-2.43,2.2,2.2,0,0,1,9.227-.559,4.28,4.28,0,0,1,6.664.156,4.47,4.47,0,0,1,4.777-.223,3.166,3.166,0,0,1,3.484-1.262a2.414,2.414,0,0,1-.469-1.426H5.156a1.179,1.179,0,0,0,.445.922,1.766,1.766,0,0,0,1.109.32,1.635,1.635,0,0,0,.98-.246A.766.766,0,0,0,8.023-2.336Zm6.352-8.2v2.078H15.82V-6.8H14.375v4.219a1.007,1.007,0,0,0,.18.672.9.9,0,0,0,.688.2,3.6,3.6,0,0,0,.664-.055V-.047a4.648,4.648,0,0,1-1.367.2,2.156,2.156,0,0,1-2.422-2.4V-6.8H10.883V-8.453h1.234v-2.078ZM19.461,0H17.2V-8.453h2.266Zm-2.4-10.641a1.112,1.112,0,0,1,.34-.836,1.277,1.277,0,0,1,.926-.328,1.28,1.28,0,0,1,.922.328,1.105,1.105,0,0,1,.344.836,1.108,1.108,0,0,1-.348.844,1.283,1.283,0,0,1-.918.328A1.283,1.283,0,0,1,17.41-9.8,1.108,1.108,0,0,1,17.063-10.641Zm7.773,8.977a1.481,1.481,0,0,0,1.016-.344,1.2,1.2,0,0,0,.406-.914h2.117a2.9,2.9,0,0,1-.469,1.574A3.093,3.093,0,0,1,26.645-.238a3.949,3.949,0,0,1-1.77.395A3.67,3.67,0,0,1,22.016-1,4.56,4.56,0,0,1,20.969-4.18v-.148a4.508,4.508,0,0,1,1.039-3.117,3.627,3.627,0,0,1,2.852-1.164,3.555,3.555,0,0,1,2.543.9,3.2,3.2,0,0,1,.973,2.4H26.258a1.551,1.551,0,0,0-.406-1.072,1.354,1.354,0,0,0-1.031-.412,1.36,1.36,0,0,0-1.191.575,3.333,3.333,0,0,0-.4,1.866v.235a3.375,3.375,0,0,0,.4,1.878A1.377,1.377,0,0,0,24.836-1.664ZM34.563,0a2.507,2.507,0,0,1-.227-.758A2.732,2.732,0,0,1,32.2.156a3,3,0,0,1-2.059-.719,2.312,2.312,0,0,1-.816-1.812,2.389,2.389,0,0,1,1-2.062A4.915,4.915,0,0,1,33.2-5.164h1.039v-.484a1.393,1.393,0,0,0-.3-.937,1.183,1.183,0,0,0-.949-.352,1.345,1.345,0,0,0-.895.273.929.929,0,0,0-.324.75H29.516a2.268,2.268,0,0,1,.453-1.359,3,3,0,0,1,1.281-.98,4.669,4.669,0,0,1,1.859-.355,3.689,3.689,0,0,1,2.48.785,2.747,2.747,0,0,1,.918,2.207v3.664a4.041,4.041,0,0,0,.336,1.82V0ZM32.7-1.57a1.945,1.945,0,0,0,.922-.223,1.462,1.462,0,0,0,.625-.6V-3.844H33.4q-1.7,0-1.8,1.172l-.008.133a.9.9,0,0,0,.3.7A1.153,1.153,0,0,0,32.7-1.57Zm9.18-2.719a5.094,5.094,0,0,1,.887-3.148,2.877,2.877,0,0,1,2.426-1.172,2.589,2.589,0,0,1,2.039.922V-12h2.266V0H47.453l-.109-.9A2.657,2.657,0,0,1,45.172.156,2.869,2.869,0,0,1,42.777-1.02,5.258,5.258,0,0,1,41.875-4.289Zm2.258.168A3.337,3.337,0,0,0,44.547-2.3a1.349,1.349,0,0,0,1.2.634,1.511,1.511,0,0,0,1.477-.884V-5.889a1.489,1.489,0,0,0-1.461-.884Q44.133-6.773,44.133-4.121Zm11,4.277A4.15,4.15,0,0,1,52.105-.984a4.054,4.054,0,0,1-1.168-3.039v-.219A5.106,5.106,0,0,1,51.43-6.52a3.612,3.612,0,0,1,1.395-1.547,3.914,3.914,0,0,1,2.059-.543,3.508,3.508,0,0,1,2.73,1.094,4.444,4.444,0,0,1,1,3.1v.922H53.227a2.1,2.1,0,0,0,.66,1.328,2,2,0,0,0,1.395.5,2.437,2.437,0,0,0,2.039-.945L58.43-1.367A3.389,3.389,0,0,1,57.055-.246,4.511,4.511,0,0,1,55.133.156Zm-.258-6.945a1.411,1.411,0,0,0-1.09.455,2.357,2.357,0,0,0-.535,1.3h3.141v-.181a1.681,1.681,0,0,0-.406-1.165A1.456,1.456,0,0,0,54.875-6.789ZM62.273,0H60.008V-12h2.266ZM-54.055,19.852a5.07,5.07,0,0,1-.887,3.129,2.843,2.843,0,0,1-2.395,1.176,2.633,2.633,0,0,1-2.07-.891V27.25h-2.258v-11.7h2.094l.078.828a2.654,2.654,0,0,1,2.141-.984,2.862,2.862,0,0,1,2.43,1.156,5.207,5.207,0,0,1,.867,3.188Zm-2.258-.164a3.327,3.327,0,0,0-.418-1.82,1.361,1.361,0,0,0-1.215-.641,1.478,1.478,0,0,0-1.461.813V21.5a1.5,1.5,0,0,0,1.477.836Q-56.312,22.336-56.312,19.688Zm8.719,3.453a2.831,2.831,0,0,1-2.312,1.016,2.67,2.67,0,0,1-2.074-.781,3.335,3.335,0,0,1-.73-2.289V15.547h2.258v5.467q0,1.322,1.2,1.322a1.63,1.63,0,0,0,1.578-.8V15.547h2.266V24h-2.125Zm7.781,1.016a4.15,4.15,0,0,1-3.027-1.141,4.054,4.054,0,0,1-1.168-3.039v-.219a5.106,5.106,0,0,1,.492-2.277,3.612,3.612,0,0,1,1.395-1.547,3.914,3.914,0,0,1,2.059-.543,3.508,3.508,0,0,1,2.73,1.094,4.444,4.444,0,0,1,1,3.1v.922h-5.383a2.1,2.1,0,0,0,.66,1.328,2,2,0,0,0,1.395.5,2.437,2.437,0,0,0,2.039-.945l1.109,1.242a3.389,3.389,0,0,1-1.375,1.121A4.511,4.511,0,0,1-39.812,24.156Zm-.258-6.945a1.411,1.411,0,0,0-1.09.455,2.357,2.357,0,0,0-.535,1.3h3.141v-.181a1.681,1.681,0,0,0-.406-1.165A1.456,1.456,0,0,0-40.07,17.211Zm9.594,4.453a.727.727,0,0,0-.41-.652,4.659,4.659,0,0,0-1.316-.426q-3.016-.633-3.016-2.562a2.323,2.323,0,0,1,.934-1.879,3.766,3.766,0,0,1,2.441-.754,4.053,4.053,0,0,1,2.574.758,2.388,2.388,0,0,1,.965,1.969h-2.258a1.092,1.092,0,0,0-.312-.8A1.322,1.322,0,0,0-31.852,17a1.351,1.351,0,0,0-.883.258.814.814,0,0,0-.312.656.7.7,0,0,0,.355.605,3.657,3.657,0,0,0,1.2.4,9.8,9.8,0,0,1,1.422.379,2.336,2.336,0,0,1,1.789,2.273,2.2,2.2,0,0,1-.992,1.871,4.28,4.28,0,0,1-2.562.715,4.47,4.47,0,0,1-1.887-.379,3.166,3.166,0,0,1-1.293-1.039,2.414,2.414,0,0,1-.469-1.426h2.141a1.179,1.179,0,0,0,.445.922,1.766,1.766,0,0,0,1.109.32,1.635,1.635,0,0,0,.98-.246A.766.766,0,0,0-30.477,21.664Zm6.352-8.2v2.078h1.445V17.2h-1.445v4.219a1.007,1.007,0,0,0,.18.672.9.9,0,0,0,.688.2,3.6,3.6,0,0,0,.664-.055v1.711a4.648,4.648,0,0,1-1.367.2,2.156,2.156,0,0,1-2.422-2.4V17.2h-1.234V15.547h1.234V13.469Zm2.117,6.227a5.013,5.013,0,0,1,.484-2.242,3.546,3.546,0,0,1,1.395-1.523,4.069,4.069,0,0,1,2.113-.539,3.849,3.849,0,0,1,2.793,1.047,4.2,4.2,0,0,1,1.207,2.844l.016.578a4.418,4.418,0,0,1-1.086,3.121A3.775,3.775,0,0,1-18,24.156a3.793,3.793,0,0,1-2.918-1.172,4.5,4.5,0,0,1-1.09-3.187Zm2.258.16A3.16,3.16,0,0,0-19.3,21.7a1.5,1.5,0,0,0,1.3.638,1.5,1.5,0,0,0,1.281-.63,3.457,3.457,0,0,0,.461-2.015,3.128,3.128,0,0,0-.461-1.831,1.5,1.5,0,0,0-1.3-.649,1.474,1.474,0,0,0-1.281.646A3.516,3.516,0,0,0-19.75,19.856Zm10.773-.145a5.094,5.094,0,0,1,.887-3.148,2.877,2.877,0,0,1,2.426-1.172,2.589,2.589,0,0,1,2.039.922V12h2.266V24H-3.4l-.109-.9A2.657,2.657,0,0,1-5.68,24.156,2.869,2.869,0,0,1-8.074,22.98,5.258,5.258,0,0,1-8.977,19.711Zm2.258.168A3.337,3.337,0,0,0-6.3,21.7a1.349,1.349,0,0,0,1.2.634,1.511,1.511,0,0,0,1.477-.884V18.111a1.489,1.489,0,0,0-1.461-.884Q-6.719,17.227-6.719,19.879Zm11,4.277a4.15,4.15,0,0,1-3.027-1.141A4.054,4.054,0,0,1,.086,19.977v-.219A5.106,5.106,0,0,1,.578,17.48a3.612,3.612,0,0,1,1.395-1.547,3.914,3.914,0,0,1,2.059-.543,3.508,3.508,0,0,1,2.73,1.094,4.444,4.444,0,0,1,1,3.1v.922H2.375a2.1,2.1,0,0,0,.66,1.328,2,2,0,0,0,1.395.5,2.437,2.437,0,0,0,2.039-.945l1.109,1.242A3.389,3.389,0,0,1,6.2,23.754,4.511,4.511,0,0,1,4.281,24.156Zm-.258-6.945a1.411,1.411,0,0,0-1.09.455,2.357,2.357,0,0,0-.535,1.3H5.539v-.181a1.681,1.681,0,0,0-.406-1.165A1.456,1.456,0,0,0,4.023,17.211Zm11.7-3.742v2.078h1.445V17.2H15.727v4.219a1.007,1.007,0,0,0,.18.672.9.9,0,0,0,.688.2,3.6,3.6,0,0,0,.664-.055v1.711a4.648,4.648,0,0,1-1.367.2,2.156,2.156,0,0,1-2.422-2.4V17.2H12.234V15.547h1.234V13.469Zm7.453,4.2a6.134,6.134,0,0,0-.812-.062,1.654,1.654,0,0,0-1.68.867V24H18.43V15.547h2.133l.063,1.008a2.092,2.092,0,0,1,1.883-1.164,2.366,2.366,0,0,1,.7.1ZM28.93,24a2.507,2.507,0,0,1-.227-.758,2.732,2.732,0,0,1-2.133.914,3,3,0,0,1-2.059-.719,2.312,2.312,0,0,1-.816-1.812,2.389,2.389,0,0,1,1-2.062,4.915,4.915,0,0,1,2.879-.727h1.039v-.484a1.393,1.393,0,0,0-.3-.937,1.183,1.183,0,0,0-.949-.352,1.345,1.345,0,0,0-.895.273.929.929,0,0,0-.324.75H23.883a2.268,2.268,0,0,1,.453-1.359,3,3,0,0,1,1.281-.98,4.669,4.669,0,0,1,1.859-.355,3.689,3.689,0,0,1,2.48.785,2.747,2.747,0,0,1,.918,2.207v3.664a4.041,4.041,0,0,0,.336,1.82V24Zm-1.867-1.57a1.945,1.945,0,0,0,.922-.223,1.462,1.462,0,0,0,.625-.6V20.156h-.844q-1.7,0-1.8,1.172l-.008.133a.9.9,0,0,0,.3.7A1.153,1.153,0,0,0,27.063,22.43Zm13.164-2.578a5.119,5.119,0,0,1-.867,3.168,2.872,2.872,0,0,1-2.422,1.137,2.639,2.639,0,0,1-2.2-1.055l-.1.9H32.609V12h2.258v4.3a2.571,2.571,0,0,1,2.055-.914,2.9,2.9,0,0,1,2.426,1.137,5.126,5.126,0,0,1,.879,3.2Zm-2.258-.164a3.363,3.363,0,0,0-.406-1.871,1.374,1.374,0,0,0-1.211-.59,1.489,1.489,0,0,0-1.484.883v3.336a1.509,1.509,0,0,0,1.5.891A1.394,1.394,0,0,0,37.8,21.258,5.562,5.562,0,0,0,37.969,19.688ZM46.516,24a2.507,2.507,0,0,1-.227-.758,2.732,2.732,0,0,1-2.133.914,3,3,0,0,1-2.059-.719,2.312,2.312,0,0,1-.816-1.812,2.389,2.389,0,0,1,1-2.062,4.915,4.915,0,0,1,2.879-.727H46.2v-.484a1.393,1.393,0,0,0-.3-.937,1.183,1.183,0,0,0-.949-.352,1.345,1.345,0,0,0-.895.273.929.929,0,0,0-.324.75H41.469a2.268,2.268,0,0,1,.453-1.359,3,3,0,0,1,1.281-.98,4.669,4.669,0,0,1,1.859-.355,3.689,3.689,0,0,1,2.48.785,2.747,2.747,0,0,1,.918,2.207v3.664a4.041,4.041,0,0,0,.336,1.82V24Zm-1.867-1.57a1.945,1.945,0,0,0,.922-.223,1.462,1.462,0,0,0,.625-.6V20.156h-.844q-1.7,0-1.8,1.172l-.008.133a.9.9,0,0,0,.3.7A1.153,1.153,0,0,0,44.648,22.43Zm7.938-6.883v8.914a3.024,3.024,0,0,1-.742,2.176,2.821,2.821,0,0,1-2.141.777,4.591,4.591,0,0,1-1.117-.133V25.492a4.238,4.238,0,0,0,.711.07q1.023,0,1.023-1.086v-8.93Zm-2.445-2.187a1.112,1.112,0,0,1,.34-.836,1.47,1.47,0,0,1,1.852,0,1.2,1.2,0,0,1-.008,1.68,1.448,1.448,0,0,1-1.836,0A1.108,1.108,0,0,1,50.141,13.359ZM54,19.7a5.013,5.013,0,0,1,.484-2.242,3.546,3.546,0,0,1,1.395-1.523,4.069,4.069,0,0,1,2.113-.539,3.849,3.849,0,0,1,2.793,1.047,4.2,4.2,0,0,1,1.207,2.844l.016.578a4.418,4.418,0,0,1-1.086,3.121,4.209,4.209,0,0,1-5.832,0A4.5,4.5,0,0,1,54,19.8Zm2.258.16a3.16,3.16,0,0,0,.453,1.843,1.628,1.628,0,0,0,2.578.008,3.457,3.457,0,0,0,.461-2.015,3.128,3.128,0,0,0-.461-1.831,1.5,1.5,0,0,0-1.3-.649,1.474,1.474,0,0,0-1.281.646A3.516,3.516,0,0,0,56.258,19.856Z" transform="translate(475 2806.743)" fill="#12263f"/>
      <g id="Grupo_1073275" data-name="Grupo 1073275" transform="translate(312.093 2776.453)">
        <g id="Grupo_1073274" data-name="Grupo 1073274" clip-path="url(#clip-path-3)">
          <path id="Trazado_610840" data-name="Trazado 610840" d="M19.869,124.922c6.206,0,12.412.023,18.618-.024.986-.007,1.212.3,1.2,1.231-.038,2.964,0,2.964-2.969,2.965-1.5,0-3,.018-4.5-.008-.565-.01-.834.172-.784.762.027.322,0,.649,0,.973,0,11.845-.015,23.689.025,35.533,0,1.111-.283,1.416-1.4,1.41q-12.655-.072-25.311,0c-1.049.005-1.365-.229-1.361-1.329.043-12.006.013-24.013.051-36.02,0-1.057-.232-1.4-1.331-1.348-2.1.092-2.1.022-2.1-2.055s0-2.088,2.1-2.088H19.869" transform="translate(0 -94.487)" fill="#376460"/>
          <path id="Trazado_610841" data-name="Trazado 610841" d="M158.88,104.257a27.411,27.411,0,0,0-8.434.76,3.25,3.25,0,0,0-2.24,2.015,145.723,145.723,0,0,0-5.5,17.337,4.369,4.369,0,0,1-4.21,3.549,4.317,4.317,0,0,1-4.211-3.537,5.781,5.781,0,0,1,.339-2.744c1.563-5.946,3.331-11.827,5.234-17.678,1.549-4.764,4.87-6.8,9.474-7.442a27.525,27.525,0,0,1,4.591-.453c.675.019.886-.241.955-.907q.532-5.2,1.173-10.385c.109-.879-.176-1.036-.963-.865-5.334,1.163-10.639.658-15.926-.343a3.849,3.849,0,1,1,1.448-7.553c4.448.78,8.9,1.3,13.393.286a17.092,17.092,0,0,0,5.409-2.393c2.6-1.649,5.339-2.26,8.3-.942a7.2,7.2,0,0,1,4.627,7.957q-.962,8.758-1.973,17.511c-.414,3.566-2.12,5.254-5.654,5.742a42.293,42.293,0,0,1-5.833.084" transform="translate(-101.535 -54.656)" fill="#376460"/>
          <path id="Trazado_610842" data-name="Trazado 610842" d="M224.656,132.768c1.459,0,2.923.08,4.376-.015,4.3-.282,6.926-2.647,7.693-6.922.61-3.4.575-6.863.882-10.293.213-2.381.357-4.769.491-7.157.035-.618.266-.881.875-.875,1.257.013,2.515.009,3.772,0,.585,0,.768.281.722.843-.277,3.434-.524,6.87-.8,10.3a71.009,71.009,0,0,1-.923,8.326,18.284,18.284,0,0,1-2.365,6.581,7.845,7.845,0,0,1-6.177,3.789c-.694.055-.883.311-.878.969.025,3.123.032,6.246,0,9.369-.009.736.286.887.935.861a7.2,7.2,0,0,1,4.555.94,6.11,6.11,0,0,1,2.738,4.39c.1.692-.042,1.113-.866,1.015a7.956,7.956,0,0,0-1.094-.006c-.886.017-1.723.166-1.916-1.179a1.722,1.722,0,0,0-1.849-1.293q-5.05-.009-10.1,0a1.943,1.943,0,0,0-2.021,1.606c-.175.839-.6.927-1.262.867-.161-.015-.324,0-.487,0-2.338,0-2.444-.152-1.645-2.369a5.949,5.949,0,0,1,5.929-3.979c1.912-.019,1.912-.019,1.912-1.921,0-2.515-.027-5.03.016-7.544.013-.777-.19-1.061-1.009-1.038-1.986.056-3.975-.008-5.962.03-.776.015-1.108-.226-1.067-1.04a29.077,29.077,0,0,0,0-3.162c-.047-.8.243-1.082,1.033-1.061,1.5.039,3,.011,4.5.011Z" transform="translate(-165.567 -81.33)" fill="#376460"/>
          <path id="Trazado_610843" data-name="Trazado 610843" d="M230.887,17.117a8.56,8.56,0,1,1,8.541-8.588,8.544,8.544,0,0,1-8.541,8.588" transform="translate(-168.111 0)" fill="#376460"/>
          <path id="Trazado_610844" data-name="Trazado 610844" d="M54.319,53.517c-2.515,0-5.03-.021-7.545.013a1.073,1.073,0,0,1-1.264-.938Q43,43.214,40.4,33.864c-.237-.849.057-1.039.776-1.222,2.066-.527,2.062-.555,2.617,1.483,1.348,4.957,2.714,9.91,4.021,14.877a1.533,1.533,0,0,0,1.821,1.359c4.014-.084,8.032,0,12.047-.054,1-.013,1.443.262,1.3,1.289a3.176,3.176,0,0,0,0,.85c.114.875-.285,1.1-1.113,1.086-2.515-.044-5.03-.016-7.545-.016" transform="translate(-30.501 -24.464)" fill="#376460"/>
        </g>
      </g>
    </g>
  </g>
</svg>
