<svg xmlns="http://www.w3.org/2000/svg" xmlns:xlink="http://www.w3.org/1999/xlink" width="295" height="1162" viewBox="0 0 295 1162">
  <defs>
    <clipPath id="clip-path">
      <rect id="Rectángulo_378704" data-name="Rectángulo 378704" width="108.279" height="112" fill="#376460" stroke="#376460" stroke-width="1"/>
    </clipPath>
    <clipPath id="clip-path-2">
      <rect id="Rectángulo_378705" data-name="Rectángulo 378705" width="108.279" height="108.183" fill="#376460"/>
    </clipPath>
    <clipPath id="clip-path-3">
      <rect id="Rectángulo_378706" data-name="Rectángulo 378706" width="122.395" height="98.706" fill="#376460"/>
    </clipPath>
    <clipPath id="clip-path-4">
      <rect id="Rectángulo_378707" data-name="Rectángulo 378707" width="121.72" height="127.451" fill="#376460"/>
    </clipPath>
  </defs>
  <g id="Grupo_1073435" data-name="Grupo 1073435" transform="translate(-495 -2482)">
    <path id="Trazado_611187" data-name="Trazado 611187" d="M26,0H164a26,26,0,0,1,26,26V164a26,26,0,0,1-26,26H26A26,26,0,0,1,0,164V26A26,26,0,0,1,26,0Z" transform="translate(548 2482)" fill="#7be2d8"/>
    <path id="Trazado_611188" data-name="Trazado 611188" d="M26,0H164a26,26,0,0,1,26,26V164a26,26,0,0,1-26,26H26A26,26,0,0,1,0,164V26A26,26,0,0,1,26,0Z" transform="translate(548 3380)" fill="#afe599"/>
    <path id="Trazado_611189" data-name="Trazado 611189" d="M26,0H164a26,26,0,0,1,26,26V164a26,26,0,0,1-26,26H26A26,26,0,0,1,0,164V26A26,26,0,0,1,26,0Z" transform="translate(548 3044)" fill="#7be2d8"/>
    <path id="Trazado_611190" data-name="Trazado 611190" d="M26,0H164a26,26,0,0,1,26,26V164a26,26,0,0,1-26,26H26A26,26,0,0,1,0,164V26A26,26,0,0,1,26,0Z" transform="translate(548 2763)" fill="#afe599"/>
    <path id="Trazado_611191" data-name="Trazado 611191" d="M17,0H145a17,17,0,0,1,17,17V145a17,17,0,0,1-17,17H17A17,17,0,0,1,0,145V17A17,17,0,0,1,17,0Z" transform="translate(562 2496)" fill="#99fbf2"/>
    <path id="Trazado_611192" data-name="Trazado 611192" d="M17,0H145a17,17,0,0,1,17,17V145a17,17,0,0,1-17,17H17A17,17,0,0,1,0,145V17A17,17,0,0,1,17,0Z" transform="translate(562 3394)" fill="#cefcba"/>
    <path id="Trazado_611193" data-name="Trazado 611193" d="M17,0H145a17,17,0,0,1,17,17V145a17,17,0,0,1-17,17H17A17,17,0,0,1,0,145V17A17,17,0,0,1,17,0Z" transform="translate(562 3058)" fill="#99fbf2"/>
    <path id="Trazado_611194" data-name="Trazado 611194" d="M17,0H145a17,17,0,0,1,17,17V145a17,17,0,0,1-17,17H17A17,17,0,0,1,0,145V17A17,17,0,0,1,17,0Z" transform="translate(562 2777)" fill="#cefcba"/>
    <path id="Trazado_611195" data-name="Trazado 611195" d="M20,0H275a20,20,0,0,1,20,20V54a20,20,0,0,1-20,20H20A20,20,0,0,1,0,54V20A20,20,0,0,1,20,0Z" transform="translate(495 2672)" fill="#c3fdf7"/>
    <path id="Trazado_611196" data-name="Trazado 611196" d="M18,0H277a18,18,0,0,1,18,18V56a18,18,0,0,1-18,18H18A18,18,0,0,1,0,56V18A18,18,0,0,1,18,0Z" transform="translate(495 2953)" fill="#cefcba"/>
    <path id="Trazado_611197" data-name="Trazado 611197" d="M29,0H266a29,29,0,0,1,29,29V98a29,29,0,0,1-29,29H29A29,29,0,0,1,0,98V29A29,29,0,0,1,29,0Z" transform="translate(495 3234)" fill="#c3fdf7"/>
    <path id="Trazado_611198" data-name="Trazado 611198" d="M21,0H274a21,21,0,0,1,21,21V53a21,21,0,0,1-21,21H21A21,21,0,0,1,0,53V21A21,21,0,0,1,21,0Z" transform="translate(495 3570)" fill="#cefcba"/>
    <path id="Trazado_611199" data-name="Trazado 611199" d="M9.688,11.391a4.185,4.185,0,0,1-1.332,2.785,4.365,4.365,0,0,1-2.98.98,4.008,4.008,0,0,1-3.23-1.445A5.815,5.815,0,0,1,.93,9.844V8.75A6.481,6.481,0,0,1,1.5,5.961,4.231,4.231,0,0,1,3.1,4.113a4.47,4.47,0,0,1,2.406-.645A4.11,4.11,0,0,1,8.414,4.48a4.235,4.235,0,0,1,1.273,2.8H8.18a3.268,3.268,0,0,0-.848-1.975A2.565,2.565,0,0,0,5.508,4.7,2.684,2.684,0,0,0,3.254,5.759a4.882,4.882,0,0,0-.816,3.026v1.1a5.018,5.018,0,0,0,.773,2.948A2.5,2.5,0,0,0,5.375,13.93a2.887,2.887,0,0,0,1.918-.566,3.143,3.143,0,0,0,.887-1.973Zm1.438-.7a4.993,4.993,0,0,1,.488-2.234A3.643,3.643,0,0,1,12.973,6.93a3.7,3.7,0,0,1,1.988-.539,3.565,3.565,0,0,1,2.793,1.2,4.6,4.6,0,0,1,1.066,3.18v.1a5.036,5.036,0,0,1-.473,2.215A3.589,3.589,0,0,1,17,14.609a3.743,3.743,0,0,1-2.02.547,3.556,3.556,0,0,1-2.785-1.2A4.575,4.575,0,0,1,11.125,10.8Zm1.453.172a3.616,3.616,0,0,0,.652,2.258,2.211,2.211,0,0,0,3.5-.012,3.955,3.955,0,0,0,.648-2.418,3.61,3.61,0,0,0-.66-2.254,2.1,2.1,0,0,0-1.754-.863,2.075,2.075,0,0,0-1.727.852A3.925,3.925,0,0,0,12.578,10.867ZM22,6.547l.047,1.063a3.08,3.08,0,0,1,2.531-1.219q2.68,0,2.7,3.023V15H25.836V9.406a1.946,1.946,0,0,0-.418-1.352,1.675,1.675,0,0,0-1.277-.437,2.086,2.086,0,0,0-1.234.375,2.546,2.546,0,0,0-.828.984V15H20.633V6.547Zm10.852,7.43a2.082,2.082,0,0,0,1.352-.469,1.649,1.649,0,0,0,.641-1.172h1.367a2.621,2.621,0,0,1-.5,1.383,3.293,3.293,0,0,1-1.23,1.047,3.55,3.55,0,0,1-1.629.391A3.482,3.482,0,0,1,30.105,14a4.59,4.59,0,0,1-1.02-3.152v-.242a5.089,5.089,0,0,1,.453-2.2,3.451,3.451,0,0,1,1.3-1.492,3.7,3.7,0,0,1,2-.531,3.39,3.39,0,0,1,2.363.852,3.043,3.043,0,0,1,1,2.211H34.844a1.992,1.992,0,0,0-.621-1.348,1.932,1.932,0,0,0-1.379-.527,2.023,2.023,0,0,0-1.707.793,3.724,3.724,0,0,0-.605,2.293v.273a3.65,3.65,0,0,0,.6,2.25A2.033,2.033,0,0,0,32.852,13.977Zm8.492,1.18a3.693,3.693,0,0,1-2.8-1.129,4.19,4.19,0,0,1-1.078-3.02v-.266a5.073,5.073,0,0,1,.48-2.246,3.748,3.748,0,0,1,1.344-1.547,3.378,3.378,0,0,1,1.871-.559,3.166,3.166,0,0,1,2.563,1.086,4.7,4.7,0,0,1,.914,3.109v.6H38.914a3,3,0,0,0,.73,2.02,2.3,2.3,0,0,0,1.777.77,2.517,2.517,0,0,0,1.3-.312,3.259,3.259,0,0,0,.93-.828l.883.688A3.55,3.55,0,0,1,41.344,15.156Zm-.18-7.578a1.928,1.928,0,0,0-1.469.637A3.1,3.1,0,0,0,38.961,10H43.2V9.891A2.753,2.753,0,0,0,42.6,8.184,1.815,1.815,0,0,0,41.164,7.578ZM47.68,6.547l.047,1.063a3.08,3.08,0,0,1,2.531-1.219q2.68,0,2.7,3.023V15H51.516V9.406A1.946,1.946,0,0,0,51.1,8.055a1.675,1.675,0,0,0-1.277-.437,2.086,2.086,0,0,0-1.234.375,2.546,2.546,0,0,0-.828.984V15H46.313V6.547ZM57.1,4.5V6.547H58.68V7.664H57.1v5.249a1.173,1.173,0,0,0,.211.763.888.888,0,0,0,.719.254,3.5,3.5,0,0,0,.688-.094V15a4.215,4.215,0,0,1-1.109.155,1.8,1.8,0,0,1-1.461-.586,2.517,2.517,0,0,1-.492-1.664V7.664H54.117V6.547h1.539V4.5Zm7.352,3.344a4.331,4.331,0,0,0-.711-.055A1.9,1.9,0,0,0,61.813,9v6H60.367V6.547h1.406l.023.977a2.251,2.251,0,0,1,2.016-1.133,1.477,1.477,0,0,1,.641.109ZM70.688,15a3.036,3.036,0,0,1-.2-.891,3.225,3.225,0,0,1-2.406,1.047,2.984,2.984,0,0,1-2.051-.707,2.288,2.288,0,0,1-.8-1.793,2.39,2.39,0,0,1,1-2.051,4.733,4.733,0,0,1,2.824-.73h1.406V9.211A1.623,1.623,0,0,0,70.008,8a1.821,1.821,0,0,0-1.336-.449,2.108,2.108,0,0,0-1.3.391,1.151,1.151,0,0,0-.523.945H65.4a2,2,0,0,1,.449-1.223,3.066,3.066,0,0,1,1.219-.934,4.1,4.1,0,0,1,1.691-.344,3.342,3.342,0,0,1,2.289.73,2.635,2.635,0,0,1,.859,2.012v3.891a4.757,4.757,0,0,0,.3,1.852V15Zm-2.4-1.1a2.54,2.54,0,0,0,1.289-.352,2.127,2.127,0,0,0,.883-.914V10.9H69.328q-2.656,0-2.656,1.555a1.316,1.316,0,0,0,.453,1.063A1.742,1.742,0,0,0,68.289,13.9Zm9.273.078a2.082,2.082,0,0,0,1.352-.469,1.649,1.649,0,0,0,.641-1.172h1.367a2.621,2.621,0,0,1-.5,1.383,3.293,3.293,0,0,1-1.23,1.047,3.55,3.55,0,0,1-1.629.391A3.482,3.482,0,0,1,74.816,14a4.59,4.59,0,0,1-1.02-3.152v-.242a5.089,5.089,0,0,1,.453-2.2,3.451,3.451,0,0,1,1.3-1.492,3.7,3.7,0,0,1,2-.531,3.39,3.39,0,0,1,2.363.852,3.043,3.043,0,0,1,1,2.211H79.555a1.992,1.992,0,0,0-.621-1.348,1.932,1.932,0,0,0-1.379-.527,2.023,2.023,0,0,0-1.707.793,3.724,3.724,0,0,0-.605,2.293v.273a3.65,3.65,0,0,0,.6,2.25A2.033,2.033,0,0,0,77.563,13.977ZM84.117,15H82.672V6.547h1.445ZM82.555,4.3a.863.863,0,0,1,.215-.594.807.807,0,0,1,.637-.242.819.819,0,0,1,.641.242.854.854,0,0,1,.219.594.826.826,0,0,1-.219.586.834.834,0,0,1-.641.234.821.821,0,0,1-.637-.234A.834.834,0,0,1,82.555,4.3ZM86.047,10.7a4.993,4.993,0,0,1,.488-2.234A3.643,3.643,0,0,1,87.895,6.93a3.7,3.7,0,0,1,1.988-.539,3.565,3.565,0,0,1,2.793,1.2,4.6,4.6,0,0,1,1.066,3.18v.1a5.036,5.036,0,0,1-.473,2.215,3.589,3.589,0,0,1-1.352,1.527,3.743,3.743,0,0,1-2.02.547,3.556,3.556,0,0,1-2.785-1.2A4.575,4.575,0,0,1,86.047,10.8Zm1.453.172a3.616,3.616,0,0,0,.652,2.258,2.211,2.211,0,0,0,3.5-.012A3.955,3.955,0,0,0,92.3,10.7a3.61,3.61,0,0,0-.66-2.254,2.1,2.1,0,0,0-1.754-.863,2.075,2.075,0,0,0-1.727.852A3.925,3.925,0,0,0,87.5,10.867ZM90.539,3h1.75L90.2,5.3l-1.164,0Zm6.383,3.547.047,1.063A3.08,3.08,0,0,1,99.5,6.391q2.68,0,2.7,3.023V15h-1.445V9.406a1.946,1.946,0,0,0-.418-1.352,1.675,1.675,0,0,0-1.277-.437,2.086,2.086,0,0,0-1.234.375A2.546,2.546,0,0,0,97,8.977V15H95.555V6.547Zm11.07,4.156a4.952,4.952,0,0,1,.922-3.129,3.137,3.137,0,0,1,4.766-.168V3h1.445V15H113.8l-.07-.906a2.943,2.943,0,0,1-2.414,1.063,2.887,2.887,0,0,1-2.395-1.2,5.008,5.008,0,0,1-.926-3.141Zm1.445.164a3.749,3.749,0,0,0,.594,2.25,1.92,1.92,0,0,0,1.641.813A2.108,2.108,0,0,0,113.68,12.7V8.813a2.125,2.125,0,0,0-1.992-1.2,1.929,1.929,0,0,0-1.656.82A4.128,4.128,0,0,0,109.438,10.867Zm11.438,4.289a3.693,3.693,0,0,1-2.8-1.129A4.19,4.19,0,0,1,117,11.008v-.266a5.073,5.073,0,0,1,.48-2.246,3.748,3.748,0,0,1,1.344-1.547,3.378,3.378,0,0,1,1.871-.559,3.166,3.166,0,0,1,2.563,1.086,4.7,4.7,0,0,1,.914,3.109v.6h-5.727a3,3,0,0,0,.73,2.02,2.3,2.3,0,0,0,1.777.77,2.517,2.517,0,0,0,1.3-.312,3.259,3.259,0,0,0,.93-.828l.883.688A3.55,3.55,0,0,1,120.875,15.156Zm-.18-7.578a1.928,1.928,0,0,0-1.469.637A3.1,3.1,0,0,0,118.492,10h4.234V9.891a2.753,2.753,0,0,0-.594-1.707A1.815,1.815,0,0,0,120.7,7.578Zm12.5,6.4a2.082,2.082,0,0,0,1.352-.469,1.649,1.649,0,0,0,.641-1.172h1.367a2.621,2.621,0,0,1-.5,1.383,3.293,3.293,0,0,1-1.23,1.047,3.55,3.55,0,0,1-1.629.391A3.482,3.482,0,0,1,130.449,14a4.59,4.59,0,0,1-1.02-3.152v-.242a5.089,5.089,0,0,1,.453-2.2,3.451,3.451,0,0,1,1.3-1.492,3.7,3.7,0,0,1,2-.531,3.39,3.39,0,0,1,2.363.852,3.043,3.043,0,0,1,1,2.211h-1.367a1.992,1.992,0,0,0-.621-1.348,1.932,1.932,0,0,0-1.379-.527,2.023,2.023,0,0,0-1.707.793,3.724,3.724,0,0,0-.605,2.293v.273a3.65,3.65,0,0,0,.6,2.25A2.033,2.033,0,0,0,133.2,13.977ZM143.4,15a3.036,3.036,0,0,1-.2-.891,3.225,3.225,0,0,1-2.406,1.047,2.984,2.984,0,0,1-2.051-.707,2.287,2.287,0,0,1-.8-1.793,2.39,2.39,0,0,1,1-2.051,4.733,4.733,0,0,1,2.824-.73h1.406V9.211A1.623,1.623,0,0,0,142.719,8a1.821,1.821,0,0,0-1.336-.449,2.107,2.107,0,0,0-1.3.391,1.151,1.151,0,0,0-.523.945h-1.453a2,2,0,0,1,.449-1.223,3.066,3.066,0,0,1,1.219-.934,4.1,4.1,0,0,1,1.691-.344,3.342,3.342,0,0,1,2.289.73,2.635,2.635,0,0,1,.859,2.012v3.891a4.757,4.757,0,0,0,.3,1.852V15ZM141,13.9a2.54,2.54,0,0,0,1.289-.352,2.127,2.127,0,0,0,.883-.914V10.9h-1.133q-2.656,0-2.656,1.555a1.316,1.316,0,0,0,.453,1.063A1.742,1.742,0,0,0,141,13.9Zm9.969-6.055a4.331,4.331,0,0,0-.711-.055A1.9,1.9,0,0,0,148.328,9v6h-1.445V6.547h1.406l.023.977a2.251,2.251,0,0,1,2.016-1.133,1.477,1.477,0,0,1,.641.109Zm3.68-3.344V6.547h1.578V7.664h-1.578v5.249a1.173,1.173,0,0,0,.211.763.888.888,0,0,0,.719.254,3.5,3.5,0,0,0,.688-.094V15a4.215,4.215,0,0,1-1.109.155,1.8,1.8,0,0,1-1.461-.586,2.517,2.517,0,0,1-.492-1.664V7.664h-1.539V6.547H153.2V4.5Zm6.773,10.656a3.693,3.693,0,0,1-2.8-1.129,4.19,4.19,0,0,1-1.078-3.02v-.266a5.073,5.073,0,0,1,.48-2.246,3.748,3.748,0,0,1,1.344-1.547,3.378,3.378,0,0,1,1.871-.559A3.166,3.166,0,0,1,163.8,7.477a4.7,4.7,0,0,1,.914,3.109v.6h-5.727a3,3,0,0,0,.73,2.02,2.3,2.3,0,0,0,1.777.77,2.517,2.517,0,0,0,1.3-.312,3.258,3.258,0,0,0,.93-.828l.883.688A3.55,3.55,0,0,1,161.422,15.156Zm-.18-7.578a1.928,1.928,0,0,0-1.469.637A3.1,3.1,0,0,0,159.039,10h4.234V9.891a2.753,2.753,0,0,0-.594-1.707A1.815,1.815,0,0,0,161.242,7.578Zm9.234.266a4.331,4.331,0,0,0-.711-.055A1.9,1.9,0,0,0,167.836,9v6h-1.445V6.547H167.8l.023.977a2.251,2.251,0,0,1,2.016-1.133,1.477,1.477,0,0,1,.641.109ZM176.711,15a3.036,3.036,0,0,1-.2-.891,3.225,3.225,0,0,1-2.406,1.047,2.984,2.984,0,0,1-2.051-.707,2.287,2.287,0,0,1-.8-1.793,2.39,2.39,0,0,1,1-2.051,4.733,4.733,0,0,1,2.824-.73h1.406V9.211A1.623,1.623,0,0,0,176.031,8a1.821,1.821,0,0,0-1.336-.449,2.107,2.107,0,0,0-1.3.391,1.151,1.151,0,0,0-.523.945h-1.453a2,2,0,0,1,.449-1.223,3.066,3.066,0,0,1,1.219-.934,4.1,4.1,0,0,1,1.691-.344,3.342,3.342,0,0,1,2.289.73,2.635,2.635,0,0,1,.859,2.012v3.891a4.757,4.757,0,0,0,.3,1.852V15Zm-2.4-1.1a2.54,2.54,0,0,0,1.289-.352,2.127,2.127,0,0,0,.883-.914V10.9h-1.133q-2.656,0-2.656,1.555a1.316,1.316,0,0,0,.453,1.063A1.742,1.742,0,0,0,174.313,13.9Zm5.914.344a.905.905,0,0,1,.223-.625.848.848,0,0,1,.668-.25.874.874,0,0,1,.676.25.887.887,0,0,1,.23.625.839.839,0,0,1-.23.6.89.89,0,0,1-.676.242.8.8,0,0,1-.891-.844Z" transform="translate(548 2694)" fill="#12263f"/>
    <path id="Trazado_611200" data-name="Trazado 611200" d="M7.75,9.742H2.82v4.031H8.547V15H1.32V3.625H8.469V4.852H2.82V8.516H7.75Zm7.359,3.016a1.064,1.064,0,0,0-.441-.91,4.249,4.249,0,0,0-1.539-.559,7.277,7.277,0,0,1-1.742-.562,2.479,2.479,0,0,1-.953-.781,1.869,1.869,0,0,1-.309-1.078A2.193,2.193,0,0,1,11,7.109a3.432,3.432,0,0,1,2.246-.719,3.532,3.532,0,0,1,2.332.742,2.357,2.357,0,0,1,.895,1.9H15.023a1.3,1.3,0,0,0-.5-1.023,1.888,1.888,0,0,0-1.27-.43,1.976,1.976,0,0,0-1.234.344,1.082,1.082,0,0,0-.445.9.877.877,0,0,0,.414.789,5.1,5.1,0,0,0,1.5.508,7.8,7.8,0,0,1,1.754.578,2.558,2.558,0,0,1,1,.809,1.988,1.988,0,0,1,.324,1.152,2.163,2.163,0,0,1-.906,1.816,3.8,3.8,0,0,1-2.352.684,4.257,4.257,0,0,1-1.8-.359,2.922,2.922,0,0,1-1.223-1A2.42,2.42,0,0,1,9.836,12.4h1.445a1.5,1.5,0,0,0,.582,1.152,2.258,2.258,0,0,0,1.434.426,2.331,2.331,0,0,0,1.316-.332A1.02,1.02,0,0,0,15.109,12.758ZM20.4,4.5V6.547h1.578V7.664H20.4v5.249a1.173,1.173,0,0,0,.211.763.888.888,0,0,0,.719.254,3.5,3.5,0,0,0,.688-.094V15a4.215,4.215,0,0,1-1.109.155,1.8,1.8,0,0,1-1.461-.586,2.517,2.517,0,0,1-.492-1.664V7.664H17.414V6.547h1.539V4.5ZM27.75,7.844a4.331,4.331,0,0,0-.711-.055A1.9,1.9,0,0,0,25.109,9v6H23.664V6.547H25.07l.023.977a2.251,2.251,0,0,1,2.016-1.133,1.477,1.477,0,0,1,.641.109Zm6.547,6.32a3.07,3.07,0,0,1-2.477.992,2.628,2.628,0,0,1-2.059-.785,3.4,3.4,0,0,1-.715-2.324v-5.5h1.445v5.461q0,1.922,1.563,1.922a2.163,2.163,0,0,0,2.2-1.234V6.547H35.7V15H34.328Zm6.992-.187a2.082,2.082,0,0,0,1.352-.469,1.649,1.649,0,0,0,.641-1.172h1.367a2.621,2.621,0,0,1-.5,1.383,3.293,3.293,0,0,1-1.23,1.047,3.55,3.55,0,0,1-1.629.391A3.482,3.482,0,0,1,38.543,14a4.59,4.59,0,0,1-1.02-3.152v-.242a5.089,5.089,0,0,1,.453-2.2,3.451,3.451,0,0,1,1.3-1.492,3.7,3.7,0,0,1,2-.531,3.39,3.39,0,0,1,2.363.852,3.043,3.043,0,0,1,1,2.211H43.281a1.992,1.992,0,0,0-.621-1.348,1.932,1.932,0,0,0-1.379-.527,2.023,2.023,0,0,0-1.707.793,3.724,3.724,0,0,0-.605,2.293v.273a3.65,3.65,0,0,0,.6,2.25A2.033,2.033,0,0,0,41.289,13.977ZM48.234,4.5V6.547h1.578V7.664H48.234v5.249a1.173,1.173,0,0,0,.211.763.888.888,0,0,0,.719.254,3.5,3.5,0,0,0,.688-.094V15a4.215,4.215,0,0,1-1.109.155,1.8,1.8,0,0,1-1.461-.586,2.517,2.517,0,0,1-.492-1.664V7.664H45.25V6.547h1.539V4.5Zm8.484,9.664a3.07,3.07,0,0,1-2.477.992,2.628,2.628,0,0,1-2.059-.785,3.4,3.4,0,0,1-.715-2.324v-5.5h1.445v5.461q0,1.922,1.563,1.922a2.163,2.163,0,0,0,2.2-1.234V6.547h1.445V15H56.75Zm7.688-6.32a4.331,4.331,0,0,0-.711-.055A1.9,1.9,0,0,0,61.766,9v6H60.32V6.547h1.406l.023.977a2.251,2.251,0,0,1,2.016-1.133,1.477,1.477,0,0,1,.641.109ZM70.641,15a3.036,3.036,0,0,1-.2-.891,3.225,3.225,0,0,1-2.406,1.047,2.984,2.984,0,0,1-2.051-.707,2.288,2.288,0,0,1-.8-1.793,2.39,2.39,0,0,1,1-2.051,4.733,4.733,0,0,1,2.824-.73h1.406V9.211A1.623,1.623,0,0,0,69.961,8a1.821,1.821,0,0,0-1.336-.449,2.108,2.108,0,0,0-1.3.391,1.151,1.151,0,0,0-.523.945H65.352A2,2,0,0,1,65.8,7.668a3.066,3.066,0,0,1,1.219-.934,4.1,4.1,0,0,1,1.691-.344A3.342,3.342,0,0,1,71,7.121a2.635,2.635,0,0,1,.859,2.012v3.891a4.757,4.757,0,0,0,.3,1.852V15Zm-2.4-1.1a2.54,2.54,0,0,0,1.289-.352,2.127,2.127,0,0,0,.883-.914V10.9H69.281q-2.656,0-2.656,1.555a1.316,1.316,0,0,0,.453,1.063A1.742,1.742,0,0,0,68.242,13.9ZM77.7,10.7a4.993,4.993,0,0,1,.488-2.234A3.643,3.643,0,0,1,79.551,6.93a3.7,3.7,0,0,1,1.988-.539,3.565,3.565,0,0,1,2.793,1.2,4.6,4.6,0,0,1,1.066,3.18v.1a5.036,5.036,0,0,1-.473,2.215,3.589,3.589,0,0,1-1.352,1.527,3.743,3.743,0,0,1-2.02.547,3.556,3.556,0,0,1-2.785-1.2A4.575,4.575,0,0,1,77.7,10.8Zm1.453.172a3.616,3.616,0,0,0,.652,2.258,2.211,2.211,0,0,0,3.5-.012,3.955,3.955,0,0,0,.648-2.418,3.61,3.61,0,0,0-.66-2.254,2.1,2.1,0,0,0-1.754-.863,2.075,2.075,0,0,0-1.727.852A3.925,3.925,0,0,0,79.156,10.867ZM91.3,7.844a4.331,4.331,0,0,0-.711-.055A1.9,1.9,0,0,0,88.656,9v6H87.211V6.547h1.406l.023.977a2.251,2.251,0,0,1,2.016-1.133A1.477,1.477,0,0,1,91.3,6.5Zm.836,2.859a4.968,4.968,0,0,1,.914-3.145,3.151,3.151,0,0,1,4.836-.074l.07-.937h1.32V14.8a3.439,3.439,0,0,1-.973,2.586,3.589,3.589,0,0,1-2.613.945,4.348,4.348,0,0,1-1.789-.391,3.08,3.08,0,0,1-1.336-1.07l.75-.867a2.826,2.826,0,0,0,2.273,1.148,2.214,2.214,0,0,0,1.645-.594,2.269,2.269,0,0,0,.59-1.672v-.727a2.971,2.971,0,0,1-2.367,1,2.887,2.887,0,0,1-2.4-1.2A5.224,5.224,0,0,1,92.133,10.7Zm1.453.164a3.79,3.79,0,0,0,.586,2.246,1.9,1.9,0,0,0,1.641.816,2.117,2.117,0,0,0,2.008-1.242V8.828a2.142,2.142,0,0,0-1.992-1.211,1.921,1.921,0,0,0-1.648.82A4.128,4.128,0,0,0,93.586,10.867ZM106.672,15a3.036,3.036,0,0,1-.2-.891,3.225,3.225,0,0,1-2.406,1.047,2.984,2.984,0,0,1-2.051-.707,2.288,2.288,0,0,1-.8-1.793,2.39,2.39,0,0,1,1-2.051,4.733,4.733,0,0,1,2.824-.73h1.406V9.211A1.623,1.623,0,0,0,105.992,8a1.821,1.821,0,0,0-1.336-.449,2.108,2.108,0,0,0-1.3.391,1.151,1.151,0,0,0-.523.945h-1.453a2,2,0,0,1,.449-1.223,3.066,3.066,0,0,1,1.219-.934,4.1,4.1,0,0,1,1.691-.344,3.342,3.342,0,0,1,2.289.73,2.635,2.635,0,0,1,.859,2.012v3.891a4.757,4.757,0,0,0,.3,1.852V15Zm-2.4-1.1a2.54,2.54,0,0,0,1.289-.352,2.127,2.127,0,0,0,.883-.914V10.9h-1.133q-2.656,0-2.656,1.555a1.316,1.316,0,0,0,.453,1.063A1.742,1.742,0,0,0,104.273,13.9Zm7.25-7.352.047,1.063A3.08,3.08,0,0,1,114.1,6.391q2.68,0,2.7,3.023V15h-1.445V9.406a1.946,1.946,0,0,0-.418-1.352,1.675,1.675,0,0,0-1.277-.437,2.086,2.086,0,0,0-1.234.375,2.546,2.546,0,0,0-.828.984V15h-1.445V6.547ZM120.555,15h-1.445V6.547h1.445ZM118.992,4.3a.863.863,0,0,1,.215-.594.807.807,0,0,1,.637-.242.819.819,0,0,1,.641.242.854.854,0,0,1,.219.594.826.826,0,0,1-.219.586.834.834,0,0,1-.641.234.821.821,0,0,1-.637-.234A.834.834,0,0,1,118.992,4.3Zm5.234,9.516h4.945V15h-6.711V13.938l4.664-6.2h-4.594v-1.2h6.406V7.57ZM136.016,15a3.036,3.036,0,0,1-.2-.891,3.225,3.225,0,0,1-2.406,1.047,2.984,2.984,0,0,1-2.051-.707,2.287,2.287,0,0,1-.8-1.793,2.39,2.39,0,0,1,1-2.051,4.733,4.733,0,0,1,2.824-.73h1.406V9.211A1.623,1.623,0,0,0,135.336,8,1.821,1.821,0,0,0,134,7.555a2.107,2.107,0,0,0-1.3.391,1.151,1.151,0,0,0-.523.945h-1.453a2,2,0,0,1,.449-1.223,3.066,3.066,0,0,1,1.219-.934,4.1,4.1,0,0,1,1.691-.344,3.342,3.342,0,0,1,2.289.73,2.635,2.635,0,0,1,.859,2.012v3.891a4.757,4.757,0,0,0,.3,1.852V15Zm-2.4-1.1a2.54,2.54,0,0,0,1.289-.352,2.127,2.127,0,0,0,.883-.914V10.9h-1.133Q132,10.9,132,12.453a1.316,1.316,0,0,0,.453,1.063A1.742,1.742,0,0,0,133.617,13.9Zm9.273.078a2.082,2.082,0,0,0,1.352-.469,1.649,1.649,0,0,0,.641-1.172h1.367a2.621,2.621,0,0,1-.5,1.383,3.293,3.293,0,0,1-1.23,1.047,3.55,3.55,0,0,1-1.629.391A3.482,3.482,0,0,1,140.145,14a4.59,4.59,0,0,1-1.02-3.152v-.242a5.089,5.089,0,0,1,.453-2.2,3.451,3.451,0,0,1,1.3-1.492,3.7,3.7,0,0,1,2-.531,3.39,3.39,0,0,1,2.363.852,3.043,3.043,0,0,1,1,2.211h-1.367a1.992,1.992,0,0,0-.621-1.348,1.932,1.932,0,0,0-1.379-.527,2.023,2.023,0,0,0-1.707.793,3.724,3.724,0,0,0-.605,2.293v.273a3.65,3.65,0,0,0,.6,2.25A2.033,2.033,0,0,0,142.891,13.977ZM149.445,15H148V6.547h1.445ZM147.883,4.3a.863.863,0,0,1,.215-.594.807.807,0,0,1,.637-.242.819.819,0,0,1,.641.242.854.854,0,0,1,.219.594.826.826,0,0,1-.219.586.834.834,0,0,1-.641.234.821.821,0,0,1-.637-.234A.834.834,0,0,1,147.883,4.3Zm3.492,6.391a4.993,4.993,0,0,1,.488-2.234,3.642,3.642,0,0,1,1.359-1.531,3.7,3.7,0,0,1,1.988-.539A3.565,3.565,0,0,1,158,7.586a4.6,4.6,0,0,1,1.066,3.18v.1a5.036,5.036,0,0,1-.473,2.215,3.589,3.589,0,0,1-1.352,1.527,3.743,3.743,0,0,1-2.02.547,3.556,3.556,0,0,1-2.785-1.2,4.575,4.575,0,0,1-1.066-3.164Zm1.453.172a3.616,3.616,0,0,0,.652,2.258,2.211,2.211,0,0,0,3.5-.012,3.954,3.954,0,0,0,.648-2.418,3.61,3.61,0,0,0-.66-2.254,2.1,2.1,0,0,0-1.754-.863,2.075,2.075,0,0,0-1.727.852A3.925,3.925,0,0,0,152.828,10.867Zm9.422-4.32.047,1.063a3.08,3.08,0,0,1,2.531-1.219q2.68,0,2.7,3.023V15h-1.445V9.406a1.946,1.946,0,0,0-.418-1.352,1.675,1.675,0,0,0-1.277-.437,2.086,2.086,0,0,0-1.234.375,2.546,2.546,0,0,0-.828.984V15h-1.445V6.547ZM174.93,15a3.036,3.036,0,0,1-.2-.891,3.225,3.225,0,0,1-2.406,1.047,2.984,2.984,0,0,1-2.051-.707,2.287,2.287,0,0,1-.8-1.793,2.39,2.39,0,0,1,1-2.051,4.733,4.733,0,0,1,2.824-.73H174.7V9.211A1.623,1.623,0,0,0,174.25,8a1.821,1.821,0,0,0-1.336-.449,2.107,2.107,0,0,0-1.3.391,1.151,1.151,0,0,0-.523.945h-1.453a2,2,0,0,1,.449-1.223,3.066,3.066,0,0,1,1.219-.934A4.1,4.1,0,0,1,173,6.391a3.342,3.342,0,0,1,2.289.73,2.635,2.635,0,0,1,.859,2.012v3.891a4.757,4.757,0,0,0,.3,1.852V15Zm-2.4-1.1a2.54,2.54,0,0,0,1.289-.352,2.127,2.127,0,0,0,.883-.914V10.9H173.57q-2.656,0-2.656,1.555a1.316,1.316,0,0,0,.453,1.063A1.742,1.742,0,0,0,172.531,13.9Zm7.453,1.1h-1.445V3h1.445Zm2.344-.758a.905.905,0,0,1,.223-.625.848.848,0,0,1,.668-.25.874.874,0,0,1,.676.25.887.887,0,0,1,.23.625.839.839,0,0,1-.23.6.89.89,0,0,1-.676.242.8.8,0,0,1-.891-.844Z" transform="translate(548 2975)" fill="#12263f"/>
    <path id="Trazado_611201" data-name="Trazado 611201" d="M4.672,9.93A7.053,7.053,0,0,1,1.863,8.566a2.6,2.6,0,0,1-.879-2A2.751,2.751,0,0,1,2.059,4.348a4.269,4.269,0,0,1,2.793-.879,4.66,4.66,0,0,1,2.09.453,3.436,3.436,0,0,1,1.422,1.25,3.2,3.2,0,0,1,.5,1.742H7.359A2.08,2.08,0,0,0,6.7,5.287,2.669,2.669,0,0,0,4.852,4.7a2.732,2.732,0,0,0-1.73.489A1.632,1.632,0,0,0,2.5,6.542,1.468,1.468,0,0,0,3.09,7.72,5.785,5.785,0,0,0,5.1,8.6a9.316,9.316,0,0,1,2.219.88A3.367,3.367,0,0,1,8.5,10.6a2.861,2.861,0,0,1,.387,1.508,2.658,2.658,0,0,1-1.078,2.215,4.6,4.6,0,0,1-2.883.832,5.347,5.347,0,0,1-2.187-.449,3.681,3.681,0,0,1-1.566-1.23A3,3,0,0,1,.625,11.7H2.133a1.959,1.959,0,0,0,.762,1.629,3.207,3.207,0,0,0,2.035.6,2.948,2.948,0,0,0,1.82-.484,1.573,1.573,0,0,0,.633-1.32A1.545,1.545,0,0,0,6.8,10.832,6.755,6.755,0,0,0,4.672,9.93ZM12.547,4.5V6.547h1.578V7.664H12.547v5.249a1.173,1.173,0,0,0,.211.763.888.888,0,0,0,.719.254,3.5,3.5,0,0,0,.688-.094V15a4.215,4.215,0,0,1-1.109.155,1.8,1.8,0,0,1-1.461-.586,2.517,2.517,0,0,1-.492-1.664V7.664H9.563V6.547H11.1V4.5ZM21.031,15a3.036,3.036,0,0,1-.2-.891,3.225,3.225,0,0,1-2.406,1.047,2.984,2.984,0,0,1-2.051-.707,2.287,2.287,0,0,1-.8-1.793,2.39,2.39,0,0,1,1-2.051,4.733,4.733,0,0,1,2.824-.73H20.8V9.211A1.623,1.623,0,0,0,20.352,8a1.821,1.821,0,0,0-1.336-.449,2.108,2.108,0,0,0-1.3.391,1.151,1.151,0,0,0-.523.945H15.742a2,2,0,0,1,.449-1.223,3.066,3.066,0,0,1,1.219-.934A4.1,4.1,0,0,1,19.1,6.391a3.342,3.342,0,0,1,2.289.73,2.635,2.635,0,0,1,.859,2.012v3.891a4.757,4.757,0,0,0,.3,1.852V15Zm-2.4-1.1a2.54,2.54,0,0,0,1.289-.352,2.127,2.127,0,0,0,.883-.914V10.9H19.672q-2.656,0-2.656,1.555a1.316,1.316,0,0,0,.453,1.063A1.742,1.742,0,0,0,18.633,13.9Zm7.25-7.352.047,1.063a3.08,3.08,0,0,1,2.531-1.219q2.68,0,2.7,3.023V15H29.719V9.406A1.946,1.946,0,0,0,29.3,8.055a1.675,1.675,0,0,0-1.277-.437,2.086,2.086,0,0,0-1.234.375,2.546,2.546,0,0,0-.828.984V15H24.516V6.547ZM32.992,10.7a4.952,4.952,0,0,1,.922-3.129,3.137,3.137,0,0,1,4.766-.168V3h1.445V15H38.8l-.07-.906a2.943,2.943,0,0,1-2.414,1.063,2.887,2.887,0,0,1-2.395-1.2,5.008,5.008,0,0,1-.926-3.141Zm1.445.164a3.749,3.749,0,0,0,.594,2.25,1.92,1.92,0,0,0,1.641.813A2.108,2.108,0,0,0,38.68,12.7V8.813a2.125,2.125,0,0,0-1.992-1.2,1.929,1.929,0,0,0-1.656.82A4.128,4.128,0,0,0,34.438,10.867ZM47.586,15a3.036,3.036,0,0,1-.2-.891,3.225,3.225,0,0,1-2.406,1.047,2.984,2.984,0,0,1-2.051-.707,2.287,2.287,0,0,1-.8-1.793,2.39,2.39,0,0,1,1-2.051,4.733,4.733,0,0,1,2.824-.73h1.406V9.211A1.623,1.623,0,0,0,46.906,8a1.821,1.821,0,0,0-1.336-.449,2.107,2.107,0,0,0-1.3.391,1.151,1.151,0,0,0-.523.945H42.3a2,2,0,0,1,.449-1.223,3.066,3.066,0,0,1,1.219-.934,4.1,4.1,0,0,1,1.691-.344,3.342,3.342,0,0,1,2.289.73A2.635,2.635,0,0,1,48.8,9.133v3.891a4.757,4.757,0,0,0,.3,1.852V15Zm-2.4-1.1a2.54,2.54,0,0,0,1.289-.352,2.127,2.127,0,0,0,.883-.914V10.9H46.227q-2.656,0-2.656,1.555a1.316,1.316,0,0,0,.453,1.063A1.742,1.742,0,0,0,45.188,13.9Zm9.969-6.055a4.331,4.331,0,0,0-.711-.055A1.9,1.9,0,0,0,52.516,9v6H51.07V6.547h1.406l.023.977a2.251,2.251,0,0,1,2.016-1.133,1.477,1.477,0,0,1,.641.109Zm.828,2.859a4.952,4.952,0,0,1,.922-3.129,3.137,3.137,0,0,1,4.766-.168V3h1.445V15H61.789l-.07-.906A2.943,2.943,0,0,1,59.3,15.156a2.887,2.887,0,0,1-2.395-1.2,5.008,5.008,0,0,1-.926-3.141Zm1.445.164a3.749,3.749,0,0,0,.594,2.25,1.92,1.92,0,0,0,1.641.813A2.108,2.108,0,0,0,61.672,12.7V8.813a2.125,2.125,0,0,0-1.992-1.2,1.929,1.929,0,0,0-1.656.82A4.128,4.128,0,0,0,57.43,10.867ZM68.969,10.7a4.952,4.952,0,0,1,.922-3.129,3.137,3.137,0,0,1,4.766-.168V3H76.1V15H74.773l-.07-.906a2.943,2.943,0,0,1-2.414,1.063,2.887,2.887,0,0,1-2.395-1.2,5.008,5.008,0,0,1-.926-3.141Zm1.445.164a3.749,3.749,0,0,0,.594,2.25,1.92,1.92,0,0,0,1.641.813A2.108,2.108,0,0,0,74.656,12.7V8.813a2.125,2.125,0,0,0-1.992-1.2,1.929,1.929,0,0,0-1.656.82A4.128,4.128,0,0,0,70.414,10.867Zm11.438,4.289a3.693,3.693,0,0,1-2.8-1.129,4.19,4.19,0,0,1-1.078-3.02v-.266a5.073,5.073,0,0,1,.48-2.246A3.748,3.748,0,0,1,79.8,6.949a3.378,3.378,0,0,1,1.871-.559,3.166,3.166,0,0,1,2.563,1.086,4.7,4.7,0,0,1,.914,3.109v.6H79.422a3,3,0,0,0,.73,2.02,2.3,2.3,0,0,0,1.777.77,2.517,2.517,0,0,0,1.3-.312,3.259,3.259,0,0,0,.93-.828l.883.688A3.55,3.55,0,0,1,81.852,15.156Zm-.18-7.578a1.928,1.928,0,0,0-1.469.637A3.1,3.1,0,0,0,79.469,10H83.7V9.891a2.753,2.753,0,0,0-.594-1.707A1.815,1.815,0,0,0,81.672,7.578Zm12.5,6.4a2.082,2.082,0,0,0,1.352-.469,1.649,1.649,0,0,0,.641-1.172h1.367a2.621,2.621,0,0,1-.5,1.383,3.293,3.293,0,0,1-1.23,1.047,3.55,3.55,0,0,1-1.629.391A3.482,3.482,0,0,1,91.426,14a4.59,4.59,0,0,1-1.02-3.152v-.242a5.089,5.089,0,0,1,.453-2.2,3.451,3.451,0,0,1,1.3-1.492,3.7,3.7,0,0,1,2-.531,3.39,3.39,0,0,1,2.363.852,3.043,3.043,0,0,1,1,2.211H96.164a1.992,1.992,0,0,0-.621-1.348,1.932,1.932,0,0,0-1.379-.527,2.023,2.023,0,0,0-1.707.793,3.724,3.724,0,0,0-.605,2.293v.273a3.65,3.65,0,0,0,.6,2.25A2.033,2.033,0,0,0,94.172,13.977ZM104.375,15a3.036,3.036,0,0,1-.2-.891,3.225,3.225,0,0,1-2.406,1.047,2.984,2.984,0,0,1-2.051-.707,2.288,2.288,0,0,1-.8-1.793,2.39,2.39,0,0,1,1-2.051,4.733,4.733,0,0,1,2.824-.73h1.406V9.211A1.623,1.623,0,0,0,103.7,8a1.821,1.821,0,0,0-1.336-.449,2.108,2.108,0,0,0-1.3.391,1.151,1.151,0,0,0-.523.945H99.086a2,2,0,0,1,.449-1.223,3.066,3.066,0,0,1,1.219-.934,4.1,4.1,0,0,1,1.691-.344,3.342,3.342,0,0,1,2.289.73,2.635,2.635,0,0,1,.859,2.012v3.891a4.757,4.757,0,0,0,.3,1.852V15Zm-2.4-1.1a2.54,2.54,0,0,0,1.289-.352,2.127,2.127,0,0,0,.883-.914V10.9h-1.133q-2.656,0-2.656,1.555a1.316,1.316,0,0,0,.453,1.063A1.742,1.742,0,0,0,101.977,13.9ZM109.43,15h-1.445V3h1.445Zm3.883,0h-1.445V6.547h1.445ZM111.75,4.3a.863.863,0,0,1,.215-.594.807.807,0,0,1,.637-.242.819.819,0,0,1,.641.242.854.854,0,0,1,.219.594.826.826,0,0,1-.219.586.834.834,0,0,1-.641.234.821.821,0,0,1-.637-.234A.834.834,0,0,1,111.75,4.3Zm3.523,6.4a4.952,4.952,0,0,1,.922-3.129,3.137,3.137,0,0,1,4.766-.168V3h1.445V15h-1.328l-.07-.906a2.943,2.943,0,0,1-2.414,1.063,2.887,2.887,0,0,1-2.395-1.2,5.008,5.008,0,0,1-.926-3.141Zm1.445.164a3.749,3.749,0,0,0,.594,2.25,1.92,1.92,0,0,0,1.641.813,2.108,2.108,0,0,0,2.008-1.234V8.813a2.125,2.125,0,0,0-1.992-1.2,1.929,1.929,0,0,0-1.656.82A4.128,4.128,0,0,0,116.719,10.867ZM129.867,15a3.036,3.036,0,0,1-.2-.891,3.225,3.225,0,0,1-2.406,1.047,2.984,2.984,0,0,1-2.051-.707,2.288,2.288,0,0,1-.8-1.793,2.39,2.39,0,0,1,1-2.051,4.733,4.733,0,0,1,2.824-.73h1.406V9.211A1.623,1.623,0,0,0,129.188,8a1.821,1.821,0,0,0-1.336-.449,2.108,2.108,0,0,0-1.3.391,1.151,1.151,0,0,0-.523.945h-1.453a2,2,0,0,1,.449-1.223,3.066,3.066,0,0,1,1.219-.934,4.1,4.1,0,0,1,1.691-.344,3.342,3.342,0,0,1,2.289.73,2.635,2.635,0,0,1,.859,2.012v3.891a4.757,4.757,0,0,0,.3,1.852V15Zm-2.4-1.1a2.54,2.54,0,0,0,1.289-.352,2.127,2.127,0,0,0,.883-.914V10.9h-1.133q-2.656,0-2.656,1.555a1.316,1.316,0,0,0,.453,1.063A1.742,1.742,0,0,0,127.469,13.9ZM133,10.7a4.952,4.952,0,0,1,.922-3.129,3.137,3.137,0,0,1,4.766-.168V3h1.445V15H138.8l-.07-.906a2.943,2.943,0,0,1-2.414,1.063,2.887,2.887,0,0,1-2.395-1.2A5.008,5.008,0,0,1,133,10.813Zm1.445.164a3.749,3.749,0,0,0,.594,2.25,1.919,1.919,0,0,0,1.641.813,2.108,2.108,0,0,0,2.008-1.234V8.813a2.125,2.125,0,0,0-1.992-1.2,1.929,1.929,0,0,0-1.656.82A4.128,4.128,0,0,0,134.445,10.867Zm11.539-.164a4.952,4.952,0,0,1,.922-3.129,3.137,3.137,0,0,1,4.766-.168V3h1.445V15h-1.328l-.07-.906a2.943,2.943,0,0,1-2.414,1.063,2.887,2.887,0,0,1-2.395-1.2,5.008,5.008,0,0,1-.926-3.141Zm1.445.164a3.749,3.749,0,0,0,.594,2.25,1.919,1.919,0,0,0,1.641.813,2.108,2.108,0,0,0,2.008-1.234V8.813a2.125,2.125,0,0,0-1.992-1.2,1.929,1.929,0,0,0-1.656.82A4.128,4.128,0,0,0,147.43,10.867Zm11.438,4.289a3.693,3.693,0,0,1-2.8-1.129,4.19,4.19,0,0,1-1.078-3.02v-.266a5.073,5.073,0,0,1,.48-2.246,3.748,3.748,0,0,1,1.344-1.547,3.378,3.378,0,0,1,1.871-.559,3.166,3.166,0,0,1,2.563,1.086,4.7,4.7,0,0,1,.914,3.109v.6h-5.727a3,3,0,0,0,.73,2.02,2.3,2.3,0,0,0,1.777.77,2.517,2.517,0,0,0,1.3-.312,3.258,3.258,0,0,0,.93-.828l.883.688A3.55,3.55,0,0,1,158.867,15.156Zm-.18-7.578a1.928,1.928,0,0,0-1.469.637A3.1,3.1,0,0,0,156.484,10h4.234V9.891a2.753,2.753,0,0,0-.594-1.707A1.815,1.815,0,0,0,158.688,7.578Zm12.5,6.4a2.082,2.082,0,0,0,1.352-.469,1.649,1.649,0,0,0,.641-1.172h1.367a2.621,2.621,0,0,1-.5,1.383,3.293,3.293,0,0,1-1.23,1.047,3.55,3.55,0,0,1-1.629.391A3.482,3.482,0,0,1,168.441,14a4.59,4.59,0,0,1-1.02-3.152v-.242a5.089,5.089,0,0,1,.453-2.2,3.451,3.451,0,0,1,1.3-1.492,3.7,3.7,0,0,1,2-.531,3.39,3.39,0,0,1,2.363.852,3.043,3.043,0,0,1,1,2.211H173.18a1.992,1.992,0,0,0-.621-1.348,1.932,1.932,0,0,0-1.379-.527,2.023,2.023,0,0,0-1.707.793,3.724,3.724,0,0,0-.605,2.293v.273a3.65,3.65,0,0,0,.6,2.25A2.033,2.033,0,0,0,171.188,13.977Zm9.07-6.133a4.331,4.331,0,0,0-.711-.055A1.9,1.9,0,0,0,177.617,9v6h-1.445V6.547h1.406l.023.977a2.251,2.251,0,0,1,2.016-1.133,1.477,1.477,0,0,1,.641.109Zm4.688,7.313a3.693,3.693,0,0,1-2.8-1.129,4.19,4.19,0,0,1-1.078-3.02v-.266a5.073,5.073,0,0,1,.48-2.246,3.748,3.748,0,0,1,1.344-1.547,3.378,3.378,0,0,1,1.871-.559,3.166,3.166,0,0,1,2.563,1.086,4.7,4.7,0,0,1,.914,3.109v.6h-5.727a3,3,0,0,0,.73,2.02,2.3,2.3,0,0,0,1.777.77,2.517,2.517,0,0,0,1.3-.312,3.258,3.258,0,0,0,.93-.828l.883.688A3.55,3.55,0,0,1,184.945,15.156Zm-.18-7.578a1.928,1.928,0,0,0-1.469.637A3.1,3.1,0,0,0,182.563,10H186.8V9.891a2.753,2.753,0,0,0-.594-1.707A1.815,1.815,0,0,0,184.766,7.578Zm.7-4.578h1.75l-2.094,2.3-1.164,0Zm4.094,7.7a4.952,4.952,0,0,1,.922-3.129,3.137,3.137,0,0,1,4.766-.168V3H196.7V15h-1.328l-.07-.906a2.943,2.943,0,0,1-2.414,1.063,2.887,2.887,0,0,1-2.395-1.2,5.008,5.008,0,0,1-.926-3.141Zm1.445.164a3.749,3.749,0,0,0,.594,2.25,1.919,1.919,0,0,0,1.641.813A2.108,2.108,0,0,0,195.25,12.7V8.813a2.125,2.125,0,0,0-1.992-1.2,1.929,1.929,0,0,0-1.656.82A4.128,4.128,0,0,0,191.008,10.867Zm9.5,4.133h-1.445V6.547h1.445ZM198.945,4.3a.863.863,0,0,1,.215-.594.807.807,0,0,1,.637-.242.819.819,0,0,1,.641.242.854.854,0,0,1,.219.594.826.826,0,0,1-.219.586.834.834,0,0,1-.641.234.821.821,0,0,1-.637-.234A.834.834,0,0,1,198.945,4.3Zm5.836.2V6.547h1.578V7.664h-1.578v5.249a1.173,1.173,0,0,0,.211.763.888.888,0,0,0,.719.254,3.5,3.5,0,0,0,.688-.094V15a4.215,4.215,0,0,1-1.109.155,1.8,1.8,0,0,1-1.461-.586,2.517,2.517,0,0,1-.492-1.664V7.664H201.8V6.547h1.539V4.5Zm2.727,6.2A4.993,4.993,0,0,1,208,8.461a3.642,3.642,0,0,1,1.359-1.531,3.7,3.7,0,0,1,1.988-.539,3.565,3.565,0,0,1,2.793,1.2,4.6,4.6,0,0,1,1.066,3.18v.1a5.036,5.036,0,0,1-.473,2.215,3.589,3.589,0,0,1-1.352,1.527,3.743,3.743,0,0,1-2.02.547,3.556,3.556,0,0,1-2.785-1.2,4.575,4.575,0,0,1-1.066-3.164Zm1.453.172a3.616,3.616,0,0,0,.652,2.258,2.211,2.211,0,0,0,3.5-.012,3.954,3.954,0,0,0,.648-2.418,3.61,3.61,0,0,0-.66-2.254,2.1,2.1,0,0,0-1.754-.863,2.075,2.075,0,0,0-1.727.852A3.925,3.925,0,0,0,208.961,10.867Zm12.977,1.891a1.064,1.064,0,0,0-.441-.91,4.249,4.249,0,0,0-1.539-.559,7.277,7.277,0,0,1-1.742-.562,2.479,2.479,0,0,1-.953-.781,1.869,1.869,0,0,1-.309-1.078,2.193,2.193,0,0,1,.879-1.758,3.432,3.432,0,0,1,2.246-.719,3.532,3.532,0,0,1,2.332.742,2.357,2.357,0,0,1,.895,1.9h-1.453a1.3,1.3,0,0,0-.5-1.023,1.888,1.888,0,0,0-1.27-.43,1.976,1.976,0,0,0-1.234.344,1.082,1.082,0,0,0-.445.9.877.877,0,0,0,.414.789,5.1,5.1,0,0,0,1.5.508,7.8,7.8,0,0,1,1.754.578,2.558,2.558,0,0,1,1,.809,1.988,1.988,0,0,1,.324,1.152,2.163,2.163,0,0,1-.906,1.816,3.8,3.8,0,0,1-2.352.684,4.257,4.257,0,0,1-1.8-.359,2.922,2.922,0,0,1-1.223-1,2.42,2.42,0,0,1-.441-1.395h1.445a1.5,1.5,0,0,0,.582,1.152,2.258,2.258,0,0,0,1.434.426,2.331,2.331,0,0,0,1.316-.332A1.02,1.02,0,0,0,221.938,12.758Zm3.359,1.484a.905.905,0,0,1,.223-.625.848.848,0,0,1,.668-.25.874.874,0,0,1,.676.25.887.887,0,0,1,.23.625.839.839,0,0,1-.23.6.89.89,0,0,1-.676.242.8.8,0,0,1-.891-.844ZM1.32,63V51.625H4.531a5.169,5.169,0,0,1,2.625.656,4.438,4.438,0,0,1,1.762,1.867,6.078,6.078,0,0,1,.629,2.781v.727a6.1,6.1,0,0,1-.621,2.82,4.369,4.369,0,0,1-1.773,1.859A5.5,5.5,0,0,1,4.469,63Zm1.5-10.148v8.922H4.4a3.434,3.434,0,0,0,2.7-1.079,4.458,4.458,0,0,0,.965-3.073v-.665a4.529,4.529,0,0,0-.91-3.014A3.239,3.239,0,0,0,4.57,52.852Zm12.273,10.3a3.693,3.693,0,0,1-2.8-1.129,4.19,4.19,0,0,1-1.078-3.02v-.266A5.073,5.073,0,0,1,11.7,56.5a3.748,3.748,0,0,1,1.344-1.547,3.378,3.378,0,0,1,1.871-.559,3.166,3.166,0,0,1,2.563,1.086,4.7,4.7,0,0,1,.914,3.109v.6H12.664a3,3,0,0,0,.73,2.02,2.3,2.3,0,0,0,1.777.77,2.517,2.517,0,0,0,1.3-.312,3.259,3.259,0,0,0,.93-.828l.883.688A3.55,3.55,0,0,1,15.094,63.156Zm-.18-7.578a1.928,1.928,0,0,0-1.469.637A3.1,3.1,0,0,0,12.711,58h4.234v-.109a2.753,2.753,0,0,0-.594-1.707A1.815,1.815,0,0,0,14.914,55.578ZM22.023,52.5v2.047H23.6v1.117H22.023v5.249a1.173,1.173,0,0,0,.211.763.888.888,0,0,0,.719.254,3.5,3.5,0,0,0,.688-.094V63a4.215,4.215,0,0,1-1.109.155,1.8,1.8,0,0,1-1.461-.586,2.517,2.517,0,0,1-.492-1.664V55.664H19.039V54.547h1.539V52.5ZM28.8,63.156A3.693,3.693,0,0,1,26,62.027a4.19,4.19,0,0,1-1.078-3.02v-.266A5.073,5.073,0,0,1,25.4,56.5a3.748,3.748,0,0,1,1.344-1.547,3.378,3.378,0,0,1,1.871-.559,3.166,3.166,0,0,1,2.563,1.086,4.7,4.7,0,0,1,.914,3.109v.6H26.367a3,3,0,0,0,.73,2.02,2.3,2.3,0,0,0,1.777.77,2.517,2.517,0,0,0,1.3-.312,3.259,3.259,0,0,0,.93-.828l.883.688A3.55,3.55,0,0,1,28.8,63.156Zm-.18-7.578a1.928,1.928,0,0,0-1.469.637A3.1,3.1,0,0,0,26.414,58h4.234v-.109a2.753,2.753,0,0,0-.594-1.707A1.815,1.815,0,0,0,28.617,55.578Zm9.234.266a4.331,4.331,0,0,0-.711-.055A1.9,1.9,0,0,0,35.211,57v6H33.766V54.547h1.406l.023.977a2.251,2.251,0,0,1,2.016-1.133,1.477,1.477,0,0,1,.641.109Zm2.688-1.3.039.938a3.122,3.122,0,0,1,2.508-1.094A2.417,2.417,0,0,1,45.5,55.75a3.2,3.2,0,0,1,1.1-.984,3.242,3.242,0,0,1,1.6-.375q2.781,0,2.828,2.945V63H49.578V57.422a1.941,1.941,0,0,0-.414-1.355,1.823,1.823,0,0,0-1.391-.449,1.916,1.916,0,0,0-1.336.48,1.949,1.949,0,0,0-.617,1.293V63H44.367V57.461a1.613,1.613,0,0,0-1.8-1.844,1.934,1.934,0,0,0-1.945,1.211V63H39.172V54.547ZM54.773,63H53.328V54.547h1.445ZM53.211,52.3a.863.863,0,0,1,.215-.594.807.807,0,0,1,.637-.242.819.819,0,0,1,.641.242.854.854,0,0,1,.219.594.826.826,0,0,1-.219.586.834.834,0,0,1-.641.234.821.821,0,0,1-.637-.234A.834.834,0,0,1,53.211,52.3Zm5.242,2.242.047,1.063a3.08,3.08,0,0,1,2.531-1.219q2.68,0,2.7,3.023V63H62.289V57.406a1.946,1.946,0,0,0-.418-1.352,1.675,1.675,0,0,0-1.277-.437,2.086,2.086,0,0,0-1.234.375,2.546,2.546,0,0,0-.828.984V63H57.086V54.547ZM71.133,63a3.036,3.036,0,0,1-.2-.891,3.225,3.225,0,0,1-2.406,1.047,2.984,2.984,0,0,1-2.051-.707,2.288,2.288,0,0,1-.8-1.793,2.39,2.39,0,0,1,1-2.051,4.733,4.733,0,0,1,2.824-.73h1.406v-.664A1.623,1.623,0,0,0,70.453,56a1.821,1.821,0,0,0-1.336-.449,2.107,2.107,0,0,0-1.3.391,1.151,1.151,0,0,0-.523.945H65.844a2,2,0,0,1,.449-1.223,3.066,3.066,0,0,1,1.219-.934,4.1,4.1,0,0,1,1.691-.344,3.342,3.342,0,0,1,2.289.73,2.635,2.635,0,0,1,.859,2.012v3.891a4.757,4.757,0,0,0,.3,1.852V63Zm-2.4-1.1a2.54,2.54,0,0,0,1.289-.352,2.127,2.127,0,0,0,.883-.914V58.9H69.773q-2.656,0-2.656,1.555a1.316,1.316,0,0,0,.453,1.063A1.742,1.742,0,0,0,68.734,61.9ZM78.7,55.844a4.331,4.331,0,0,0-.711-.055A1.9,1.9,0,0,0,76.063,57v6H74.617V54.547h1.406l.023.977a2.251,2.251,0,0,1,2.016-1.133,1.477,1.477,0,0,1,.641.109Zm6.734-.273a3.073,3.073,0,0,1,2.5-1.18q2.68,0,2.7,3.023V63H89.2V57.406a1.946,1.946,0,0,0-.418-1.352,1.675,1.675,0,0,0-1.277-.437,2.086,2.086,0,0,0-1.234.375,2.546,2.546,0,0,0-.828.984V63H83.992V51h1.445ZM98.023,63a3.036,3.036,0,0,1-.2-.891,3.225,3.225,0,0,1-2.406,1.047,2.984,2.984,0,0,1-2.051-.707,2.288,2.288,0,0,1-.8-1.793,2.39,2.39,0,0,1,1-2.051,4.733,4.733,0,0,1,2.824-.73H97.8v-.664A1.623,1.623,0,0,0,97.344,56a1.821,1.821,0,0,0-1.336-.449,2.107,2.107,0,0,0-1.3.391,1.151,1.151,0,0,0-.523.945H92.734a2,2,0,0,1,.449-1.223,3.066,3.066,0,0,1,1.219-.934,4.1,4.1,0,0,1,1.691-.344,3.342,3.342,0,0,1,2.289.73,2.635,2.635,0,0,1,.859,2.012v3.891a4.757,4.757,0,0,0,.3,1.852V63Zm-2.4-1.1a2.54,2.54,0,0,0,1.289-.352,2.127,2.127,0,0,0,.883-.914V58.9H96.664q-2.656,0-2.656,1.555a1.316,1.316,0,0,0,.453,1.063A1.742,1.742,0,0,0,95.625,61.9Zm10.8-1.141a1.064,1.064,0,0,0-.441-.91,4.249,4.249,0,0,0-1.539-.559,7.277,7.277,0,0,1-1.742-.562,2.479,2.479,0,0,1-.953-.781,1.869,1.869,0,0,1-.309-1.078,2.193,2.193,0,0,1,.879-1.758,3.432,3.432,0,0,1,2.246-.719,3.532,3.532,0,0,1,2.332.742,2.357,2.357,0,0,1,.895,1.9h-1.453a1.3,1.3,0,0,0-.5-1.023,1.888,1.888,0,0,0-1.27-.43,1.976,1.976,0,0,0-1.234.344,1.082,1.082,0,0,0-.445.9.877.877,0,0,0,.414.789,5.1,5.1,0,0,0,1.5.508,7.8,7.8,0,0,1,1.754.578,2.558,2.558,0,0,1,1,.809,1.988,1.988,0,0,1,.324,1.152,2.163,2.163,0,0,1-.906,1.816,3.8,3.8,0,0,1-2.352.684,4.257,4.257,0,0,1-1.8-.359,2.922,2.922,0,0,1-1.223-1,2.42,2.42,0,0,1-.441-1.395H102.6a1.5,1.5,0,0,0,.582,1.152,2.258,2.258,0,0,0,1.434.426,2.331,2.331,0,0,0,1.316-.332A1.02,1.02,0,0,0,106.43,60.758Zm5.289-8.258v2.047H113.3v1.117h-1.578v5.249a1.173,1.173,0,0,0,.211.763.888.888,0,0,0,.719.254,3.5,3.5,0,0,0,.688-.094V63a4.215,4.215,0,0,1-1.109.155,1.8,1.8,0,0,1-1.461-.586,2.517,2.517,0,0,1-.492-1.664V55.664h-1.539V54.547h1.539V52.5ZM120.2,63a3.036,3.036,0,0,1-.2-.891,3.225,3.225,0,0,1-2.406,1.047,2.984,2.984,0,0,1-2.051-.707,2.288,2.288,0,0,1-.8-1.793,2.39,2.39,0,0,1,1-2.051,4.733,4.733,0,0,1,2.824-.73h1.406v-.664A1.623,1.623,0,0,0,119.523,56a1.821,1.821,0,0,0-1.336-.449,2.107,2.107,0,0,0-1.3.391,1.151,1.151,0,0,0-.523.945h-1.453a2,2,0,0,1,.449-1.223,3.066,3.066,0,0,1,1.219-.934,4.1,4.1,0,0,1,1.691-.344,3.342,3.342,0,0,1,2.289.73,2.635,2.635,0,0,1,.859,2.012v3.891a4.757,4.757,0,0,0,.3,1.852V63Zm-2.4-1.1a2.54,2.54,0,0,0,1.289-.352,2.127,2.127,0,0,0,.883-.914V58.9h-1.133q-2.656,0-2.656,1.555a1.316,1.316,0,0,0,.453,1.063A1.742,1.742,0,0,0,117.8,61.9Zm9.492-3.2a4.961,4.961,0,0,1,.914-3.152,3.226,3.226,0,0,1,4.82-.152l.063-.852h1.328v11.7h-1.445V62.219a3.033,3.033,0,0,1-2.328.938,2.915,2.915,0,0,1-2.441-1.191,5.072,5.072,0,0,1-.91-3.16Zm1.445.164a3.761,3.761,0,0,0,.613,2.281,1.951,1.951,0,0,0,1.652.828,2.164,2.164,0,0,0,1.969-1.141V56.7a2.171,2.171,0,0,0-1.953-1.117,1.965,1.965,0,0,0-1.664.832A4.094,4.094,0,0,0,128.742,58.867Zm13.219,3.3a3.07,3.07,0,0,1-2.477.992,2.628,2.628,0,0,1-2.059-.785,3.4,3.4,0,0,1-.715-2.324v-5.5h1.445v5.461q0,1.922,1.563,1.922a2.163,2.163,0,0,0,2.2-1.234V54.547h1.445V63h-1.375Zm7.109.992a3.693,3.693,0,0,1-2.8-1.129,4.19,4.19,0,0,1-1.078-3.02v-.266a5.073,5.073,0,0,1,.48-2.246,3.748,3.748,0,0,1,1.344-1.547,3.378,3.378,0,0,1,1.871-.559,3.166,3.166,0,0,1,2.563,1.086,4.7,4.7,0,0,1,.914,3.109v.6h-5.727a3,3,0,0,0,.73,2.02,2.3,2.3,0,0,0,1.777.77,2.517,2.517,0,0,0,1.3-.312,3.258,3.258,0,0,0,.93-.828l.883.688A3.55,3.55,0,0,1,149.07,63.156Zm-.18-7.578a1.928,1.928,0,0,0-1.469.637A3.1,3.1,0,0,0,146.688,58h4.234v-.109a2.753,2.753,0,0,0-.594-1.707A1.815,1.815,0,0,0,148.891,55.578Zm.7-4.578h1.75l-2.094,2.3-1.164,0Zm9.773,3.547.047,1.063a3.08,3.08,0,0,1,2.531-1.219q2.68,0,2.7,3.023V63H163.2V57.406a1.946,1.946,0,0,0-.418-1.352,1.675,1.675,0,0,0-1.277-.437,2.086,2.086,0,0,0-1.234.375,2.546,2.546,0,0,0-.828.984V63H158V54.547ZM168.4,63h-1.445V54.547H168.4Zm-1.562-10.7a.863.863,0,0,1,.215-.594.807.807,0,0,1,.637-.242.819.819,0,0,1,.641.242.854.854,0,0,1,.219.594.826.826,0,0,1-.219.586.834.834,0,0,1-.641.234.821.821,0,0,1-.637-.234A.834.834,0,0,1,166.836,52.3Zm6.664,8.734,2.094-6.492h1.477L174.039,63h-1.1l-3.062-8.453h1.477Zm8.367,2.117a3.693,3.693,0,0,1-2.8-1.129,4.19,4.19,0,0,1-1.078-3.02v-.266a5.073,5.073,0,0,1,.48-2.246,3.748,3.748,0,0,1,1.344-1.547,3.378,3.378,0,0,1,1.871-.559,3.166,3.166,0,0,1,2.563,1.086,4.7,4.7,0,0,1,.914,3.109v.6h-5.727a3,3,0,0,0,.73,2.02,2.3,2.3,0,0,0,1.777.77,2.517,2.517,0,0,0,1.3-.312,3.258,3.258,0,0,0,.93-.828l.883.688A3.55,3.55,0,0,1,181.867,63.156Zm-.18-7.578a1.928,1.928,0,0,0-1.469.637A3.1,3.1,0,0,0,179.484,58h4.234v-.109a2.753,2.753,0,0,0-.594-1.707A1.815,1.815,0,0,0,181.688,55.578ZM188.406,63h-1.445V51h1.445Zm11.2-2.242a1.064,1.064,0,0,0-.441-.91,4.249,4.249,0,0,0-1.539-.559,7.277,7.277,0,0,1-1.742-.562,2.479,2.479,0,0,1-.953-.781,1.869,1.869,0,0,1-.309-1.078,2.193,2.193,0,0,1,.879-1.758,3.432,3.432,0,0,1,2.246-.719,3.532,3.532,0,0,1,2.332.742,2.357,2.357,0,0,1,.895,1.9h-1.453a1.3,1.3,0,0,0-.5-1.023,1.888,1.888,0,0,0-1.27-.43,1.976,1.976,0,0,0-1.234.344,1.082,1.082,0,0,0-.445.9.877.877,0,0,0,.414.789,5.1,5.1,0,0,0,1.5.508,7.8,7.8,0,0,1,1.754.578,2.558,2.558,0,0,1,1,.809,1.988,1.988,0,0,1,.324,1.152,2.163,2.163,0,0,1-.906,1.816,3.8,3.8,0,0,1-2.352.684,4.257,4.257,0,0,1-1.8-.359,2.922,2.922,0,0,1-1.223-1,2.42,2.42,0,0,1-.441-1.395h1.445a1.5,1.5,0,0,0,.582,1.152,2.258,2.258,0,0,0,1.434.426,2.331,2.331,0,0,0,1.316-.332A1.02,1.02,0,0,0,199.6,60.758Zm6.836,2.4a3.693,3.693,0,0,1-2.8-1.129,4.19,4.19,0,0,1-1.078-3.02v-.266a5.073,5.073,0,0,1,.48-2.246,3.748,3.748,0,0,1,1.344-1.547,3.378,3.378,0,0,1,1.871-.559,3.166,3.166,0,0,1,2.563,1.086,4.7,4.7,0,0,1,.914,3.109v.6h-5.727a3,3,0,0,0,.73,2.02,2.3,2.3,0,0,0,1.777.77,2.517,2.517,0,0,0,1.3-.312,3.258,3.258,0,0,0,.93-.828l.883.688A3.55,3.55,0,0,1,206.438,63.156Zm-.18-7.578a1.928,1.928,0,0,0-1.469.637A3.1,3.1,0,0,0,204.055,58h4.234v-.109a2.753,2.753,0,0,0-.594-1.707A1.815,1.815,0,0,0,206.258,55.578ZM8.234,82.867a5.062,5.062,0,0,1-.883,3.109,2.829,2.829,0,0,1-2.391,1.18,3.1,3.1,0,0,1-2.422-.977v4.07H1.094v-11.7h1.32l.07.938a2.977,2.977,0,0,1,2.453-1.094,2.882,2.882,0,0,1,2.41,1.148,5.117,5.117,0,0,1,.887,3.2ZM6.789,82.7a3.735,3.735,0,0,0-.609-2.258,1.963,1.963,0,0,0-1.672-.828,2.125,2.125,0,0,0-1.969,1.164V84.82a2.129,2.129,0,0,0,1.984,1.156,1.954,1.954,0,0,0,1.652-.824A4.077,4.077,0,0,0,6.789,82.7Zm8.5,3.461a3.07,3.07,0,0,1-2.477.992,2.628,2.628,0,0,1-2.059-.785,3.4,3.4,0,0,1-.715-2.324v-5.5h1.445v5.461q0,1.922,1.563,1.922a2.163,2.163,0,0,0,2.2-1.234V78.547H16.7V87H15.32Zm7.109.992a3.693,3.693,0,0,1-2.8-1.129,4.19,4.19,0,0,1-1.078-3.02v-.266A5.073,5.073,0,0,1,19,80.5a3.748,3.748,0,0,1,1.344-1.547,3.378,3.378,0,0,1,1.871-.559,3.166,3.166,0,0,1,2.563,1.086,4.7,4.7,0,0,1,.914,3.109v.6H19.969a3,3,0,0,0,.73,2.02,2.3,2.3,0,0,0,1.777.77,2.517,2.517,0,0,0,1.3-.312,3.259,3.259,0,0,0,.93-.828l.883.688A3.55,3.55,0,0,1,22.4,87.156Zm-.18-7.578a1.928,1.928,0,0,0-1.469.637A3.1,3.1,0,0,0,20.016,82H24.25v-.109a2.753,2.753,0,0,0-.594-1.707A1.815,1.815,0,0,0,22.219,79.578Zm4.8,3.125a4.952,4.952,0,0,1,.922-3.129,3.137,3.137,0,0,1,4.766-.168V75h1.445V87H32.82l-.07-.906a2.943,2.943,0,0,1-2.414,1.063,2.887,2.887,0,0,1-2.395-1.2,5.008,5.008,0,0,1-.926-3.141Zm1.445.164a3.749,3.749,0,0,0,.594,2.25,1.92,1.92,0,0,0,1.641.813A2.109,2.109,0,0,0,32.7,84.7V80.813a2.125,2.125,0,0,0-1.992-1.2,1.929,1.929,0,0,0-1.656.82A4.128,4.128,0,0,0,28.461,82.867ZM39.9,87.156a3.693,3.693,0,0,1-2.8-1.129,4.19,4.19,0,0,1-1.078-3.02v-.266A5.073,5.073,0,0,1,36.5,80.5a3.748,3.748,0,0,1,1.344-1.547,3.378,3.378,0,0,1,1.871-.559,3.166,3.166,0,0,1,2.563,1.086,4.7,4.7,0,0,1,.914,3.109v.6H37.469a3,3,0,0,0,.73,2.02,2.3,2.3,0,0,0,1.777.77,2.517,2.517,0,0,0,1.3-.312,3.259,3.259,0,0,0,.93-.828l.883.688A3.55,3.55,0,0,1,39.9,87.156Zm-.18-7.578a1.928,1.928,0,0,0-1.469.637A3.1,3.1,0,0,0,37.516,82H41.75v-.109a2.753,2.753,0,0,0-.594-1.707A1.815,1.815,0,0,0,39.719,79.578ZM54.047,87a3.036,3.036,0,0,1-.2-.891,3.225,3.225,0,0,1-2.406,1.047,2.984,2.984,0,0,1-2.051-.707,2.287,2.287,0,0,1-.8-1.793,2.39,2.39,0,0,1,1-2.051,4.733,4.733,0,0,1,2.824-.73H53.82v-.664A1.623,1.623,0,0,0,53.367,80a1.821,1.821,0,0,0-1.336-.449,2.108,2.108,0,0,0-1.3.391,1.151,1.151,0,0,0-.523.945H48.758a2,2,0,0,1,.449-1.223,3.066,3.066,0,0,1,1.219-.934,4.1,4.1,0,0,1,1.691-.344,3.342,3.342,0,0,1,2.289.73,2.635,2.635,0,0,1,.859,2.012v3.891a4.757,4.757,0,0,0,.3,1.852V87Zm-2.4-1.1a2.54,2.54,0,0,0,1.289-.352,2.127,2.127,0,0,0,.883-.914V82.9H52.688q-2.656,0-2.656,1.555a1.316,1.316,0,0,0,.453,1.063A1.742,1.742,0,0,0,51.648,85.9Zm10.8-1.141a1.064,1.064,0,0,0-.441-.91,4.249,4.249,0,0,0-1.539-.559,7.277,7.277,0,0,1-1.742-.562,2.479,2.479,0,0,1-.953-.781,1.869,1.869,0,0,1-.309-1.078,2.193,2.193,0,0,1,.879-1.758,3.432,3.432,0,0,1,2.246-.719,3.532,3.532,0,0,1,2.332.742,2.357,2.357,0,0,1,.895,1.9H62.367a1.3,1.3,0,0,0-.5-1.023,1.888,1.888,0,0,0-1.27-.43,1.976,1.976,0,0,0-1.234.344,1.082,1.082,0,0,0-.445.9.877.877,0,0,0,.414.789,5.1,5.1,0,0,0,1.5.508,7.8,7.8,0,0,1,1.754.578,2.558,2.558,0,0,1,1,.809,1.988,1.988,0,0,1,.324,1.152,2.163,2.163,0,0,1-.906,1.816,3.8,3.8,0,0,1-2.352.684,4.257,4.257,0,0,1-1.8-.359,2.922,2.922,0,0,1-1.223-1A2.42,2.42,0,0,1,57.18,84.4h1.445a1.5,1.5,0,0,0,.582,1.152,2.258,2.258,0,0,0,1.434.426,2.331,2.331,0,0,0,1.316-.332A1.02,1.02,0,0,0,62.453,84.758ZM71,86.164a3.07,3.07,0,0,1-2.477.992,2.628,2.628,0,0,1-2.059-.785,3.4,3.4,0,0,1-.715-2.324v-5.5H67.2v5.461q0,1.922,1.563,1.922a2.163,2.163,0,0,0,2.2-1.234V78.547h1.445V87H71.031Zm4.961-7.617.039.938a3.122,3.122,0,0,1,2.508-1.094,2.417,2.417,0,0,1,2.414,1.359,3.2,3.2,0,0,1,1.1-.984,3.242,3.242,0,0,1,1.6-.375q2.781,0,2.828,2.945V87H85V81.422a1.941,1.941,0,0,0-.414-1.355,1.823,1.823,0,0,0-1.391-.449,1.916,1.916,0,0,0-1.336.48,1.949,1.949,0,0,0-.617,1.293V87H79.789V81.461a1.613,1.613,0,0,0-1.8-1.844,1.934,1.934,0,0,0-1.945,1.211V87H74.594V78.547ZM90.2,87H88.75V78.547H90.2ZM88.633,76.3a.863.863,0,0,1,.215-.594.807.807,0,0,1,.637-.242.819.819,0,0,1,.641.242.854.854,0,0,1,.219.594.826.826,0,0,1-.219.586.834.834,0,0,1-.641.234.821.821,0,0,1-.637-.234A.834.834,0,0,1,88.633,76.3Zm7.961,3.539a4.331,4.331,0,0,0-.711-.055A1.9,1.9,0,0,0,93.953,81v6H92.508V78.547h1.406l.023.977a2.251,2.251,0,0,1,2.016-1.133,1.477,1.477,0,0,1,.641.109Zm8.8,7.313a3.693,3.693,0,0,1-2.8-1.129,4.19,4.19,0,0,1-1.078-3.02v-.266A5.073,5.073,0,0,1,102,80.5a3.748,3.748,0,0,1,1.344-1.547,3.378,3.378,0,0,1,1.871-.559,3.166,3.166,0,0,1,2.563,1.086,4.7,4.7,0,0,1,.914,3.109v.6h-5.727a3,3,0,0,0,.73,2.02,2.3,2.3,0,0,0,1.777.77,2.517,2.517,0,0,0,1.3-.312,3.259,3.259,0,0,0,.93-.828l.883.688A3.55,3.55,0,0,1,105.391,87.156Zm-.18-7.578a1.928,1.928,0,0,0-1.469.637A3.1,3.1,0,0,0,103.008,82h4.234v-.109a2.753,2.753,0,0,0-.594-1.707A1.815,1.815,0,0,0,105.211,79.578ZM111.93,87h-1.445V75h1.445Zm10.359-7.156a4.331,4.331,0,0,0-.711-.055A1.9,1.9,0,0,0,119.648,81v6H118.2V78.547h1.406l.023.977a2.251,2.251,0,0,1,2.016-1.133,1.477,1.477,0,0,1,.641.109Zm2.9,7.156h-1.445V78.547h1.445Zm-1.562-10.7a.863.863,0,0,1,.215-.594.807.807,0,0,1,.637-.242.819.819,0,0,1,.641.242.854.854,0,0,1,.219.594.826.826,0,0,1-.219.586.834.834,0,0,1-.641.234.821.821,0,0,1-.637-.234A.834.834,0,0,1,123.625,76.3Zm7.383,10.852a3.693,3.693,0,0,1-2.8-1.129,4.19,4.19,0,0,1-1.078-3.02v-.266a5.073,5.073,0,0,1,.48-2.246,3.748,3.748,0,0,1,1.344-1.547,3.378,3.378,0,0,1,1.871-.559,3.166,3.166,0,0,1,2.563,1.086,4.7,4.7,0,0,1,.914,3.109v.6h-5.727a3,3,0,0,0,.73,2.02,2.3,2.3,0,0,0,1.777.77,2.517,2.517,0,0,0,1.3-.312,3.258,3.258,0,0,0,.93-.828l.883.688A3.55,3.55,0,0,1,131.008,87.156Zm-.18-7.578a1.928,1.928,0,0,0-1.469.637A3.1,3.1,0,0,0,128.625,82h4.234v-.109a2.753,2.753,0,0,0-.594-1.707A1.815,1.815,0,0,0,130.828,79.578Zm10.07,5.18a1.064,1.064,0,0,0-.441-.91,4.249,4.249,0,0,0-1.539-.559,7.277,7.277,0,0,1-1.742-.562,2.479,2.479,0,0,1-.953-.781,1.869,1.869,0,0,1-.309-1.078,2.193,2.193,0,0,1,.879-1.758,3.432,3.432,0,0,1,2.246-.719,3.532,3.532,0,0,1,2.332.742,2.357,2.357,0,0,1,.895,1.9h-1.453a1.3,1.3,0,0,0-.5-1.023,1.888,1.888,0,0,0-1.27-.43,1.976,1.976,0,0,0-1.234.344,1.082,1.082,0,0,0-.445.9.877.877,0,0,0,.414.789,5.1,5.1,0,0,0,1.5.508,7.8,7.8,0,0,1,1.754.578,2.558,2.558,0,0,1,1,.809,1.988,1.988,0,0,1,.324,1.152,2.163,2.163,0,0,1-.906,1.816,3.8,3.8,0,0,1-2.352.684,4.257,4.257,0,0,1-1.8-.359,2.922,2.922,0,0,1-1.223-1,2.42,2.42,0,0,1-.441-1.395h1.445a1.5,1.5,0,0,0,.582,1.152,2.258,2.258,0,0,0,1.434.426,2.331,2.331,0,0,0,1.316-.332A1.02,1.02,0,0,0,140.9,84.758Zm2.984-2.055a4.968,4.968,0,0,1,.914-3.145,3.151,3.151,0,0,1,4.836-.074l.07-.937h1.32V86.8a3.439,3.439,0,0,1-.973,2.586,3.589,3.589,0,0,1-2.613.945,4.348,4.348,0,0,1-1.789-.391,3.08,3.08,0,0,1-1.336-1.07l.75-.867a2.826,2.826,0,0,0,2.273,1.148,2.214,2.214,0,0,0,1.645-.594,2.269,2.269,0,0,0,.59-1.672v-.727a2.971,2.971,0,0,1-2.367,1,2.887,2.887,0,0,1-2.4-1.2A5.224,5.224,0,0,1,143.883,82.7Zm1.453.164a3.79,3.79,0,0,0,.586,2.246,1.9,1.9,0,0,0,1.641.816,2.117,2.117,0,0,0,2.008-1.242V80.828a2.142,2.142,0,0,0-1.992-1.211,1.921,1.921,0,0,0-1.648.82A4.128,4.128,0,0,0,145.336,82.867Zm7.484-.172a4.993,4.993,0,0,1,.488-2.234,3.642,3.642,0,0,1,1.359-1.531,3.7,3.7,0,0,1,1.988-.539,3.565,3.565,0,0,1,2.793,1.2,4.6,4.6,0,0,1,1.066,3.18v.1a5.036,5.036,0,0,1-.473,2.215,3.589,3.589,0,0,1-1.352,1.527,3.743,3.743,0,0,1-2.02.547,3.556,3.556,0,0,1-2.785-1.2A4.575,4.575,0,0,1,152.82,82.8Zm1.453.172a3.616,3.616,0,0,0,.652,2.258,2.211,2.211,0,0,0,3.5-.012,3.954,3.954,0,0,0,.648-2.418,3.61,3.61,0,0,0-.66-2.254,2.1,2.1,0,0,0-1.754-.863,2.075,2.075,0,0,0-1.727.852A3.925,3.925,0,0,0,154.273,82.867Zm15.406,3.109a2.082,2.082,0,0,0,1.352-.469,1.649,1.649,0,0,0,.641-1.172h1.367a2.621,2.621,0,0,1-.5,1.383,3.293,3.293,0,0,1-1.23,1.047,3.55,3.55,0,0,1-1.629.391A3.482,3.482,0,0,1,166.934,86a4.59,4.59,0,0,1-1.02-3.152v-.242a5.089,5.089,0,0,1,.453-2.2,3.451,3.451,0,0,1,1.3-1.492,3.7,3.7,0,0,1,2-.531,3.39,3.39,0,0,1,2.363.852,3.043,3.043,0,0,1,1,2.211h-1.367a1.992,1.992,0,0,0-.621-1.348,1.932,1.932,0,0,0-1.379-.527,2.023,2.023,0,0,0-1.707.793,3.724,3.724,0,0,0-.605,2.293v.273a3.65,3.65,0,0,0,.6,2.25A2.033,2.033,0,0,0,169.68,85.977Zm9.07-6.133a4.331,4.331,0,0,0-.711-.055A1.9,1.9,0,0,0,176.109,81v6h-1.445V78.547h1.406l.023.977a2.251,2.251,0,0,1,2.016-1.133,1.477,1.477,0,0,1,.641.109Zm4.688,7.313a3.693,3.693,0,0,1-2.8-1.129,4.19,4.19,0,0,1-1.078-3.02v-.266a5.073,5.073,0,0,1,.48-2.246,3.748,3.748,0,0,1,1.344-1.547,3.378,3.378,0,0,1,1.871-.559,3.166,3.166,0,0,1,2.563,1.086,4.7,4.7,0,0,1,.914,3.109v.6h-5.727a3,3,0,0,0,.73,2.02,2.3,2.3,0,0,0,1.777.77,2.517,2.517,0,0,0,1.3-.312,3.258,3.258,0,0,0,.93-.828l.883.688A3.55,3.55,0,0,1,183.438,87.156Zm-.18-7.578a1.928,1.928,0,0,0-1.469.637A3.1,3.1,0,0,0,181.055,82h4.234v-.109a2.753,2.753,0,0,0-.594-1.707A1.815,1.815,0,0,0,183.258,79.578Zm4.8,3.125a4.952,4.952,0,0,1,.922-3.129,3.137,3.137,0,0,1,4.766-.168V75h1.445V87h-1.328l-.07-.906a2.943,2.943,0,0,1-2.414,1.063,2.887,2.887,0,0,1-2.395-1.2,5.008,5.008,0,0,1-.926-3.141Zm1.445.164a3.749,3.749,0,0,0,.594,2.25,1.919,1.919,0,0,0,1.641.813,2.108,2.108,0,0,0,2.008-1.234V80.813a2.125,2.125,0,0,0-1.992-1.2,1.929,1.929,0,0,0-1.656.82A4.128,4.128,0,0,0,189.5,82.867ZM199,87h-1.445V78.547H199Zm-1.562-10.7a.863.863,0,0,1,.215-.594.807.807,0,0,1,.637-.242.819.819,0,0,1,.641.242.854.854,0,0,1,.219.594.826.826,0,0,1-.219.586.834.834,0,0,1-.641.234.821.821,0,0,1-.637-.234A.834.834,0,0,1,197.438,76.3Zm5.836.2v2.047h1.578v1.117h-1.578v5.249a1.173,1.173,0,0,0,.211.763.888.888,0,0,0,.719.254,3.5,3.5,0,0,0,.688-.094V87a4.215,4.215,0,0,1-1.109.155,1.8,1.8,0,0,1-1.461-.586,2.517,2.517,0,0,1-.492-1.664V79.664h-1.539V78.547h1.539V76.5ZM208.109,87h-1.445V78.547h1.445Zm-1.562-10.7a.863.863,0,0,1,.215-.594.807.807,0,0,1,.637-.242.819.819,0,0,1,.641.242.854.854,0,0,1,.219.594.826.826,0,0,1-.219.586.834.834,0,0,1-.641.234.821.821,0,0,1-.637-.234A.834.834,0,0,1,206.547,76.3Zm7.266,9.672a2.082,2.082,0,0,0,1.352-.469,1.649,1.649,0,0,0,.641-1.172h1.367a2.621,2.621,0,0,1-.5,1.383,3.293,3.293,0,0,1-1.23,1.047,3.55,3.55,0,0,1-1.629.391A3.482,3.482,0,0,1,211.066,86a4.59,4.59,0,0,1-1.02-3.152v-.242a5.089,5.089,0,0,1,.453-2.2,3.451,3.451,0,0,1,1.3-1.492,3.7,3.7,0,0,1,2-.531,3.39,3.39,0,0,1,2.363.852,3.043,3.043,0,0,1,1,2.211H215.8a1.992,1.992,0,0,0-.621-1.348,1.932,1.932,0,0,0-1.379-.527,2.023,2.023,0,0,0-1.707.793,3.724,3.724,0,0,0-.605,2.293v.273a3.65,3.65,0,0,0,.6,2.25A2.033,2.033,0,0,0,213.813,85.977ZM220.367,87h-1.445V78.547h1.445ZM218.8,76.3a.863.863,0,0,1,.215-.594.807.807,0,0,1,.637-.242.819.819,0,0,1,.641.242.854.854,0,0,1,.219.594.826.826,0,0,1-.219.586.834.834,0,0,1-.641.234.821.821,0,0,1-.637-.234A.834.834,0,0,1,218.8,76.3ZM222.3,82.7a4.993,4.993,0,0,1,.488-2.234,3.642,3.642,0,0,1,1.359-1.531,3.7,3.7,0,0,1,1.988-.539,3.565,3.565,0,0,1,2.793,1.2,4.6,4.6,0,0,1,1.066,3.18v.1a5.036,5.036,0,0,1-.473,2.215,3.589,3.589,0,0,1-1.352,1.527,3.743,3.743,0,0,1-2.02.547,3.556,3.556,0,0,1-2.785-1.2A4.575,4.575,0,0,1,222.3,82.8Zm1.453.172a3.616,3.616,0,0,0,.652,2.258,2.211,2.211,0,0,0,3.5-.012,3.954,3.954,0,0,0,.648-2.418,3.61,3.61,0,0,0-.66-2.254,2.1,2.1,0,0,0-1.754-.863,2.075,2.075,0,0,0-1.727.852A3.925,3.925,0,0,0,223.75,82.867Zm8.086,3.375a.905.905,0,0,1,.223-.625.848.848,0,0,1,.668-.25.874.874,0,0,1,.676.25.887.887,0,0,1,.23.625.839.839,0,0,1-.23.6.89.89,0,0,1-.676.242.8.8,0,0,1-.891-.844Z" transform="translate(522 3250)" fill="#12263f"/>
    <path id="Trazado_611202" data-name="Trazado 611202" d="M10.063,15H8.555L2.828,6.234V15H1.32V3.625H2.828l5.742,8.8v-8.8h1.492Zm7.656,0a3.036,3.036,0,0,1-.2-.891,3.225,3.225,0,0,1-2.406,1.047,2.984,2.984,0,0,1-2.051-.707,2.287,2.287,0,0,1-.8-1.793,2.39,2.39,0,0,1,1-2.051,4.733,4.733,0,0,1,2.824-.73h1.406V9.211A1.623,1.623,0,0,0,17.039,8,1.821,1.821,0,0,0,15.7,7.555a2.107,2.107,0,0,0-1.3.391,1.151,1.151,0,0,0-.523.945H12.43a2,2,0,0,1,.449-1.223A3.066,3.066,0,0,1,14.1,6.734a4.1,4.1,0,0,1,1.691-.344,3.342,3.342,0,0,1,2.289.73,2.635,2.635,0,0,1,.859,2.012v3.891a4.757,4.757,0,0,0,.3,1.852V15Zm-2.4-1.1a2.54,2.54,0,0,0,1.289-.352,2.127,2.127,0,0,0,.883-.914V10.9H16.359q-2.656,0-2.656,1.555a1.316,1.316,0,0,0,.453,1.063A1.742,1.742,0,0,0,15.32,13.9Zm7.844-9.4V6.547h1.578V7.664H23.164v5.249a1.173,1.173,0,0,0,.211.763.888.888,0,0,0,.719.254,3.5,3.5,0,0,0,.688-.094V15a4.215,4.215,0,0,1-1.109.155,1.8,1.8,0,0,1-1.461-.586,2.517,2.517,0,0,1-.492-1.664V7.664H20.18V6.547h1.539V4.5Zm8.484,9.664a3.07,3.07,0,0,1-2.477.992,2.628,2.628,0,0,1-2.059-.785,3.4,3.4,0,0,1-.715-2.324v-5.5h1.445v5.461q0,1.922,1.563,1.922a2.163,2.163,0,0,0,2.2-1.234V6.547h1.445V15H31.68Zm7.688-6.32a4.331,4.331,0,0,0-.711-.055A1.9,1.9,0,0,0,36.7,9v6H35.25V6.547h1.406l.023.977A2.251,2.251,0,0,1,38.7,6.391a1.477,1.477,0,0,1,.641.109ZM45.57,15a3.036,3.036,0,0,1-.2-.891,3.225,3.225,0,0,1-2.406,1.047,2.984,2.984,0,0,1-2.051-.707,2.287,2.287,0,0,1-.8-1.793,2.39,2.39,0,0,1,1-2.051,4.733,4.733,0,0,1,2.824-.73h1.406V9.211A1.623,1.623,0,0,0,44.891,8a1.821,1.821,0,0,0-1.336-.449,2.107,2.107,0,0,0-1.3.391,1.151,1.151,0,0,0-.523.945H40.281a2,2,0,0,1,.449-1.223,3.066,3.066,0,0,1,1.219-.934,4.1,4.1,0,0,1,1.691-.344,3.342,3.342,0,0,1,2.289.73,2.635,2.635,0,0,1,.859,2.012v3.891a4.757,4.757,0,0,0,.3,1.852V15Zm-2.4-1.1a2.54,2.54,0,0,0,1.289-.352,2.127,2.127,0,0,0,.883-.914V10.9H44.211q-2.656,0-2.656,1.555a1.316,1.316,0,0,0,.453,1.063A1.742,1.742,0,0,0,43.172,13.9ZM50.625,15H49.18V3h1.445Zm5.82.156a3.693,3.693,0,0,1-2.8-1.129,4.19,4.19,0,0,1-1.078-3.02v-.266a5.073,5.073,0,0,1,.48-2.246,3.748,3.748,0,0,1,1.344-1.547,3.378,3.378,0,0,1,1.871-.559,3.166,3.166,0,0,1,2.563,1.086,4.7,4.7,0,0,1,.914,3.109v.6H54.016a3,3,0,0,0,.73,2.02,2.3,2.3,0,0,0,1.777.77,2.517,2.517,0,0,0,1.3-.312,3.259,3.259,0,0,0,.93-.828l.883.688A3.55,3.55,0,0,1,56.445,15.156Zm-.18-7.578a1.928,1.928,0,0,0-1.469.637A3.1,3.1,0,0,0,54.063,10H58.3V9.891A2.753,2.753,0,0,0,57.7,8.184,1.815,1.815,0,0,0,56.266,7.578Zm6.508,6.242h4.945V15H61.008V13.938l4.664-6.2H61.078v-1.2h6.406V7.57ZM74.563,15a3.036,3.036,0,0,1-.2-.891,3.225,3.225,0,0,1-2.406,1.047,2.984,2.984,0,0,1-2.051-.707,2.288,2.288,0,0,1-.8-1.793,2.39,2.39,0,0,1,1-2.051,4.733,4.733,0,0,1,2.824-.73h1.406V9.211A1.623,1.623,0,0,0,73.883,8a1.821,1.821,0,0,0-1.336-.449,2.108,2.108,0,0,0-1.3.391,1.151,1.151,0,0,0-.523.945H69.273a2,2,0,0,1,.449-1.223,3.066,3.066,0,0,1,1.219-.934,4.1,4.1,0,0,1,1.691-.344,3.342,3.342,0,0,1,2.289.73,2.635,2.635,0,0,1,.859,2.012v3.891a4.757,4.757,0,0,0,.3,1.852V15Zm-2.4-1.1a2.54,2.54,0,0,0,1.289-.352,2.127,2.127,0,0,0,.883-.914V10.9H73.2q-2.656,0-2.656,1.555A1.316,1.316,0,0,0,71,13.516,1.742,1.742,0,0,0,72.164,13.9Zm9.492-3.2a4.952,4.952,0,0,1,.922-3.129,3.137,3.137,0,0,1,4.766-.168V3h1.445V15H87.461l-.07-.906a2.943,2.943,0,0,1-2.414,1.063,2.887,2.887,0,0,1-2.395-1.2,5.008,5.008,0,0,1-.926-3.141Zm1.445.164a3.749,3.749,0,0,0,.594,2.25,1.92,1.92,0,0,0,1.641.813A2.108,2.108,0,0,0,87.344,12.7V8.813a2.125,2.125,0,0,0-1.992-1.2,1.929,1.929,0,0,0-1.656.82A4.128,4.128,0,0,0,83.1,10.867Zm11.438,4.289a3.693,3.693,0,0,1-2.8-1.129,4.19,4.19,0,0,1-1.078-3.02v-.266a5.073,5.073,0,0,1,.48-2.246,3.748,3.748,0,0,1,1.344-1.547,3.378,3.378,0,0,1,1.871-.559,3.166,3.166,0,0,1,2.563,1.086,4.7,4.7,0,0,1,.914,3.109v.6H92.109a3,3,0,0,0,.73,2.02,2.3,2.3,0,0,0,1.777.77,2.517,2.517,0,0,0,1.3-.312,3.259,3.259,0,0,0,.93-.828l.883.688A3.55,3.55,0,0,1,94.539,15.156Zm-.18-7.578a1.928,1.928,0,0,0-1.469.637A3.1,3.1,0,0,0,92.156,10h4.234V9.891A2.753,2.753,0,0,0,95.8,8.184,1.815,1.815,0,0,0,94.359,7.578ZM105.039,15h-1.445V3h1.445Zm1.93-4.3a4.993,4.993,0,0,1,.488-2.234,3.643,3.643,0,0,1,1.359-1.531,3.7,3.7,0,0,1,1.988-.539,3.565,3.565,0,0,1,2.793,1.2,4.6,4.6,0,0,1,1.066,3.18v.1a5.036,5.036,0,0,1-.473,2.215,3.589,3.589,0,0,1-1.352,1.527,3.743,3.743,0,0,1-2.02.547,3.556,3.556,0,0,1-2.785-1.2,4.575,4.575,0,0,1-1.066-3.164Zm1.453.172a3.616,3.616,0,0,0,.652,2.258,2.211,2.211,0,0,0,3.5-.012,3.955,3.955,0,0,0,.648-2.418,3.61,3.61,0,0,0-.66-2.254,2.1,2.1,0,0,0-1.754-.863,2.075,2.075,0,0,0-1.727.852A3.925,3.925,0,0,0,108.422,10.867ZM121.4,12.758a1.064,1.064,0,0,0-.441-.91,4.249,4.249,0,0,0-1.539-.559,7.277,7.277,0,0,1-1.742-.562,2.479,2.479,0,0,1-.953-.781,1.869,1.869,0,0,1-.309-1.078,2.193,2.193,0,0,1,.879-1.758,3.432,3.432,0,0,1,2.246-.719,3.532,3.532,0,0,1,2.332.742,2.357,2.357,0,0,1,.895,1.9h-1.453a1.3,1.3,0,0,0-.5-1.023,1.888,1.888,0,0,0-1.27-.43,1.976,1.976,0,0,0-1.234.344,1.082,1.082,0,0,0-.445.9.877.877,0,0,0,.414.789,5.1,5.1,0,0,0,1.5.508,7.8,7.8,0,0,1,1.754.578,2.558,2.558,0,0,1,1,.809,1.988,1.988,0,0,1,.324,1.152,2.163,2.163,0,0,1-.906,1.816,3.8,3.8,0,0,1-2.352.684,4.257,4.257,0,0,1-1.8-.359,2.922,2.922,0,0,1-1.223-1,2.42,2.42,0,0,1-.441-1.395h1.445a1.5,1.5,0,0,0,.582,1.152,2.258,2.258,0,0,0,1.434.426,2.331,2.331,0,0,0,1.316-.332A1.02,1.02,0,0,0,121.4,12.758Zm11.375-4.914a4.331,4.331,0,0,0-.711-.055A1.9,1.9,0,0,0,130.133,9v6h-1.445V6.547h1.406l.023.977a2.251,2.251,0,0,1,2.016-1.133,1.477,1.477,0,0,1,.641.109Zm2.9,7.156h-1.445V6.547h1.445ZM134.109,4.3a.863.863,0,0,1,.215-.594.807.807,0,0,1,.637-.242.819.819,0,0,1,.641.242.854.854,0,0,1,.219.594.826.826,0,0,1-.219.586.834.834,0,0,1-.641.234.821.821,0,0,1-.637-.234A.834.834,0,0,1,134.109,4.3Zm7.383,10.852a3.693,3.693,0,0,1-2.8-1.129,4.19,4.19,0,0,1-1.078-3.02v-.266A5.073,5.073,0,0,1,138.1,8.5a3.748,3.748,0,0,1,1.344-1.547,3.378,3.378,0,0,1,1.871-.559,3.166,3.166,0,0,1,2.563,1.086,4.7,4.7,0,0,1,.914,3.109v.6h-5.727a3,3,0,0,0,.73,2.02,2.3,2.3,0,0,0,1.777.77,2.517,2.517,0,0,0,1.3-.312,3.258,3.258,0,0,0,.93-.828l.883.688A3.55,3.55,0,0,1,141.492,15.156Zm-.18-7.578a1.928,1.928,0,0,0-1.469.637A3.1,3.1,0,0,0,139.109,10h4.234V9.891a2.753,2.753,0,0,0-.594-1.707A1.815,1.815,0,0,0,141.313,7.578Zm10.07,5.18a1.064,1.064,0,0,0-.441-.91,4.249,4.249,0,0,0-1.539-.559,7.277,7.277,0,0,1-1.742-.562,2.479,2.479,0,0,1-.953-.781,1.869,1.869,0,0,1-.309-1.078,2.193,2.193,0,0,1,.879-1.758,3.432,3.432,0,0,1,2.246-.719,3.532,3.532,0,0,1,2.332.742,2.357,2.357,0,0,1,.895,1.9H151.3a1.3,1.3,0,0,0-.5-1.023,1.888,1.888,0,0,0-1.27-.43,1.976,1.976,0,0,0-1.234.344,1.082,1.082,0,0,0-.445.9.877.877,0,0,0,.414.789,5.1,5.1,0,0,0,1.5.508,7.8,7.8,0,0,1,1.754.578,2.558,2.558,0,0,1,1,.809,1.988,1.988,0,0,1,.324,1.152,2.163,2.163,0,0,1-.906,1.816,3.8,3.8,0,0,1-2.352.684,4.257,4.257,0,0,1-1.8-.359,2.922,2.922,0,0,1-1.223-1,2.42,2.42,0,0,1-.441-1.395h1.445a1.5,1.5,0,0,0,.582,1.152,2.258,2.258,0,0,0,1.434.426,2.331,2.331,0,0,0,1.316-.332A1.02,1.02,0,0,0,151.383,12.758Zm2.984-2.055a4.968,4.968,0,0,1,.914-3.145,3.151,3.151,0,0,1,4.836-.074l.07-.937h1.32V14.8a3.439,3.439,0,0,1-.973,2.586,3.589,3.589,0,0,1-2.613.945,4.348,4.348,0,0,1-1.789-.391,3.08,3.08,0,0,1-1.336-1.07l.75-.867a2.826,2.826,0,0,0,2.273,1.148,2.214,2.214,0,0,0,1.645-.594,2.269,2.269,0,0,0,.59-1.672v-.727a2.971,2.971,0,0,1-2.367,1,2.887,2.887,0,0,1-2.4-1.2A5.224,5.224,0,0,1,154.367,10.7Zm1.453.164a3.79,3.79,0,0,0,.586,2.246,1.9,1.9,0,0,0,1.641.816,2.117,2.117,0,0,0,2.008-1.242V8.828a2.142,2.142,0,0,0-1.992-1.211,1.921,1.921,0,0,0-1.648.82A4.128,4.128,0,0,0,155.82,10.867ZM163.3,10.7a4.993,4.993,0,0,1,.488-2.234,3.642,3.642,0,0,1,1.359-1.531,3.7,3.7,0,0,1,1.988-.539,3.565,3.565,0,0,1,2.793,1.2A4.6,4.6,0,0,1,171,10.766v.1a5.036,5.036,0,0,1-.473,2.215,3.589,3.589,0,0,1-1.352,1.527,3.743,3.743,0,0,1-2.02.547,3.556,3.556,0,0,1-2.785-1.2A4.575,4.575,0,0,1,163.3,10.8Zm1.453.172a3.616,3.616,0,0,0,.652,2.258,2.211,2.211,0,0,0,3.5-.012,3.954,3.954,0,0,0,.648-2.418,3.61,3.61,0,0,0-.66-2.254,2.1,2.1,0,0,0-1.754-.863,2.075,2.075,0,0,0-1.727.852A3.925,3.925,0,0,0,164.758,10.867Zm12.977,1.891a1.064,1.064,0,0,0-.441-.91,4.249,4.249,0,0,0-1.539-.559,7.277,7.277,0,0,1-1.742-.562,2.479,2.479,0,0,1-.953-.781,1.869,1.869,0,0,1-.309-1.078,2.193,2.193,0,0,1,.879-1.758,3.432,3.432,0,0,1,2.246-.719,3.532,3.532,0,0,1,2.332.742,2.357,2.357,0,0,1,.895,1.9h-1.453a1.3,1.3,0,0,0-.5-1.023,1.888,1.888,0,0,0-1.27-.43,1.976,1.976,0,0,0-1.234.344,1.082,1.082,0,0,0-.445.9.877.877,0,0,0,.414.789,5.1,5.1,0,0,0,1.5.508,7.8,7.8,0,0,1,1.754.578,2.558,2.558,0,0,1,1,.809,1.988,1.988,0,0,1,.324,1.152,2.163,2.163,0,0,1-.906,1.816,3.8,3.8,0,0,1-2.352.684,4.257,4.257,0,0,1-1.8-.359,2.922,2.922,0,0,1-1.223-1,2.42,2.42,0,0,1-.441-1.395h1.445a1.5,1.5,0,0,0,.582,1.152,2.258,2.258,0,0,0,1.434.426,2.331,2.331,0,0,0,1.316-.332A1.02,1.02,0,0,0,177.734,12.758ZM190.242,15a3.036,3.036,0,0,1-.2-.891,3.225,3.225,0,0,1-2.406,1.047,2.984,2.984,0,0,1-2.051-.707,2.287,2.287,0,0,1-.8-1.793,2.39,2.39,0,0,1,1-2.051,4.733,4.733,0,0,1,2.824-.73h1.406V9.211A1.623,1.623,0,0,0,189.563,8a1.821,1.821,0,0,0-1.336-.449,2.107,2.107,0,0,0-1.3.391,1.151,1.151,0,0,0-.523.945h-1.453a2,2,0,0,1,.449-1.223,3.066,3.066,0,0,1,1.219-.934,4.1,4.1,0,0,1,1.691-.344,3.342,3.342,0,0,1,2.289.73,2.635,2.635,0,0,1,.859,2.012v3.891a4.757,4.757,0,0,0,.3,1.852V15Zm-2.4-1.1a2.54,2.54,0,0,0,1.289-.352,2.127,2.127,0,0,0,.883-.914V10.9h-1.133q-2.656,0-2.656,1.555a1.316,1.316,0,0,0,.453,1.063A1.742,1.742,0,0,0,187.844,13.9ZM202.906,15a3.036,3.036,0,0,1-.2-.891,3.225,3.225,0,0,1-2.406,1.047,2.984,2.984,0,0,1-2.051-.707,2.287,2.287,0,0,1-.8-1.793,2.39,2.39,0,0,1,1-2.051,4.733,4.733,0,0,1,2.824-.73h1.406V9.211A1.623,1.623,0,0,0,202.227,8a1.821,1.821,0,0,0-1.336-.449,2.107,2.107,0,0,0-1.3.391,1.151,1.151,0,0,0-.523.945h-1.453a2,2,0,0,1,.449-1.223,3.066,3.066,0,0,1,1.219-.934,4.1,4.1,0,0,1,1.691-.344,3.342,3.342,0,0,1,2.289.73,2.635,2.635,0,0,1,.859,2.012v3.891a4.757,4.757,0,0,0,.3,1.852V15Zm-2.4-1.1a2.54,2.54,0,0,0,1.289-.352,2.127,2.127,0,0,0,.883-.914V10.9h-1.133q-2.656,0-2.656,1.555a1.316,1.316,0,0,0,.453,1.063A1.742,1.742,0,0,0,200.508,13.9Zm10.8-1.141a1.064,1.064,0,0,0-.441-.91,4.249,4.249,0,0,0-1.539-.559,7.277,7.277,0,0,1-1.742-.562,2.479,2.479,0,0,1-.953-.781,1.869,1.869,0,0,1-.309-1.078,2.193,2.193,0,0,1,.879-1.758,3.432,3.432,0,0,1,2.246-.719,3.532,3.532,0,0,1,2.332.742,2.357,2.357,0,0,1,.895,1.9h-1.453a1.3,1.3,0,0,0-.5-1.023,1.888,1.888,0,0,0-1.27-.43,1.976,1.976,0,0,0-1.234.344,1.082,1.082,0,0,0-.445.9.877.877,0,0,0,.414.789,5.1,5.1,0,0,0,1.5.508,7.8,7.8,0,0,1,1.754.578,2.558,2.558,0,0,1,1,.809,1.988,1.988,0,0,1,.324,1.152,2.163,2.163,0,0,1-.906,1.816,3.8,3.8,0,0,1-2.352.684,4.257,4.257,0,0,1-1.8-.359,2.922,2.922,0,0,1-1.223-1,2.42,2.42,0,0,1-.441-1.395h1.445a1.5,1.5,0,0,0,.582,1.152,2.258,2.258,0,0,0,1.434.426,2.331,2.331,0,0,0,1.316-.332A1.02,1.02,0,0,0,211.313,12.758Zm8.547,1.406a3.07,3.07,0,0,1-2.477.992,2.628,2.628,0,0,1-2.059-.785,3.4,3.4,0,0,1-.715-2.324v-5.5h1.445v5.461q0,1.922,1.563,1.922a2.163,2.163,0,0,0,2.2-1.234V6.547h1.445V15h-1.375Zm4.961-7.617.039.938a3.122,3.122,0,0,1,2.508-1.094,2.417,2.417,0,0,1,2.414,1.359,3.2,3.2,0,0,1,1.1-.984,3.242,3.242,0,0,1,1.6-.375q2.781,0,2.828,2.945V15h-1.445V9.422a1.941,1.941,0,0,0-.414-1.355,1.823,1.823,0,0,0-1.391-.449,1.917,1.917,0,0,0-1.336.48,1.949,1.949,0,0,0-.617,1.293V15h-1.453V9.461a1.613,1.613,0,0,0-1.8-1.844A1.934,1.934,0,0,0,224.9,8.828V15h-1.445V6.547ZM239.055,15h-1.445V6.547h1.445ZM237.492,4.3a.863.863,0,0,1,.215-.594.807.807,0,0,1,.637-.242.819.819,0,0,1,.641.242.854.854,0,0,1,.219.594.826.826,0,0,1-.219.586.834.834,0,0,1-.641.234.821.821,0,0,1-.637-.234A.834.834,0,0,1,237.492,4.3Zm7.961,3.539a4.331,4.331,0,0,0-.711-.055A1.9,1.9,0,0,0,242.813,9v6h-1.445V6.547h1.406l.023.977a2.251,2.251,0,0,1,2.016-1.133,1.477,1.477,0,0,1,.641.109Zm.4,6.4a.905.905,0,0,1,.223-.625.848.848,0,0,1,.668-.25.874.874,0,0,1,.676.25.887.887,0,0,1,.23.625.839.839,0,0,1-.23.6.89.89,0,0,1-.676.242.8.8,0,0,1-.891-.844Z" transform="translate(516 3596)" fill="#12263f"/>
    <g id="Grupo_1073431" data-name="Grupo 1073431" transform="translate(588.86 2521)">
      <g id="Grupo_1073423" data-name="Grupo 1073423" clip-path="url(#clip-path)">
        <path id="Trazado_610954" data-name="Trazado 610954" d="M46.11,23.777a18.412,18.412,0,0,0-3.6.248A15.977,15.977,0,0,0,35.938,26.3,9.239,9.239,0,0,0,32.9,29.378a1.619,1.619,0,0,1-2.276.666,1.586,1.586,0,0,1-.47-2.291,12.837,12.837,0,0,1,5.464-4.941A20.8,20.8,0,0,1,44.1,20.593c.494-.02.988-.052,1.479-.1.308-.031.429-.182.189-.458a7.533,7.533,0,0,0-5.2-2.941c-1.414-.106-2.819.028-4.227.04a14.516,14.516,0,0,1-4.513-.855,14.08,14.08,0,0,1-3.217-1.54,1.9,1.9,0,0,1-1.009-1.525,1.554,1.554,0,0,1,2.272-1.432,16.346,16.346,0,0,0,3.087,1.506,11.862,11.862,0,0,0,4.515.525,16.093,16.093,0,0,1,3.825.042,11.3,11.3,0,0,1,6.152,3.32c.192.2.342.233.557.071a2.307,2.307,0,0,1,.374-.224c.267-.131.243-.25.086-.5A34.7,34.7,0,0,1,44,7.284a7.189,7.189,0,0,1-.153-4.178,3.75,3.75,0,0,1,1.4-2,2.67,2.67,0,0,1,2.781-.078c.358.159.695.363,1.069.488a2.613,2.613,0,0,0,2.332-.3A6.934,6.934,0,0,1,54.182.057a5.6,5.6,0,0,1,3.536.658c.294.159.584.326.871.5a2.709,2.709,0,0,0,3,0A7.005,7.005,0,0,1,64.65.027a5.583,5.583,0,0,1,3.078.595c.363.184.721.38,1.065.6a2.785,2.785,0,0,0,3.051-.033A3.533,3.533,0,0,1,73.455.7a2.255,2.255,0,0,1,1.752.638,4.3,4.3,0,0,1,1.327,2.947,13.482,13.482,0,0,1-1.552,6.208A41.216,41.216,0,0,1,71.4,16.834a.579.579,0,0,0,.071.887,5.621,5.621,0,0,1,1.617,5.16c-.06.354.141.465.346.62,1.777,1.344,3.5,2.749,5.165,4.236a1.912,1.912,0,0,1,.788,1.167,1.624,1.624,0,0,1-.805,1.619,1.655,1.655,0,0,1-1.875-.21q-1.829-1.626-3.745-3.147c-.422-.334-.847-.665-1.264-1-.137-.111-.254-.175-.423-.051a11.168,11.168,0,0,1-4.393,1.684,42.879,42.879,0,0,1-9.726.551,29.04,29.04,0,0,1-5.958-.732,8.571,8.571,0,0,1-2.889-1.057.4.4,0,0,0-.545.034A71.156,71.156,0,0,0,32.035,43.27,45.772,45.772,0,0,0,26.16,56.03a40.892,40.892,0,0,0-1.242,7.533,22.728,22.728,0,0,0,.178,5.059c.033.241.1.395.369.458a28.862,28.862,0,0,1,6.974,2.677q2.1,1.117,4.135,2.344a19.242,19.242,0,0,0,8.763,2.617c1.317.09,2.623.341,3.939.454,2.506.215,5,.558,7.489.882a41.547,41.547,0,0,1,5.651.757,10.2,10.2,0,0,1,7.464,7.251,11.669,11.669,0,0,1,.334,3.77c-.006.347.056.44.4.288,1.884-.838,3.775-1.66,5.661-2.493,4.464-1.971,8.923-3.956,13.395-5.909a3.262,3.262,0,0,0,1.592-1.382,28.328,28.328,0,0,0,3.582-9.6,32.092,32.092,0,0,0,.378-6.186c-.1-6.854-2.323-13.076-5.7-18.939a55.744,55.744,0,0,0-6.979-9.484,3.238,3.238,0,0,1-.721-.978,1.633,1.633,0,0,1,.665-2.057,1.532,1.532,0,0,1,1.962.378c1.073,1.19,2.119,2.4,3.113,3.661a56.629,56.629,0,0,1,6.683,10.578,45.078,45.078,0,0,1,3.117,8.6,36.3,36.3,0,0,1,1.117,11.35,31.616,31.616,0,0,1-1.365,7.328,32.473,32.473,0,0,1-1.327,3.554c-.059.132-.159.294-.045.406s.238-.039.351-.087a32.525,32.525,0,0,1,3.222-1.321A6.7,6.7,0,0,1,108.1,82.6a6.835,6.835,0,0,1-1.373,5.877,5.564,5.564,0,0,1-1.466,1.294q-6.426,4.084-12.849,8.172-8.267,5.253-16.536,10.5a22.631,22.631,0,0,1-5.436,2.63,22.947,22.947,0,0,1-6.925.922q-11.128-.03-22.256,0a22.821,22.821,0,0,1-8.4-1.486c-3.807-1.464-7.643-2.852-11.464-4.28-1.373-.513-2.739-1.045-4.1-1.579-.341-.133-.28.1-.291.281a5.211,5.211,0,0,1-.9,2.874,4.863,4.863,0,0,1-4.033,2.071c-2.4.031-4.8.036-7.2,0a4.786,4.786,0,0,1-4.81-4.54c-.1-2.447-.048-4.9-.049-7.349Q0,82.656,0,67.32a4.935,4.935,0,0,1,3.235-4.909,2.856,2.856,0,0,1,.926-.23c2.791-.117,5.587-.142,8.375-.007a4.657,4.657,0,0,1,4.358,3.919,6.565,6.565,0,0,1,.142,1.433c-.006.256.056.351.336.356a23.489,23.489,0,0,1,4.037.33c.312.061.4-.033.378-.355a33.151,33.151,0,0,1,.079-6.464A39.847,39.847,0,0,1,23.413,54.1a50.273,50.273,0,0,1,1.772-4.831,53.276,53.276,0,0,1,6.136-10.6A74.234,74.234,0,0,1,42,27.22c1.315-1.168,2.72-2.226,4.114-3.443M3.2,85.936H3.21q0,9.1,0,18.2a9.069,9.069,0,0,0,.043,1.091,1.367,1.367,0,0,0,1.418,1.32c2.574.02,5.149.009,7.724.009a1.352,1.352,0,0,0,1.109-.591,1.618,1.618,0,0,0,.255-1.079q0-10.394-.006-20.786a4.431,4.431,0,0,1,.071-1.044,1.522,1.522,0,0,1,1.257-1.174,1.493,1.493,0,0,1,1.677.813,2.913,2.913,0,0,1,.272,1.358c0,5.557.049,11.115-.03,16.672a.516.516,0,0,0,.414.594c.7.233,1.386.52,2.08.779q7.281,2.722,14.562,5.443a17.183,17.183,0,0,0,6.04,1.187q12.327.012,24.655-.007a16.128,16.128,0,0,0,8.9-2.65c1.244-.807,2.5-1.591,3.756-2.386l26.007-16.506a3.7,3.7,0,0,0-1.063-6.676,5.243,5.243,0,0,0-3.061.462q-6.647,2.9-13.278,5.844-4.523,2-9.044,4C74.644,91.836,72.312,92.847,70,93.9a4.9,4.9,0,0,1-2.055.492q-8.728,0-17.455,0a3.059,3.059,0,0,1-.987-.147,1.484,1.484,0,0,1-.988-1.452,1.514,1.514,0,0,1,.885-1.481,2.809,2.809,0,0,1,1.071-.155q7.331.006,14.662.007c.509,0,1.018-.01,1.527-.01.164,0,.3-.026.293-.228a20.567,20.567,0,0,0-.049-3.49,6.978,6.978,0,0,0-5.4-5.535c-2.639-.44-5.308-.621-7.96-.951-3.285-.409-6.581-.732-9.867-1.15a22.363,22.363,0,0,1-6.587-1.871c-1.984-.912-3.842-2.058-5.759-3.095a30.415,30.415,0,0,0-6.926-2.807,38.7,38.7,0,0,0-7.085-.875c-.274-.018-.306.092-.3.332.025,1.429.069,2.859-.034,4.286a1.613,1.613,0,0,1-3.225-.067c-.009-.189-.008-.379-.009-.569q0-4,0-8.008c0-1.21-.479-1.7-1.691-1.7q-3.426,0-6.851,0a5.33,5.33,0,0,0-.825.061,1.279,1.279,0,0,0-1.111,1.069,3.8,3.8,0,0,0-.068.738q-.005,9.32,0,18.64m56.143-68.73a24.077,24.077,0,0,0,4.089-.187c1.458-.257,2.912-.539,4.367-.813a.552.552,0,0,0,.424-.257c.958-1.564,1.985-3.088,2.822-4.723a18.009,18.009,0,0,0,2.275-6.191c.1-.934.075-.973-.8-.672a7.957,7.957,0,0,1-1.66.506,5.437,5.437,0,0,1-3.8-.993,2.984,2.984,0,0,0-3.789.039,2.152,2.152,0,0,1-.18.123,5.476,5.476,0,0,1-5.13.43c-.7-.288-1.331-.714-2-1.055A2,2,0,0,0,54,3.42c-.41.218-.816.446-1.222.673a5.169,5.169,0,0,1-4.842.375c-.251-.111-.524-.172-.782-.267s-.326,0-.327.257a7.046,7.046,0,0,0,.3,2.155,39.391,39.391,0,0,0,4.854,9.495.873.873,0,0,0,.658.377,34.407,34.407,0,0,0,6.708.721m-.686,8.071a45.456,45.456,0,0,0,9.631-1.128,1.945,1.945,0,0,0,1.524-1.354,2.7,2.7,0,0,0-.467-2.634,1.966,1.966,0,0,0-2.294-.589,31.932,31.932,0,0,1-3.637.664,21.434,21.434,0,0,1-6.512.207,44.521,44.521,0,0,1-5.318-.92,1.881,1.881,0,0,0-2.166.732,2.762,2.762,0,0,0-.44,1.488,2.218,2.218,0,0,0,1.783,2.439c1.067.212,2.126.468,3.212.592a44.262,44.262,0,0,0,4.684.5" transform="translate(0 0)" fill="#376460" stroke="#376460" stroke-width="1"/>
        <path id="Trazado_610955" data-name="Trazado 610955" d="M152.417,123.508c0-2-.008-3.995.007-5.992a.709.709,0,0,0-.444-.753,22.043,22.043,0,0,1-3.427-1.9,6.617,6.617,0,0,1-2.881-6.563,7.944,7.944,0,0,1,6.424-7.084c.29-.063.332-.169.315-.435a13.647,13.647,0,0,1,.016-2.359,1.586,1.586,0,0,1,3.155.165c.007.671.021,1.343-.007,2.012-.014.335.1.46.419.507a10,10,0,0,1,4.757,2.024,1.738,1.738,0,0,1,.613.722,1.712,1.712,0,0,1-.366,1.891,1.734,1.734,0,0,1-2.111-.032,7.945,7.945,0,0,0-2.928-1.392c-.284-.081-.382-.045-.381.278q.014,4.9,0,9.8a.489.489,0,0,0,.37.513c.744.288,1.491.57,2.233.866a8.237,8.237,0,0,1,4.49,4.007,8.064,8.064,0,0,1,.71,5.76,9.98,9.98,0,0,1-4.457,6.323,8.609,8.609,0,0,1-2.694,1.086c-.649.146-.646.159-.646.84s0,1.371,0,2.056a1.559,1.559,0,0,1-1.382,1.585,1.535,1.535,0,0,1-1.759-1.368,14.775,14.775,0,0,1-.047-2.445c.006-.291-.067-.376-.351-.394a13.011,13.011,0,0,1-6.459-2.272,1.609,1.609,0,0,1-.541-2.279,1.576,1.576,0,0,1,2.23-.428,10.819,10.819,0,0,0,3.264,1.513,8.413,8.413,0,0,0,1.6.144c.244.007.276-.1.274-.319-.009-2.026-.005-4.053-.005-6.079h.006m3.167.487c0,1.807.008,3.614-.007,5.421,0,.353.075.4.408.3a6.427,6.427,0,0,0,4.343-6.465,4.856,4.856,0,0,0-2.528-4.115,17.288,17.288,0,0,0-1.838-.789c-.328-.146-.385-.047-.384.274.011,1.792.005,3.585.006,5.377m-3.209-10.6a.9.9,0,0,0,.047-.5c-.062-2.552-.044-5.1-.022-7.656.007-.822-.008-.836-.779-.522l-.04.017a4.818,4.818,0,0,0-2.687,5.078,3.05,3.05,0,0,0,.728,1.786,9.68,9.68,0,0,0,2.753,1.8" transform="translate(-94.09 -63.08)" fill="#376460" stroke="#376460" stroke-width="1"/>
      </g>
    </g>
    <g id="Grupo_1073434" data-name="Grupo 1073434" transform="translate(589 3421)">
      <g id="Grupo_1073425" data-name="Grupo 1073425" clip-path="url(#clip-path-2)">
        <path id="Trazado_610956" data-name="Trazado 610956" d="M46.735.023c19.524-.652,40.5,12.874,45.891,36.12C95.788,49.771,93.2,62.5,85.136,74c-.835,1.192-.67,1.644.4,2.452q9.443,7.1,18.783,14.345a9.184,9.184,0,0,1,3.653,9.982,8.97,8.97,0,0,1-6.94,7.063,9.227,9.227,0,0,1-10.149-3.636q-7.272-9.421-14.445-18.918c-.748-.994-1.184-1.083-2.217-.341A45.468,45.468,0,0,1,43.043,93.6,46.946,46.946,0,0,1,38.266.672,38.965,38.965,0,0,1,46.735.023M3.784,46.78A43.2,43.2,0,0,0,47.1,90.158C70.78,90.269,90.278,70.645,90.274,46.9A43.246,43.246,0,0,0,3.784,46.78M104.614,98.464a5.012,5.012,0,0,0-1.941-4.33C96.022,88.954,89.3,83.866,82.62,78.721c-.7-.537-1.191-.321-1.5.3-.62,1.257-2.826,1.4-2.357,3.392a.43.43,0,0,0,.094.139c5.09,6.65,10.147,13.326,15.291,19.935a5.726,5.726,0,0,0,6.574,1.675,5.83,5.83,0,0,0,3.888-5.693" transform="translate(0 0)" fill="#376460"/>
        <path id="Trazado_610957" data-name="Trazado 610957" d="M61.711,100.605A39.668,39.668,0,0,1,50.986,22.635c1.1-.284,2.148-.48,2.84.685.714,1.2-.053,2.361-1.886,2.835a33.245,33.245,0,0,0-14.055,7.385c-10.51,9.414-14.734,21.21-11.763,34.982,2.957,13.706,11.56,22.932,25.018,26.9A35.979,35.979,0,1,0,67.926,25.544a37.825,37.825,0,0,0-5.864-.621c-1.753-.041-2.736-.75-2.559-1.953.219-1.491,1.314-1.808,2.631-1.728,16.167.982,28.252,8.483,35.118,23.2,10.832,23.212-2.865,50.007-28,55.4a27.608,27.608,0,0,1-7.541.763" transform="translate(-14.285 -14.055)" fill="#376460"/>
        <path id="Trazado_610958" data-name="Trazado 610958" d="M89.545,103.712c-6.419,0-12.837.012-19.255,0-4.925-.013-7.418-4.25-4.951-8.516q9.753-16.862,19.6-33.67c2.288-3.906,7.023-3.945,9.3-.061q9.9,16.872,19.69,33.814c2.381,4.13-.2,8.419-4.965,8.432-6.474.018-12.949,0-19.424,0m.011-3.7c6.416,0,12.831.009,19.247,0,2.352-.005,3.018-1.178,1.823-3.239q-9.6-16.551-19.24-33.083c-1.163-2-2.386-1.969-3.572.064Q78.211,80.2,68.637,96.673c-1.3,2.229-.624,3.333,2.009,3.337q9.455.011,18.909,0" transform="translate(-42.616 -38.773)" fill="#376460"/>
        <path id="Trazado_610959" data-name="Trazado 610959" d="M288.455,286.454a2.078,2.078,0,0,1-.969,1.5,1.59,1.59,0,0,1-1.893-.132,22.207,22.207,0,0,1-2.142-2.142,1.559,1.559,0,0,1-.13-1.891,1.676,1.676,0,0,1,1.5-.925c1.141-.019,3.668,2.465,3.63,3.586" transform="translate(-187.388 -187.258)" fill="#376460"/>
        <path id="Trazado_610960" data-name="Trazado 610960" d="M137.2,104.234c0,1.963-.01,3.927,0,5.89.008,1.243-.513,2.137-1.8,2.177-1.339.042-1.848-.948-1.858-2.128q-.05-5.973,0-11.948c.012-1.18.546-2.16,1.89-2.091,1.285.066,1.776.973,1.764,2.211-.019,1.963-.005,3.926-.005,5.89" transform="translate(-88.395 -63.638)" fill="#376460"/>
        <path id="Trazado_610961" data-name="Trazado 610961" d="M137.054,157.447c.12,1.207-.092,2.274-1.457,2.654a1.5,1.5,0,0,1-1.84-.839,3.865,3.865,0,0,1,.16-3.863,1.541,1.541,0,0,1,1.972-.5c1.154.461,1.258,1.466,1.165,2.543" transform="translate(-88.256 -102.443)" fill="#376460"/>
      </g>
    </g>
    <g id="Grupo_1073432" data-name="Grupo 1073432" transform="translate(581.803 2808.646)">
      <g id="Grupo_1073427" data-name="Grupo 1073427" clip-path="url(#clip-path-3)">
        <path id="Trazado_610962" data-name="Trazado 610962" d="M94.745,28.1q0-8.586,0-17.171c0-2.475.544-2.976,2.99-3.042,1.563-.042,3.566.668,4.568-.287,1.018-.969.272-2.989.319-4.545C102.7.568,103.181.016,105.612.01q6.907-.018,13.815,0c2.365.006,2.947.565,2.955,2.864q.024,7.006,0,14.013c-.007,2.232-.6,2.851-2.76,2.86q-7.105.031-14.21,0c-2.172-.009-2.743-.621-2.769-2.852-.014-1.25-.085-2.507.016-3.748.141-1.743-1.091-1.286-1.961-1.263-.837.023-2.025-.561-2.017,1.211q.071,16.48-.006,32.96c-.011,1.911,1.249,1.229,2.137,1.3.965.08,2.032.281,1.857-1.386a38.326,38.326,0,0,1-.026-4.142,2.065,2.065,0,0,1,2.289-2.343q7.6-.015,15.2,0c1.547,0,2.257.869,2.257,2.375q0,7.5,0,15c0,1.642-.872,2.369-2.477,2.366q-7.4-.017-14.8,0c-1.746,0-2.508-.876-2.469-2.576a31.815,31.815,0,0,1,.03-3.352c.225-1.723-.5-2.019-2.078-2.033-1.6-.014-1.926.5-1.917,2q.092,15.788-.009,31.578c-.013,1.659.429,2.085,2.061,2.061,1.53-.022,2.12-.394,1.942-1.969a34.319,34.319,0,0,1-.026-3.55,2.124,2.124,0,0,1,2.4-2.437q7.5,0,15,0a2.063,2.063,0,0,1,2.339,2.293q.015,7.6,0,15.2c-.006,1.546-.876,2.252-2.381,2.252q-7.5,0-15,0c-1.644,0-2.322-.88-2.372-2.481-.054-1.751.763-4.008-.357-5.113-1.023-1.009-3.253-.222-4.949-.295-1.983-.085-2.566-.692-2.567-2.863q-.015-17.171-.005-34.342c0-.46-.025-.922,0-1.381.039-.689-.287-.918-.942-.9-.574.019-1.108.051-1.008.816.35,2.678-1.365,3.435-3.461,3.359-2.533-.092-3.426,1.123-4.442,3.313-1.26,2.716-1.13,4.563.928,6.692,1.664,1.722,1.452,2.424-.259,4.156-1.433,1.451-2.9,2.865-4.316,4.336-1.151,1.2-2.378,1.476-3.591.239-2.22-2.265-4.363-2.695-7.357-1.029-1.8,1-2.812,1.678-2.927,3.877-.191,3.682-.585,3.853-4.361,3.853-1.711,0-3.422-.03-5.132.008-1.573.035-2.667-.61-2.608-2.237.126-3.456-1.5-5.148-4.763-6.175-1.792-.565-2.981-.784-4.281.6a15.33,15.33,0,0,1-1.56,1.2,2.184,2.184,0,0,1-3.313-.163c-1.664-1.686-3.344-3.355-5.021-5.027-1-1-1.187-2.177-.168-3.135,2.534-2.383,2.79-4.768,1.074-7.874-.9-1.631-1.546-2.721-3.516-2.546a11.285,11.285,0,0,1-1.751-.253A2.233,2.233,0,0,1,29.6,52.8c.009-.655.3-1.479-.941-1.492-1.39-.015-.99.945-1,1.631-.031,2.96-.013,5.921-.013,8.881q0,12.927,0,25.855c0,2.606-.514,3.06-3.1,3.144-1.552.051-3.6-.722-4.511.353-.759.9-.262,2.879-.281,4.38-.034,2.616-.519,3.136-3.085,3.141q-6.908.014-13.816,0C.632,98.688.024,98.1.015,95.922q-.029-7.1,0-14.21c.009-2.162.626-2.747,2.864-2.754q7.006-.022,14.013,0c2.3.008,2.841.591,2.863,2.959a20.4,20.4,0,0,1-.023,2.957c-.237,1.714.488,2.028,2.072,2.037s1.931-.491,1.922-2q-.095-15.789.007-31.578c.013-1.653-.428-2.036-2.054-2.076-1.8-.044-2.091.665-1.944,2.171.108,1.108.013,2.235.021,3.353a2.127,2.127,0,0,1-2.4,2.441q-7.5,0-15,0C.709,59.221,0,58.335,0,56.734q.021-7.4,0-14.8a2.128,2.128,0,0,1,2.39-2.45q7.5,0,15,0c1.645,0,2.38.875,2.361,2.478a32.127,32.127,0,0,1-.029,3.549c-.205,1.654.529,1.922,1.988,1.912,1.429-.009,2.033-.222,2.019-1.894q-.128-15.986,0-31.973c.014-1.682-.7-1.774-1.973-1.719-1.142.049-2.26-.173-2.039,1.64a30.98,30.98,0,0,1,.026,3.943,2.069,2.069,0,0,1-2.308,2.326q-7.6.012-15.2,0a2,2,0,0,1-2.224-2.2q-.028-7.7.006-15.394A2,2,0,0,1,2.309.013q7.6-.01,15.2,0C19.054.022,19.755.9,19.755,2.4c0,1.316.069,2.636-.019,3.946-.077,1.16.219,1.728,1.5,1.574A21.677,21.677,0,0,1,23.8,7.9c3.591,0,3.849.251,3.849,3.756q0,16.776,0,33.553c0,.46.022.922,0,1.381-.034.787.484.787,1.044.784.506,0,.8-.09.93-.713.7-3.236.72-3.388,4.129-3.512,1.987-.073,2.586-1.022,3.481-2.617,1.745-3.109,1.464-5.491-1.1-7.868-1.027-.952-.791-2.137.211-3.131q2.524-2.5,5.024-5.024c1.076-1.086,2.282-1.183,3.288-.094,2.27,2.457,4.516,2.63,7.529,1.051,1.794-.94,2.706-1.642,2.82-3.745.2-3.754.589-3.952,4.277-3.952,1.776,0,3.553.021,5.329-.005,1.485-.022,2.582.613,2.49,2.132-.22,3.623,1.64,5.215,4.879,6.3,1.731.581,2.862.767,4.11-.563.4-.425.958-.7,1.4-1.088a2.376,2.376,0,0,1,3.771.181c1.539,1.622,3.141,3.185,4.734,4.755,1.074,1.058,1.274,2.271.175,3.287-2.522,2.332-2.67,4.655-1.045,7.7.918,1.722,1.608,2.612,3.64,2.683,3.382.118,3.422.273,3.992,3.442.135.755.515.748,1.068.783,1.073.067.911-.681.912-1.316q.007-7.895,0-15.789,0-1.086,0-2.171M48.209,67.132a3.816,3.816,0,0,1,.883.294,27.926,27.926,0,0,0,7.961,3.312,1.91,1.91,0,0,1,1.332,1.787,10.913,10.913,0,0,1,.349,2.329c-.146,1.92.823,2.176,2.467,2.181s2.623-.283,2.458-2.187c-.049-.567.278-1.158.286-1.74.024-1.585.855-2.321,2.337-2.688a11.1,11.1,0,0,0,4.043-1.456c2.962-2.256,5.45-1.89,7.867.73.317.343.7.719,1.365.361,2.261-1.223,2.662-2.843,1.118-4.851-.24-.312-.455-.648-.721-.936a2.642,2.642,0,0,1-.2-3.719,10.393,10.393,0,0,0,2.013-4.454c.381-3.062,2.111-4.384,4.976-4.275,2,.077,2.137-.932,2.126-2.512-.011-1.5-.086-2.59-2.023-2.4a15.613,15.613,0,0,1-1.935-.308,2.492,2.492,0,0,1-2.589-2.19,11.672,11.672,0,0,0-1.45-4.049c-2.16-2.984-2.07-5.56.7-8.035a.987.987,0,0,0,.182-1.521c-1.813-2.483-2.507-2.631-4.9-.794-.469.36-.932.728-1.413,1.072a1.986,1.986,0,0,1-2.4.084,23.836,23.836,0,0,0-7.405-3.107A2.08,2.08,0,0,1,64,26.1a11.026,11.026,0,0,1-.35-2.328c.148-1.84-.752-2.063-2.342-2.1-1.777-.045-2.734.31-2.583,2.28a17.635,17.635,0,0,1-.282,1.741,2.5,2.5,0,0,1-2.228,2.559,12.247,12.247,0,0,0-4.224,1.539c-2.9,2.138-5.334,1.91-7.706-.7-.357-.393-.774-.84-1.517-.377-2.366,1.472-2.649,2.709-.991,4.868.32.416.62.85.951,1.256a2.13,2.13,0,0,1,.266,2.723,23.013,23.013,0,0,0-3.046,7.218,2.175,2.175,0,0,1-2.055,1.787,13.526,13.526,0,0,1-2.328.364c-1.629-.076-2.06.585-2.05,2.182.01,1.751.161,2.968,2.342,2.711.432-.051.9.264,1.346.252,1.887-.054,2.688,1.025,3.026,2.7a15.2,15.2,0,0,0,2.333,5.6,2.883,2.883,0,0,1-.229,4.064c-.4.432-.681.982-1.1,1.386-1.114,1.061-.979,1.941.2,2.856,1,.778,1.667,2.375,3.3.7a7.1,7.1,0,0,1,3.483-2.249M4.108,9.683H3.967c0,1.574.069,3.152-.023,4.721-.067,1.157.378,1.436,1.462,1.413,3.016-.063,6.034-.056,9.05,0,1,.018,1.385-.243,1.363-1.311q-.1-4.622,0-9.247c.023-1.068-.364-1.352-1.363-1.309-1.571.067-3.15-.04-4.721.032-1.875.086-4.38-.846-5.441.391-.9,1.051-.186,3.489-.186,5.313M112.43,15.795c1.574,0,3.149-.034,4.722.013.868.026,1.313-.157,1.3-1.171-.054-3.147-.047-6.3,0-9.444.013-.926-.272-1.259-1.224-1.245-3.147.047-6.3.033-9.444.007-.781-.006-1.2.152-1.193,1.07q.061,4.82,0,9.641c-.009.839.253,1.172,1.122,1.143,1.572-.052,3.148-.015,4.722-.014M15.8,49.4c0-1.508-.061-3.02.021-4.524.059-1.1-.274-1.486-1.417-1.458q-4.522.111-9.05,0c-1.164-.03-1.427.4-1.4,1.472.062,3.015.057,6.034,0,9.05-.018,1.007.259,1.378,1.318,1.356q4.622-.095,9.247,0c1.076.023,1.345-.381,1.3-1.37C15.748,52.415,15.8,50.9,15.8,49.4m96.238,5.872c1.963,0,3.6-.029,5.242.012.814.021,1.176-.21,1.165-1.1q-.06-4.82,0-9.641c.011-.876-.321-1.123-1.151-1.114-3.148.033-6.3.057-9.444-.011-1.12-.024-1.3.465-1.264,1.406.054,1.572,0,3.148.019,4.722.026,1.825-.608,4.249.313,5.319,1.076,1.249,3.573.212,5.119.405M9.955,82.913c-1.574,0-3.149.036-4.722-.014-.883-.028-1.3.184-1.284,1.183q.078,4.721,0,9.444c-.014.941.3,1.247,1.236,1.233,3.148-.045,6.3-.034,9.444-.006.794.007,1.192-.176,1.181-1.082q-.06-4.82,0-9.641c.01-.855-.282-1.157-1.134-1.131-1.573.049-3.148.014-4.722.013m96.777,5.728H106.6c0,1.509.057,3.02-.019,4.524-.056,1.116.156,1.652,1.47,1.608,3.014-.1,6.034-.068,9.05-.012,1.013.019,1.373-.268,1.351-1.322q-.094-4.621,0-9.246c.023-1.082-.391-1.338-1.374-1.3-1.571.064-3.15-.04-4.721.031-1.874.085-4.38-.848-5.438.4-.9,1.059-.186,3.492-.186,5.317" transform="translate(0 0)" fill="#376460"/>
        <path id="Trazado_610963" data-name="Trazado 610963" d="M127.727,80.019a17.767,17.767,0,1,1-17.7,17.879,17.8,17.8,0,0,1,17.7-17.879m.134,31.569a13.8,13.8,0,1,0-13.871-13.735,13.842,13.842,0,0,0,13.871,13.735" transform="translate(-66.595 -48.433)" fill="#376460"/>
      </g>
    </g>
    <g id="Grupo_1073433" data-name="Grupo 1073433" transform="translate(582 3075)">
      <g id="Grupo_1073429" data-name="Grupo 1073429" clip-path="url(#clip-path-4)">
        <path id="Trazado_610964" data-name="Trazado 610964" d="M130.237,142.323A44.177,44.177,0,1,1,85.971,98.175a44.219,44.219,0,0,1,44.266,44.148M86.015,101.781a40.562,40.562,0,1,0,40.664,40.435,40.706,40.706,0,0,0-40.664-40.435" transform="translate(-25.196 -59.062)" fill="#376460"/>
        <path id="Trazado_610965" data-name="Trazado 610965" d="M116.565,10.963c1.784,0,3.916.6,5.257-.168,1.371-.789,1.261-3.182,1.9-4.838.5-1.293.847-2.646,1.271-3.97.31-.971.663-1.963,1.9-1.988,1.354-.026,1.706,1.037,2.041,2.074.773,2.392,1.677,4.752,2.284,7.185.388,1.553,1.146,1.936,2.629,1.868,2.582-.118,5.173-.023,7.76-.047,1.076-.01,2.028.179,2.357,1.358.3,1.074-.359,1.726-1.162,2.3-2.21,1.582-4.342,3.282-6.628,4.741a1.852,1.852,0,0,0-.807,2.6c.868,2.5,1.686,5.016,2.507,7.531.317.969.565,1.967-.437,2.715-1.018.761-1.852.2-2.686-.419-2.027-1.5-4.148-2.876-6.077-4.489-1.325-1.108-2.267-.982-3.533.062-1.889,1.558-3.945,2.913-5.918,4.37-.821.606-1.645,1.247-2.685.536-1.116-.764-.828-1.831-.486-2.871.826-2.513,1.633-5.033,2.5-7.531a1.756,1.756,0,0,0-.755-2.446c-2.272-1.485-4.415-3.166-6.629-4.743-.859-.612-1.605-1.277-1.219-2.447s1.368-1.289,2.425-1.269c1.392.027,2.786.007,4.179.007Zm1.38,3.759-.173.378c1.21.888,2.37,1.855,3.642,2.643a2.6,2.6,0,0,1,1.149,3.552,12.642,12.642,0,0,0-1.234,4.6c1.447-1.052,2.72-1.889,3.888-2.853a2.453,2.453,0,0,1,3.543.039c1.188.972,2.472,1.826,4.2,3.086-.692-2.179-1.143-3.756-1.7-5.3a2.217,2.217,0,0,1,.951-2.9c1.341-.916,2.637-1.9,3.953-2.853a16.775,16.775,0,0,0-4.8-.374,2.476,2.476,0,0,1-2.772-1.984,19.142,19.142,0,0,0-1.747-4.733c-.551,1.63-1.129,2.971-1.445,4.37-.418,1.847-1.48,2.486-3.288,2.35-1.382-.1-2.779-.021-4.17-.021" transform="translate(-66.089 0)" fill="#376460"/>
        <path id="Trazado_610966" data-name="Trazado 610966" d="M226.347,45.7c5.49.027,5.5.029,7.219-5.1.506-1.5.974-3.022,1.456-4.535a1.773,1.773,0,0,1,1.873-1.451,1.792,1.792,0,0,1,1.678,1.442c.863,2.711,1.826,5.392,2.62,8.122a1.788,1.788,0,0,0,2.072,1.572c2.651-.095,5.306-.037,7.959-.048,1.092-.005,2.2,0,2.6,1.3.366,1.2-.476,1.83-1.3,2.425-2.094,1.515-4.145,3.1-6.313,4.5a2.1,2.1,0,0,0-.928,2.947c.894,2.418,1.645,4.889,2.461,7.335.328.982.564,1.967-.425,2.712-1.009.76-1.869.194-2.7-.412-2.086-1.527-4.205-3.011-6.243-4.6-1.079-.841-1.9-1.043-3.079-.051-1.872,1.575-3.913,2.953-5.915,4.369-.887.627-1.784,1.611-3.008.727-1.276-.921-.683-2.138-.331-3.258.715-2.271,1.388-4.561,2.239-6.782.5-1.306.443-2.118-.847-2.948-2.226-1.432-4.306-3.091-6.466-4.628-.879-.625-1.53-1.345-1.112-2.487.389-1.06,1.338-1.157,2.308-1.151,1.393.008,2.786,0,4.179,0M242.18,60.261l.4-.3c-.409-1.235-.758-2.494-1.242-3.7-.719-1.788-.52-3.143,1.322-4.163a32.822,32.822,0,0,0,3.4-2.462,15.411,15.411,0,0,0-4.493-.361c-1.679.092-2.769-.389-3.168-2.212a46.88,46.88,0,0,0-1.6-4.74c-.629,1.9-1.182,3.28-1.535,4.709-.428,1.728-1.441,2.339-3.168,2.256a12.6,12.6,0,0,0-4.653.255c1.439,1.057,2.606,2.035,3.888,2.825a2.535,2.535,0,0,1,1.108,3.392,20.408,20.408,0,0,0-1.377,4.789c1.545-1.114,2.9-2.057,4.218-3.054a2.285,2.285,0,0,1,3.072-.006c1.257.948,2.552,1.847,3.831,2.767" transform="translate(-132.189 -20.817)" fill="#376460"/>
        <path id="Trazado_610967" data-name="Trazado 610967" d="M6.676,45.7c5.567.026,5.563.025,7.25-5.311.459-1.451.973-2.885,1.416-4.341a1.813,1.813,0,0,1,3.553.016c.865,2.71,1.758,5.411,2.583,8.134a1.849,1.849,0,0,0,2.117,1.55c2.716-.1,5.439-.037,8.158-.049.971,0,1.919.095,2.3,1.158.412,1.144-.25,1.866-1.122,2.489-2.157,1.542-4.244,3.19-6.465,4.632a1.98,1.98,0,0,0-.907,2.77c.885,2.421,1.65,4.887,2.44,7.343.329,1.023.657,2.092-.464,2.876-1.053.737-1.88.067-2.69-.518-2.042-1.475-4.168-2.852-6.076-4.486-1.311-1.123-2.2-.877-3.4.073-1.969,1.567-4.049,2.994-6.084,4.478-.828.6-1.691,1.171-2.7.4-.977-.751-.743-1.735-.416-2.718.834-2.511,1.61-5.043,2.506-7.53a1.892,1.892,0,0,0-.831-2.623c-2.211-1.459-4.32-3.072-6.468-4.626-.824-.6-1.665-1.22-1.3-2.423.364-1.184,1.361-1.3,2.407-1.3,1.393.01,2.786,0,4.179,0M11.371,59.93l.323.366c1.118-.8,2.3-1.527,3.336-2.427,1.479-1.287,2.788-1.195,4.237.041,1.082.924,2.3,1.691,3.87,2.828-.655-1.975-1.133-3.47-1.647-4.954a2.524,2.524,0,0,1,1.086-3.4c1.307-.807,2.5-1.8,3.737-2.719a12.1,12.1,0,0,0-4.274-.383c-1.895.167-3-.484-3.431-2.426a47.062,47.062,0,0,0-1.514-4.545c-.657,1.952-1.256,3.359-1.592,4.826-.393,1.714-1.408,2.224-3.027,2.14-1.494-.077-2.994-.017-4.492-.017a20.752,20.752,0,0,0,3.85,3.276,2.2,2.2,0,0,1,.967,2.9c-.557,1.47-.96,3-1.429,4.5" transform="translate(0 -20.817)" fill="#376460"/>
        <path id="Trazado_610968" data-name="Trazado 610968" d="M97.345,190.3a36.655,36.655,0,1,1,36.705-36.62A36.564,36.564,0,0,1,97.345,190.3m.015-3.524a33.117,33.117,0,1,0-33.077-33.136A32.987,32.987,0,0,0,97.36,186.775" transform="translate(-36.485 -70.381)" fill="#376460"/>
        <path id="Trazado_610969" data-name="Trazado 610969" d="M101.7,174.041c0-4.179-.025-8.358.009-12.537a5.322,5.322,0,0,1,3.6-5.388c2.278-.809,4.306-.127,6.107,2.053,1.117,1.353,2.643,1.18,3.339-.443,1.331-3.1,2.582-6.237,3.9-9.344,1.512-3.566,3.728-5.022,6.779-4.511,2.657.445,5.394,3.667,5.667,6.715a14.276,14.276,0,0,1-1.2,6.394c-.627,1.634-.272,2.052,1.423,1.963,2.315-.122,4.642-.047,6.963-.026,5.33.048,8.273,3.72,7.187,8.927-1.067,5.116-2.137,10.231-3.168,15.354a6.886,6.886,0,0,1-7.258,5.993c-7.164.025-14.328.01-21.492,0a2.394,2.394,0,0,0-2.382.952,4.821,4.821,0,0,1-5.894,2.072,5.455,5.455,0,0,1-3.563-5.244c-.047-4.311-.013-8.623-.017-12.935m22.828,11.609c3.452,0,6.9.015,10.357-.005,2.314-.014,3.433-.9,3.9-3.14q1.632-7.879,3.2-15.771c.533-2.7-.719-4.217-3.463-4.238-3.651-.027-7.3.013-10.954-.017-2.287-.019-2.957-1.013-2.213-3.19a36.82,36.82,0,0,0,1.987-6.854,4.95,4.95,0,0,0-.562-3.266,2.83,2.83,0,0,0-2.44-1.784c-1.3.008-1.792.943-2.215,1.96-1.4,3.364-2.855,6.7-4.187,10.095a4.266,4.266,0,0,1-4.2,3.045c-1.174.007-1.439.47-1.431,1.537.05,6.705.078,13.411.04,20.116-.008,1.264.451,1.559,1.625,1.537,3.517-.065,7.037-.023,10.556-.023m-15.743-11.625h-.08c0-4.179.006-8.359,0-12.538,0-1.12-.461-2.042-1.664-2.078s-1.683.886-1.774,1.984c-.049.594-.035,1.193-.035,1.79q0,10.05,0,20.1c0,1.26-.028,2.525.068,3.778a1.718,1.718,0,0,0,1.524,1.806c1.049.1,1.55-.656,1.787-1.536a6.946,6.946,0,0,0,.171-1.764c.014-3.847.007-7.7.007-11.543" transform="translate(-61.176 -86.494)" fill="#376460"/>
      </g>
    </g>
  </g>
</svg>
