<svg xmlns="http://www.w3.org/2000/svg" xmlns:xlink="http://www.w3.org/1999/xlink" width="107" height="107" viewBox="0 0 107 107">
  <defs>
    <clipPath id="clip-path">
      <rect id="Rectángulo_378780" data-name="Rectángulo 378780" width="62.736" height="62.594" fill="#fff"/>
    </clipPath>
  </defs>
  <g id="Grupo_156312" data-name="Grupo 156312" transform="translate(-288.668 -4448)">
    <circle id="Elipse_5845" data-name="Elipse 5845" cx="53.5" cy="53.5" r="53.5" transform="translate(288.668 4448)" fill="#376460"/>
    <g id="Grupo_1073465" data-name="Grupo 1073465" transform="translate(308.867 4470.203)">
      <g id="Grupo_1073464" data-name="Grupo 1073464" clip-path="url(#clip-path)">
        <path id="Trazado_611005" data-name="Trazado 611005" d="M5.673,128.96c-2.475-3.532-1.53-6.786.537-8.7a6.156,6.156,0,0,1,8.047-.366c2.789,2.212,3.151,5.2,1.01,9.1h5.187c.515,0,.437-.383.439-.695.008-1.434,0-2.868.011-4.3,0-.71.3-1.327,1.064-1.219,3.643.517,6.691-1.186,9.849-2.514,1.976-.831,3.961-1.638,5.944-2.45,1.33-.544,1.915-.169,1.917,1.259q.013,7.82,0,15.641c0,1.46-.638,1.88-1.987,1.32q-4.724-1.96-9.443-3.933c-.294-.123-.592-.236-1.058-.422,0,.7,0,1.3,0,1.9-.011,1.367-.321,1.688-1.652,1.689-2.639,0-5.279.029-7.918-.017-.739-.013-.93.2-.927.927.027,6.387.017,12.773.015,19.16,0,1.65-.194,1.838-1.858,1.839q-4.546,0-9.091,0c-1.277,0-1.612-.333-1.615-1.63-.008-3.65-.028-7.3.017-10.948.01-.8-.24-1.019-.987-.952a13.514,13.514,0,0,1-1.954,0A1.129,1.129,0,0,1,.02,142.4c0-2.8-.06-5.607.028-8.406A5.186,5.186,0,0,1,5,129.007l.675-.048m8.949,15.469q0-4.644,0-9.289c0-1.782.2-1.981,1.942-1.981,2.607,0,5.215-.023,7.822.01.932.012.62-.627.644-1.075s.186-.975-.648-.971c-6.42.029-12.841,0-19.262.04a2.93,2.93,0,0,0-2.966,3.088c-.021,2.151.04,4.3-.029,6.453-.028.865.4.85,1,.83.553-.018,1.07.115,1.033-.8-.074-1.855.034-3.717-.045-5.571-.041-.946.421-.94,1.113-.954.727-.014,1.09.064,1.083.969-.045,5.9-.023,11.8-.023,17.7,0,2.189,0,2.159,2.187,2.184.713.008.946-.156.937-.911-.042-3.585.017-7.171-.042-10.755-.016-.953.485-.861,1.092-.856s1.123-.1,1.1.856c-.061,3.193-.023,6.388-.023,9.582,0,2.082,0,2.038,2.087,2.089.85.021,1.017-.274,1.007-1.057-.041-3.193-.017-6.388-.017-9.582m22.911-24.249c-2.492,1.031-4.858,2-7.216,2.99-1.014.425-2.34.634-2.93,1.4-.631.819-.137,2.191-.195,3.32-.013.26.027.524-.008.78-.074.55.179.791.679.99,1.808.719,3.592,1.5,5.389,2.244,1.4.583,2.8,1.155,4.281,1.762Zm-27.054,8.815A4.159,4.159,0,1,0,6.3,124.845a4.171,4.171,0,0,0,4.182,4.149m14.562-2.01a11.628,11.628,0,0,1,.009-1.362c.112-.941-.541-.74-1.061-.758-.567-.019-1.116-.085-1.04.8a15.185,15.185,0,0,1,0,2.432c-.057.746.227.9.936.93.933.045,1.325-.214,1.163-1.171a5.33,5.33,0,0,1-.008-.875" transform="translate(0 -94.582)" fill="#fff"/>
        <path id="Trazado_611006" data-name="Trazado 611006" d="M61.636.029q4.984,0,9.969,0a3.225,3.225,0,0,1,3.586,3.55c.026,2.443.013,4.887,0,7.33-.01,2.493-1.235,3.733-3.713,3.744-3.225.013-6.451.018-9.676-.009a1.838,1.838,0,0,0-1.45.615c-1.961,2-3.95,3.973-5.934,5.951-.411.41-.809.928-1.5.659-.753-.294-.76-.966-.756-1.64.011-1.6-.016-3.193.014-4.789.011-.561-.109-.771-.739-.8-2.324-.126-3.408-1.309-3.412-3.605q-.007-3.763,0-7.526A3.169,3.169,0,0,1,51.472.032c3.388-.009,6.776,0,10.164,0M54.3,18.128c.451-.094.612-.4.83-.614,1.39-1.374,2.788-2.741,4.141-4.151a2.475,2.475,0,0,1,1.97-.834c3.452.04,6.906.021,10.359.014,1.117,0,1.454-.337,1.458-1.451.008-2.541,0-5.082.006-7.623,0-.885-.378-1.316-1.29-1.315q-10.164.014-20.327,0c-.922,0-1.285.4-1.275,1.3.023,2.15.012,4.3.006,6.45-.008,2.49-.249,2.712,2.593,2.65,1.237-.027,1.524.3,1.529,1.57.005,1.322,0,2.644,0,4.006" transform="translate(-38.634 -0.021)" fill="#fff"/>
        <path id="Trazado_611007" data-name="Trazado 611007" d="M228.656,122.462c-2.105-4.148-1.822-6.912.91-9.092a6.116,6.116,0,0,1,7.97.191c2.513,2.11,2.743,5.055.69,8.863,3.571.925,5.263,3.652,4.582,7.392a1.1,1.1,0,0,1-1.26.957c-1.857-.009-3.715,0-5.572,0q-5.181,0-10.363,0c-1.281,0-1.561-.279-1.565-1.536a8.152,8.152,0,0,1,.43-3.651,5.385,5.385,0,0,1,4.178-3.12m4.78,6.2c2.182,0,4.364-.015,6.546.01.548.006.717-.163.726-.718a3.152,3.152,0,0,0-3.271-3.432q-4.006-.021-8.011,0a3.159,3.159,0,0,0-3.272,3.153c-.042.728.113,1.03.933,1.007,2.115-.06,4.233-.02,6.35-.021m.009-14.538a4.134,4.134,0,1,0,4.11,4.146,4.081,4.081,0,0,0-4.11-4.146" transform="translate(-180.221 -90.085)" fill="#fff"/>
        <path id="Trazado_611008" data-name="Trazado 611008" d="M238.192,234.435a5.223,5.223,0,0,1,4.527,4.444,14.859,14.859,0,0,1,.066,2.826,1.023,1.023,0,0,1-1.153,1.055q-8.205.008-16.41,0a1.065,1.065,0,0,1-1.193-1.217,13.7,13.7,0,0,1,.124-3.014,5.364,5.364,0,0,1,4.549-4.1,6.486,6.486,0,0,1-1.338-5.8,6.263,6.263,0,0,1,10.218-3.024c2.451,2.12,2.665,5.1.609,8.834m-4.791,6.2c2.148,0,4.3-.018,6.443.012.6.008.852-.12.844-.8a3.161,3.161,0,0,0-3.265-3.344q-4-.026-8.005,0a3.183,3.183,0,0,0-3.3,3.235c-.038.761.225.923.933.908,2.114-.044,4.23-.016,6.346-.016m4.132-10.409a4.122,4.122,0,1,0-4.1,4.155,4.076,4.076,0,0,0,4.1-4.155" transform="translate(-180.199 -180.172)" fill="#fff"/>
        <path id="Trazado_611009" data-name="Trazado 611009" d="M228.665,10.5c-2.166-4.008-1.878-6.892.871-9.114a6.152,6.152,0,0,1,8.045.236c2.492,2.137,2.7,5.222.567,8.861a5.379,5.379,0,0,1,3.823,2.381c1.019,1.515.869,3.233.8,4.917-.032.809-.642,1.017-1.39,1.014-4.007-.016-8.013-.007-12.02-.007-1.27,0-2.541,0-3.811,0-1.238-.006-1.537-.3-1.525-1.572a11.151,11.151,0,0,1,.109-2.627,5.263,5.263,0,0,1,4.528-4.086m4.7,6.174c2.182,0,4.364-.018,6.545.012.592.008.779-.159.778-.768a3.1,3.1,0,0,0-3.223-3.372q-4.054-.031-8.109,0a3.115,3.115,0,0,0-3.227,3.188c-.033.69.1.98.885.959,2.115-.056,4.233-.019,6.35-.02m.04-6.285a4.042,4.042,0,0,0,4.129-4.14,4.122,4.122,0,0,0-8.244-.013,4.056,4.056,0,0,0,4.115,4.154" transform="translate(-180.197 0)" fill="#fff"/>
        <path id="Trazado_611010" data-name="Trazado 611010" d="M107.295,23.244c-1.855,0-3.712-.039-5.565.018-.788.024-.779-.42-.7-.915.076-.473-.422-1.262.657-1.257q5.614.023,11.229,0c1.076,0,.577.791.655,1.263.082.5.073.935-.711.91-1.853-.059-3.71-.019-5.565-.019" transform="translate(-81.231 -16.965)" fill="#fff"/>
        <path id="Trazado_611011" data-name="Trazado 611011" d="M72.249,44.7c-.748,0-1.5-.056-2.244.015-.838.08-.877-.368-.855-1,.021-.6-.095-1.149.857-1.1,1.558.076,3.125.064,4.685.005.964-.037.709.6.729,1.1s.13,1.064-.732.995c-.808-.065-1.626-.014-2.44-.014" transform="translate(-55.623 -34.281)" fill="#fff"/>
        <path id="Trazado_611012" data-name="Trazado 611012" d="M71.133,23.095a4.926,4.926,0,0,0-.875.008c-1.031.189-1.253-.28-1.2-1.226.035-.69.152-1.014.919-.946.741.065,1.493-.009,2.237.024.363.016.925-.223,1.048.214a5.105,5.105,0,0,1,.029,1.735c-.017.217-.308.187-.5.188-.552,0-1.1,0-1.655,0" transform="translate(-55.543 -16.816)" fill="#fff"/>
        <path id="Trazado_611013" data-name="Trazado 611013" d="M135.189,43.658c.273,1.03-.313,1.029-1.052,1.069-.873.048-1.057-.25-1.081-1.087-.028-.951.387-1.015,1.144-1.028.832-.014,1.273.168.989,1.045" transform="translate(-107.033 -34.279)" fill="#fff"/>
        <path id="Trazado_611014" data-name="Trazado 611014" d="M112.95,42.566c.88-.185,1.178.1,1.185.994s-.3,1.072-1.119,1.067c-.771,0-1.106-.146-1.051-1.006.047-.736,0-1.371.985-1.055" transform="translate(-90.063 -34.174)" fill="#fff"/>
        <path id="Trazado_611015" data-name="Trazado 611015" d="M156.687,43.739c.272,1.1-.512.868-1.141.944-.938.113-.887-.423-.947-1.094-.087-.972.414-.964,1.141-1.013.973-.065,1.079.413.947,1.164" transform="translate(-124.357 -34.244)" fill="#fff"/>
      </g>
    </g>
  </g>
</svg>
