<svg xmlns="http://www.w3.org/2000/svg" xmlns:xlink="http://www.w3.org/1999/xlink" width="107" height="107" viewBox="0 0 107 107">
  <defs>
    <clipPath id="clip-path">
      <rect id="Rectángulo_378778" data-name="Rectángulo 378778" width="71.12" height="59.163" fill="#fff"/>
    </clipPath>
  </defs>
  <g id="Grupo_156312" data-name="Grupo 156312" transform="translate(-288.668 -4448)">
    <circle id="Elipse_5845" data-name="Elipse 5845" cx="53.5" cy="53.5" r="53.5" transform="translate(288.668 4448)" fill="#376460"/>
    <g id="Grupo_1073461" data-name="Grupo 1073461" transform="translate(306.608 4471.919)">
      <g id="Grupo_1073460" data-name="Grupo 1073460" clip-path="url(#clip-path)">
        <path id="Trazado_610996" data-name="Trazado 610996" d="M37.263,50.21a5.046,5.046,0,0,0,1.287.616c1.344.55,2.692,1.089,4.035,1.64a1.061,1.061,0,0,1,.755,1,1.031,1.031,0,0,1-.657.952.858.858,0,0,1-.725,0q-3.535-1.435-7.071-2.866-1.568-.637-3.13-1.287a1.239,1.239,0,0,0-.491-.069l-13.6.006a3.287,3.287,0,0,1-.637-.034,1,1,0,0,1-.131-1.949,2.29,2.29,0,0,1,.715-.08l4.254,0c.4,0,.395,0,.395-.393q0-9.453,0-18.906c0-.25.005-.5.01-.751,0-.168-.038-.234-.2-.114a18.627,18.627,0,0,0-6.992,8.9c-.074.208-.11.43-.183.639a1.035,1.035,0,1,1-1.96-.65c.118-.36.236-.721.367-1.076a19.629,19.629,0,0,1,3.533-5.87,25.606,25.606,0,0,1,2.815-2.678c.049-.042.1-.082.147-.127.01-.01.007-.034.011-.054-.053-.077-.134-.042-.2-.042q-6.576,0-13.151,0c-.242,0-.331.042-.331.316q.016,8.633.01,17.266c0,.306.018.614-.011.917a2.44,2.44,0,0,0,2.5,2.626c1.325,0,2.651,0,3.976,0a2.629,2.629,0,0,1,.663.054.992.992,0,0,1,.783,1.008.964.964,0,0,1-.866.961,1.241,1.241,0,0,1-.193.025,45.581,45.581,0,0,1-5.111-.067,4.257,4.257,0,0,1-3.343-2.476,5.119,5.119,0,0,1-.489-2.373c-.006-1.946-.044-3.893.028-5.838a.447.447,0,0,0-.33-.507,7.723,7.723,0,0,1-2-1,4.521,4.521,0,0,1-1.717-3.1,4.657,4.657,0,0,1,.4-2.35c.674-1.643,1.33-3.293,2-4.939q.7-1.736,1.411-3.469a2.967,2.967,0,0,0,.22-1.16q-.016-4.5,0-9.008a4.947,4.947,0,0,1,.82-2.977A4.441,4.441,0,0,1,8.428,8.966c.426-.018.853-.01,1.279,0a.313.313,0,0,0,.347-.234q1.155-2.9,2.331-5.791A4.552,4.552,0,0,1,16.7,0a4.639,4.639,0,0,1,1.671.366C19.712.922,21.064,1.452,22.408,2a1.025,1.025,0,0,1,.756.987.993.993,0,0,1-1.306.971c-.619-.216-1.224-.474-1.834-.718-.833-.333-1.668-.661-2.5-1.008a2.488,2.488,0,0,0-3.25,1.447c-.652,1.671-1.338,3.33-2.008,4.995-.109.27-.095.288.207.288l20.269-.007H33.88a.718.718,0,0,0-.395-.275q-3.358-1.355-6.717-2.7c-.326-.131-.648-.27-.977-.393a1.089,1.089,0,0,1-.754-.755.944.944,0,0,1,.287-.985.947.947,0,0,1,1.07-.231q3.829,1.557,7.66,3.11Q36.729,7.81,39.4,8.9a1.331,1.331,0,0,0,.519.066q11.149,0,22.3-.011a4.75,4.75,0,0,1,3.045.929,4.5,4.5,0,0,1,1.781,3.353c.029.379.044.758.042,1.138-.008,1.826-.012,3.652-.024,5.478a.318.318,0,0,0,.245.341,7.625,7.625,0,0,1,2.315,1.23A4.578,4.578,0,0,1,70.755,26.6c-.746,1.753-1.437,3.53-2.151,5.3q-.707,1.749-1.413,3.5a2.044,2.044,0,0,0-.128.816c.051,3.049.023,6.1.018,9.147a4.731,4.731,0,0,1-1.156,3.305A4.417,4.417,0,0,1,62.683,50.2c-.426.014-.853.008-1.279,0a.273.273,0,0,0-.307.2c-.779,1.949-1.57,3.894-2.35,5.843a4.593,4.593,0,0,1-4.273,2.92,4.437,4.437,0,0,1-1.6-.318q-3.441-1.405-6.892-2.79a1.284,1.284,0,0,1-.579-.414.893.893,0,0,1-.008-1.216.964.964,0,0,1,1.162-.33q3.156,1.263,6.306,2.538c.283.114.573.211.854.328a2.455,2.455,0,0,0,3.093-1.389c.533-1.331,1.075-2.658,1.612-3.987.152-.377.295-.758.453-1.133.088-.209.015-.262-.188-.253-.259.011-.519.006-.779.006l-19.824.006h-.824M26.723,27.086c.081.052.123.074.159.1a21.8,21.8,0,0,1,2.746,2.592,18.566,18.566,0,0,1,4.092,7.239.682.682,0,0,1,.032.38,1.109,1.109,0,0,1-1.032.9,1.091,1.091,0,0,1-1.011-.845,13.889,13.889,0,0,0-.682-1.846,19.2,19.2,0,0,0-6.491-7.639c-.05-.036-.1-.1-.169-.062s-.038.118-.038.18c0,.426,0,.853,0,1.279q0,9.273,0,18.545c0,.2.069.254.258.246.4-.015.8-.014,1.2-.014H61.452c.334,0,.668.018,1,.01a2.463,2.463,0,0,0,2.368-1.492,3.577,3.577,0,0,0,.172-1.584q0-8.73,0-17.461c0-.584,0-.584-.58-.584l-37.229-.01a1.054,1.054,0,0,0-.459.067m5.734-2.176h1.694q15.277.006,30.555.018c.243,0,.291-.08.289-.3-.01-.927,0-1.853,0-2.78,0-2.752-.029-5.505.026-8.257a2.506,2.506,0,0,0-2.149-2.54c-.584-.053-1.167-.024-1.75-.024q-18.21,0-36.421,0c-.355,0-.36,0-.361.369q0,4.935-.006,9.87c0,.222,0,.445,0,.667,0,.055-.008.123.052.147.089.035.1-.054.133-.1a22.762,22.762,0,0,1,2.046-2.665A9.808,9.808,0,0,1,30.036,16.6a3.677,3.677,0,0,1,3.538.211,5.031,5.031,0,0,1,1.794,1.934,3.463,3.463,0,0,1-.176,3.756,6.838,6.838,0,0,1-2.181,2.026,3.373,3.373,0,0,0-.554.382M22.265,22.081V20.928q0-4.795,0-9.589c0-.195,0-.322-.271-.321q-6.157.014-12.314.006c-.361,0-.722,0-1.084,0A2.446,2.446,0,0,0,6.12,13.667c.022.239.016.481.016.722q0,5.128,0,10.257c0,.185.013.277.248.277,2.492,0,4.984-.063,7.475.034.091,0,.2.039.293-.071-.126-.083-.239-.161-.356-.232a8.643,8.643,0,0,1-1.841-1.466,3.681,3.681,0,0,1-.7-4.464,5.094,5.094,0,0,1,1.711-1.865,3.658,3.658,0,0,1,3.606-.26,10.307,10.307,0,0,1,3.732,3c.68.794,1.313,1.625,1.96,2.479m-.757,2.8c-.047-.086-.075-.143-.108-.2a26.969,26.969,0,0,0-2.706-3.829,9.357,9.357,0,0,0-2.5-2.183,1.963,1.963,0,0,0-2.838.555l-.052.065a1.644,1.644,0,0,0,0,2.36,5.922,5.922,0,0,0,2.021,1.532,18,18,0,0,0,6.18,1.7m3.6-.025c.043.023.06.04.074.038.173-.028.345-.064.519-.087a17.883,17.883,0,0,0,5.015-1.347A6.39,6.39,0,0,0,33.3,21.643a1.559,1.559,0,0,0,.086-2.242,2.842,2.842,0,0,0-.536-.6,1.788,1.788,0,0,0-2.033-.329,6.225,6.225,0,0,0-1.739,1.175,21.054,21.054,0,0,0-3.34,4.172c-.22.337-.424.686-.636,1.031M4.015,29.014c-.023.05-.039.081-.052.113q-.742,1.851-1.482,3.7a4.647,4.647,0,0,0-.443,1.422,2.533,2.533,0,0,0,1.768,2.514c.254.1.273.083.266-.19-.053-2.322-.047-4.645,0-6.967a1.269,1.269,0,0,0-.053-.595m63.069,1.037.065.009q.168-.422.336-.844c.488-1.218.98-2.435,1.464-3.654a2.03,2.03,0,0,0,.124-1.143A2.6,2.6,0,0,0,67.358,22.4c-.281-.114-.3-.105-.295.192.052,2.269.014,4.538.021,6.807,0,.217,0,.433,0,.65" transform="translate(0 0)" fill="#fff"/>
        <path id="Trazado_610997" data-name="Trazado 610997" d="M230.367,134.464a2.181,2.181,0,0,1,.07-.683,1.033,1.033,0,0,1,1.887-.217,1.221,1.221,0,0,1,.129.81.766.766,0,0,0,.575.965,3.027,3.027,0,0,1,1.433,1.271,1.065,1.065,0,0,1-.245,1.477,1.009,1.009,0,0,1-1.5-.38,1.492,1.492,0,0,0-2.1-.462,1.2,1.2,0,0,0,.1,2.009,3.171,3.171,0,0,0,1.12.287,3.808,3.808,0,0,1,2.855,1.612,3.458,3.458,0,0,1-1.8,5.1c-.071.021-.14.052-.212.066a.272.272,0,0,0-.247.331,7.6,7.6,0,0,1-.01.833,1.02,1.02,0,0,1-.8.906,1.036,1.036,0,0,1-1.114-.545,2.312,2.312,0,0,1-.137-1.2c.012-.245-.076-.321-.3-.388a3.58,3.58,0,0,1-2.324-2.112,1.043,1.043,0,0,1,.649-1.477.962.962,0,0,1,1.068.388,1.678,1.678,0,0,1,.2.362,1.478,1.478,0,0,0,1.276.935,3.98,3.98,0,0,0,1.109,0,1.271,1.271,0,0,0,1.087-1.1,1.237,1.237,0,0,0-1.056-1.547c-.439-.113-.883-.2-1.33-.277a3.153,3.153,0,0,1-2.7-3.021,3.291,3.291,0,0,1,1.959-3.163c.285-.127.4-.275.347-.571a1.457,1.457,0,0,1,0-.2" transform="translate(-177.005 -103.446)" fill="#fff"/>
      </g>
    </g>
  </g>
</svg>
